<svg xmlns="http://www.w3.org/2000/svg" width="27" height="40">
    <defs>
        <linearGradient id="a" x1="0%" x2="50%" y1="86.603%" y2="0%">
            <stop offset="0%" stop-color="#EF451F"/>
            <stop offset="100%" stop-color="#FCDD57"/>
        </linearGradient>
    </defs>
    <path fill="#307292" fill-rule="evenodd" d="M25.446 29.251l-.087.136h.001l-.236.369-.377.451s-.202.046-.153-.168c.048-.214.137-.245.137-.245l.084-.413s-.051-.454-.205-.184c-.229.402-.41.213-.41.213l.132-.591c0-.138.29-.551.386-.62.097-.069-.554-2.731-.277-3.695 0 0-.148-1.044-.358-1.239-.025-.024-.047-.028-.064-.018-.007.004-.011.018-.016.025-.01.014-.02.024-.027.048-.005.016-.008.041-.012.062-.005.026-.01.049-.013.08-.003.027-.004.06-.006.09-.018.295.005.718.005.91 0 .191.039.502.06.845l.002-.02c.001.013-.002.027-.001.04.015.257.022.529-.012.787-.081.612.595 2.815-.531 6.365-.297.936.615 2.547-.668 5.485 0 0-.216.711-.024.971 0 0 .186.175.33.353 2.253.047 3.903.187 3.903.354 0 .205-2.464.371-5.504.371-3.04 0-5.504-.166-5.504-.371 0-.167 1.65-.307 3.904-.354.143-.178.329-.353.329-.353.193-.26-.024-.971-.024-.971-1.283-2.938-.371-4.549-.668-5.485-1.126-3.55-.45-5.753-.531-6.365a4.258 4.258 0 0 1-.012-.79v-.039a.6.6 0 0 0 .001.021c.021-.343.06-.654.06-.844 0-.189.022-.599.007-.892l-.007-.105c-.003-.029-.008-.05-.013-.074-.004-.024-.006-.052-.012-.07-.007-.023-.017-.032-.026-.045-.006-.009-.01-.025-.017-.029-.018-.011-.039-.006-.065.018-.21.195-.358 1.239-.358 1.239.278.964-.374 3.626-.277 3.695.096.069.386.482.386.62l.132.591s-.181.189-.41-.213c-.154-.27-.205.184-.205.184l.085.413s.088.031.136.245c.049.214-.153.168-.153.168l-.377-.451-.322-.505.016-.964c-.676-4.406.356-5.445.418-7.206.073-2.043 1.174-2.28 1.174-2.28s.796-.413 1.086-.596c.143-.091.203-.466.228-.823l.006-.125a2.072 2.072 0 0 1-.67-.765c-.098.037-.269.057-.314-.246-.065-.428-.242-.183-.338-.795-.059-.373.103-.336.239-.251-.116-.416-.242-.946-.255-1.368-.023-.745.506-1.104.506-1.104-.147-.429.351-.604.261-.525-.091.078 0 .315 0 .315.566-.363 1.077-.508 1.536-.523l.048-.01.037.008c1.626.003 2.517 1.725 2.403 1.847-.081.087-.249.832-.377 1.372.139-.093.319-.152.258.239-.097.612-.274.367-.338.795-.044.291-.202.282-.302.249-.17.337-.414.583-.668.762l.007.126c.024.356.085.731.227.822.29.183 1.086.596 1.086.596s1.102.237 1.174 2.28c.062 1.761 1.094 2.8.418 7.206l.016.964zm-3.585 4.663a6.186 6.186 0 0 1-.143-1.343c.011-.867-.177-2.257-.213-2.842-.036.585-.224 1.975-.213 2.842.007.507-.068.991-.143 1.343 0 0-.123.405 0 .963.404 1.825-.274 3.526.018 4.288 0 0 .019.047.04.108l.298-.002.298.002a1.82 1.82 0 0 1 .041-.108c.291-.762-.387-2.463.017-4.288.123-.558 0-.963 0-.963zM9.212 38.897c.129.087.237.19.299.313 2.623.057 4.493.202 4.493.372 0 .221-3.136.4-7.004.4-3.867 0-7.002-.179-7.002-.4 0-.17 1.869-.315 4.492-.372a.873.873 0 0 1 .299-.313l.167-.296c.084-.15.17-.389.126-.555l-.125-.922-.542-3.993a3.18 3.18 0 0 1-.032-.934s.355-2.422.343-2.565L3.37 22.564a3.008 3.008 0 0 1-.045-.663 1.262 1.262 0 0 1-.196-.442l-.23-1.292.006-.004-.059-.716-.823-5.552a3.007 3.007 0 0 1-.023-.69l.242-2.955h-.009l.067-.699v-.003l.045-.476c0-.756.536-1.409 1.285-1.569l.096-.038c-.076-1.918.202-5.227.577-5.911C4.817.612 5.722-.003 6.826-.003h.35c1.103 0 2.008.615 2.523 1.557.373.684.653 3.993.576 5.911l.096.038a1.61 1.61 0 0 1 1.285 1.569l.045.476.001.003.067.699h-.01l.242 2.955c.019.23.012.461-.022.69l-.824 5.554-.059.714.006.004-.23 1.292a1.262 1.262 0 0 1-.196.442c.007.222-.002.444-.045.663l-1.356 7.068c-.012.143.343 2.565.343 2.565.036.311.025.626-.032.934l-.539 3.973-.128.942c-.044.166.042.405.127.555l.166.296zM4.506 16.332a12.494 12.494 0 0 0-.023-.503 33.01 33.01 0 0 0-.075-.781 27.752 27.752 0 0 0-.148-1.077 43.556 43.556 0 0 0-.113-.699l-.057-.333a1.374 1.374 0 0 1-.247-1.078l.02-.104-.35 1.571.396 1.888c.037.152.036.327.013.502l-.099 1.845-.122 2.252c.149-.551.329-1.096.542-1.627l.132-.331c.052-.175.087-.375.109-.592.005-.043.004-.093.008-.138.013-.175.022-.355.021-.547 0-.081-.005-.166-.007-.248zm5 .723c.005.075.006.155.014.227.022.21.055.405.106.575l.132.331c.214.532.393 1.076.542 1.628l-.122-2.253-.099-1.845a1.398 1.398 0 0 1 .013-.502l.396-1.888-.35-1.571.02.104c.078.398-.028.779-.247 1.078l-.064.379-.039.237c-.025.148-.049.301-.074.46-.015.096-.029.197-.043.296-.022.15-.043.303-.064.458l-.038.315a25 25 0 0 0-.072.776c-.011.155-.016.305-.021.454-.003.098-.007.197-.007.291 0 .157.008.304.017.45zM7.849 36.794l-.65-15.258c-.002-.084-.09-.055-.198.025v-.855H7v.855c-.108-.08-.196-.109-.198-.025l-.65 15.257-.018 1.451a.607.607 0 0 0 .023.203l.138.474c.031.023.066.042.093.067.117.012.198.091.236.196L7 39.182l.377.002a.281.281 0 0 1 .236-.196c.027-.025.063-.044.093-.067l.138-.474a.607.607 0 0 0 .023-.203l-.018-1.45z"/>
    <path fill="url(#a)" d="M25.446 29.251l-.087.136h.001l-.236.369-.377.451s-.202.046-.153-.168c.048-.214.137-.245.137-.245l.084-.413s-.051-.454-.205-.184c-.229.402-.41.213-.41.213l.132-.591c0-.138.29-.551.386-.62.097-.069-.554-2.731-.277-3.695 0 0-.148-1.044-.358-1.239-.025-.024-.047-.028-.064-.018-.007.004-.011.018-.016.025-.01.014-.02.024-.027.048-.005.016-.008.041-.012.062-.005.026-.01.049-.013.08-.003.027-.004.06-.006.09-.018.295.005.718.005.91 0 .191.039.502.06.845l.002-.02c.001.013-.002.027-.001.04.015.257.022.529-.012.787-.081.612.595 2.815-.531 6.365-.297.936.615 2.547-.668 5.485 0 0-.216.711-.024.971 0 0 .186.175.33.353 2.253.047 3.903.187 3.903.354 0 .205-2.464.371-5.504.371-3.04 0-5.504-.166-5.504-.371 0-.167 1.65-.307 3.904-.354.143-.178.329-.353.329-.353.193-.26-.024-.971-.024-.971-1.283-2.938-.371-4.549-.668-5.485-1.126-3.55-.45-5.753-.531-6.365a4.258 4.258 0 0 1-.012-.79v-.039a.6.6 0 0 0 .001.021c.021-.343.06-.654.06-.844 0-.189.022-.599.007-.892l-.007-.105c-.003-.029-.008-.05-.013-.074-.004-.024-.006-.052-.012-.07-.007-.023-.017-.032-.026-.045-.006-.009-.01-.025-.017-.029-.018-.011-.039-.006-.065.018-.21.195-.358 1.239-.358 1.239.278.964-.374 3.626-.277 3.695.096.069.386.482.386.62l.132.591s-.181.189-.41-.213c-.154-.27-.205.184-.205.184l.085.413s.088.031.136.245c.049.214-.153.168-.153.168l-.377-.451-.322-.505.016-.964c-.676-4.406.356-5.445.418-7.206.073-2.043 1.174-2.28 1.174-2.28s.796-.413 1.086-.596c.143-.091.203-.466.228-.823l.006-.125a2.072 2.072 0 0 1-.67-.765c-.098.037-.269.057-.314-.246-.065-.428-.242-.183-.338-.795-.059-.373.103-.336.239-.251-.116-.416-.242-.946-.255-1.368-.023-.745.506-1.104.506-1.104-.147-.429.351-.604.261-.525-.091.078 0 .315 0 .315.566-.363 1.077-.508 1.536-.523l.048-.01.037.008c1.626.003 2.517 1.725 2.403 1.847-.081.087-.249.832-.377 1.372.139-.093.319-.152.258.239-.097.612-.274.367-.338.795-.044.291-.202.282-.302.249-.17.337-.414.583-.668.762l.007.126c.024.356.085.731.227.822.29.183 1.086.596 1.086.596s1.102.237 1.174 2.28c.062 1.761 1.094 2.8.418 7.206l.016.964zm-3.585 4.663a6.186 6.186 0 0 1-.143-1.343c.011-.867-.177-2.257-.213-2.842-.036.585-.224 1.975-.213 2.842.007.507-.068.991-.143 1.343 0 0-.123.405 0 .963.404 1.825-.274 3.526.018 4.288 0 0 .019.047.04.108l.298-.002.298.002a1.82 1.82 0 0 1 .041-.108c.291-.762-.387-2.463.017-4.288.123-.558 0-.963 0-.963zM9.212 38.897c.129.087.237.19.299.313 2.623.057 4.493.202 4.493.372 0 .221-3.136.4-7.004.4-3.867 0-7.002-.179-7.002-.4 0-.17 1.869-.315 4.492-.372a.873.873 0 0 1 .299-.313l.167-.296c.084-.15.17-.389.126-.555l-.125-.922-.542-3.993a3.18 3.18 0 0 1-.032-.934s.355-2.422.343-2.565L3.37 22.564a3.008 3.008 0 0 1-.045-.663 1.262 1.262 0 0 1-.196-.442l-.23-1.292.006-.004-.059-.716-.823-5.552a3.007 3.007 0 0 1-.023-.69l.242-2.955h-.009l.067-.699v-.003l.045-.476c0-.756.536-1.409 1.285-1.569l.096-.038c-.076-1.918.202-5.227.577-5.911C4.817.612 5.722-.003 6.826-.003h.35c1.103 0 2.008.615 2.523 1.557.373.684.653 3.993.576 5.911l.096.038a1.61 1.61 0 0 1 1.285 1.569l.045.476.001.003.067.699h-.01l.242 2.955c.019.23.012.461-.022.69l-.824 5.554-.059.714.006.004-.23 1.292a1.262 1.262 0 0 1-.196.442c.007.222-.002.444-.045.663l-1.356 7.068c-.012.143.343 2.565.343 2.565.036.311.025.626-.032.934l-.539 3.973-.128.942c-.044.166.042.405.127.555l.166.296zM4.506 16.332a12.494 12.494 0 0 0-.023-.503 33.01 33.01 0 0 0-.075-.781 27.752 27.752 0 0 0-.148-1.077 43.556 43.556 0 0 0-.113-.699l-.057-.333a1.374 1.374 0 0 1-.247-1.078l.02-.104-.35 1.571.396 1.888c.037.152.036.327.013.502l-.099 1.845-.122 2.252c.149-.551.329-1.096.542-1.627l.132-.331c.052-.175.087-.375.109-.592.005-.043.004-.093.008-.138.013-.175.022-.355.021-.547 0-.081-.005-.166-.007-.248zm5 .723c.005.075.006.155.014.227.022.21.055.405.106.575l.132.331c.214.532.393 1.076.542 1.628l-.122-2.253-.099-1.845a1.398 1.398 0 0 1 .013-.502l.396-1.888-.35-1.571.02.104c.078.398-.028.779-.247 1.078l-.064.379-.039.237c-.025.148-.049.301-.074.46-.015.096-.029.197-.043.296-.022.15-.043.303-.064.458l-.038.315a25 25 0 0 0-.072.776c-.011.155-.016.305-.021.454-.003.098-.007.197-.007.291 0 .157.008.304.017.45zM7.849 36.794l-.65-15.258c-.002-.084-.09-.055-.198.025v-.855H7v.855c-.108-.08-.196-.109-.198-.025l-.65 15.257-.018 1.451a.607.607 0 0 0 .023.203l.138.474c.031.023.066.042.093.067.117.012.198.091.236.196L7 39.182l.377.002a.281.281 0 0 1 .236-.196c.027-.025.063-.044.093-.067l.138-.474a.607.607 0 0 0 .023-.203l-.018-1.45z"/>
</svg>
