<?xml version="1.0" encoding="utf-8"?>
<!-- Generator: Adobe Illustrator 21.0.0, SVG Export Plug-In . SVG Version: 6.00 Build 0)  -->
<svg version="1.1" id="Layer_1" xmlns="http://www.w3.org/2000/svg" xmlns:xlink="http://www.w3.org/1999/xlink" x="0px" y="0px"
	 viewBox="0 0 149.7 149.6" style="enable-background:new 0 0 149.7 149.6;" xml:space="preserve">
<style type="text/css">
	.st0{opacity:0.5;fill:#90A0D3;}
	.st1{fill:#FFFFFF;}
	.st2{fill:#E8E8E8;}
	.st3{fill:#C94F55;}
	.st4{fill:#FFFA55;}
</style>
<g>
	<polygon class="st0" points="74.8,59.8 79.1,0 76.5,59.9 87.6,1 78.2,60.2 95.9,2.9 79.9,60.6 104,5.8 81.4,61.3 111.6,9.6 
		82.9,62.1 118.8,14.2 84.3,63.1 125.4,19.6 85.6,64.3 131.4,25.7 86.7,65.6 136.6,32.5 87.6,67 141,39.8 88.4,68.5 144.6,47.6 
		89.1,70.1 147.2,55.7 89.5,71.8 148.9,64.1 89.7,73.5 149.7,72.6 89.8,75.2 149.4,81.1 89.6,76.9 148.2,89.6 89.3,78.5 146,97.9 
		88.8,80.2 142.9,105.8 88.1,81.7 138.9,113.4 87.2,83.2 134.1,120.4 86.1,84.5 128.5,126.9 85,85.8 122.2,132.7 83.6,86.8 
		115.3,137.7 82.2,87.8 107.9,141.9 80.7,88.5 100,145.2 79,89.1 91.8,147.7 77.4,89.5 83.4,149.1 75.7,89.7 74.8,149.6 74,89.7 
		66.3,149.1 72.3,89.5 57.9,147.7 70.6,89.1 49.7,145.2 69,88.5 41.8,141.9 67.5,87.8 34.4,137.7 66,86.8 27.4,132.7 64.7,85.8 
		21.1,126.9 63.5,84.5 15.5,120.4 62.5,83.2 10.7,113.4 61.6,81.7 6.7,105.8 60.9,80.2 3.6,97.9 60.3,78.5 1.5,89.6 60,76.9 
		0.2,81.1 59.9,75.2 0,72.6 59.9,73.5 0.7,64.1 60.2,71.8 2.4,55.7 60.6,70.1 5.1,47.6 61.2,68.5 8.6,39.8 62,67 13,32.5 63,65.6 
		18.3,25.7 64.1,64.3 24.2,19.6 65.4,63.1 30.8,14.2 66.7,62.1 38,9.6 68.2,61.3 45.7,5.8 69.8,60.6 53.7,2.9 71.4,60.2 62.1,1 
		73.1,59.9 70.6,0 	"/>
	<g>
		<circle cx="54.4" cy="49.3" r="20.5"/>
		<circle cx="66.4" cy="69.8" r="20.5"/>
		<circle cx="32.3" cy="71.3" r="20.5"/>
		<path d="M98,46.5C96.4,56.6,89.7,65,79.5,65S61,56.7,61,46.5S70.6,27,80.8,27S99.9,35.1,98,46.5z"/>
		<circle cx="77.8" cy="113.3" r="16.8"/>
		<circle cx="53.9" cy="90.3" r="16.8"/>
		<circle cx="37.1" cy="96.5" r="16.8"/>
		<circle cx="54.4" cy="113.3" r="16.8"/>
		<circle cx="98.4" cy="68.2" r="23.5"/>
		<circle cx="83.5" cy="91.8" r="17.3"/>
		<ellipse cx="99.5" cy="99.9" rx="18.7" ry="20.2"/>
	</g>
	<path class="st1" d="M119.2,68.7c0-12.8-10.4-23.1-23.1-23.1c0-9.3-7.5-16.8-16.8-16.8c-5,0-9.6,2.2-12.6,5.7
		c-3.2-2.1-7.1-3.4-11.2-3.4c-11.3,0-20.5,9.2-20.5,20.5c-11.3,0-20.5,9.2-20.5,20.5c0,6.8,3.3,12.7,8.3,16.5
		c-0.7,1.8-1.1,3.8-1.1,5.9c0,9.3,7.5,16.8,16.8,16.8c0,0,0,0,0.1,0c0.7,8.7,7.9,15.5,16.8,15.5c4.4,0,8.4-1.7,11.4-4.5
		c3,2.8,7,4.5,11.4,4.5c6.8,0,12.7-4.1,15.3-9.9c0.8,0.1,1.7,0.2,2.5,0.2c10.9,0,19.7-8.8,19.7-19.7c0-4.4-1.5-8.4-3.9-11.7
		C116.4,81.3,119.2,75.4,119.2,68.7z"/>
	<path class="st2" d="M114.1,89.5c-0.3,2.6-1.4,5-3,7c-2.5,3.8-6.8,6.3-11.6,6.3c-1.5,0-2.9-0.3-4.3-0.7c-0.6-0.1-1.1-0.2-1.6-0.4
		c-2.9,6.4-9.2,10.9-16.5,11.2c-2.5,2.7-6.1,4.4-10,4.4c-2,0-3.8-0.4-5.5-1.2c-4,0.8-8.1,0.4-12-1.7c-4.4-2.3-7.4-6.5-8.8-11.2
		c-6.1,2.1-13.6-0.1-16.7-6c-0.9-1.6-1.8-3.3-2.1-5.1c0,0,0-0.1,0-0.1c0,0,0,0,0,0c-0.1,0.8-0.2,1.7-0.2,2.5
		c0,9.3,7.5,16.8,16.8,16.8c0,0,0,0,0.1,0c0.7,8.7,7.9,15.5,16.8,15.5c4.4,0,8.4-1.7,11.4-4.5c3,2.8,7,4.5,11.4,4.5
		c6.8,0,12.7-4.1,15.3-9.9c0.8,0.1,1.7,0.2,2.5,0.2c10.9,0,19.7-8.8,19.7-19.7C115.7,94.5,115.1,91.9,114.1,89.5z"/>
	<path d="M33.5,51.6c0.2-0.2,0.3-0.4,0.5-0.6c0-0.1,0-0.2,0-0.2c1.8,0,3.6,0.5,5.1,1.5c-0.8-0.1-1.5-0.3-2.3-0.4
		C35.6,51.7,34.5,51.5,33.5,51.6z"/>
	<path d="M66.2,34.1c1.8,1.4,3.4,3,4.9,4.7c-0.7-2.1-1.9-4-3.6-5.5C67,33.4,66.6,33.7,66.2,34.1z"/>
	<path d="M32.8,93.8c-2.5-1-4.2-3.5-4.6-6.1c-0.4-2.6,0.6-5.4,2.4-7.3c-1.4,0.2-2.6,1.2-3.3,2.5c-0.6,1.3-0.7,2.8-0.6,4.2
		c0,0.6,0.1,1.1,0.3,1.7c0.6,1.7,2.1,2.9,3.6,3.8C31.4,93,32.1,93.4,32.8,93.8z"/>
	<path d="M23.8,87c0.4-0.6,0.9-1.2,1.5-1.7c-0.6,0.3-1.1,0.7-1.6,1.2c-0.6,0.5-0.9,1-1.2,1.8c0,0,0,0.1-0.1,0.1l0,0.1
		C22.2,88.7,22,89,22,89.3c0,0.1,0.1,0.8,0.1,1C22.4,89,23,88,23.8,87z"/>
	<path d="M99,109.9c0.3,2.3-0.8,4.7-2.7,6.1c-1.9,1.4-4.5,1.7-6.7,1.1c3.1,0,6.1-1.4,8.1-3.7C98.5,112.4,99.2,111.2,99,109.9z"/>
	<path d="M112.2,86.9c0.7-2.1,0.7-4.7,0.2-6.6c-0.6-2.1-2.1-4.1-4.2-5c0.8,0.2,1.4,0.9,1.8,1.6c0.4,0.8,0.5,1.6,0.7,2.4
		c0.3,1.3,0.5,2.7,0.5,4.1c-0.1,3.3-2.3,6.9-5.4,8.1c1-0.4,2.1-0.2,3.2-0.8c1.1-0.6,2-1.5,2.6-2.5C111.8,87.8,112,87.3,112.2,86.9z"
		/>
	<path d="M96.2,52.6c-0.5-1.2-1.3-2.3-2.2-3.2c-1.9-1.9-4.4-2.5-7.1-2.5c-2.5,0.1-5.1,0.6-7.5,1c0.8-0.1,1.7-0.8,2.5-1.1
		c1-0.3,2-0.6,3-0.7c1.9-0.3,4-0.4,5.8,0.1c3.6,0.9,6.8,3.7,7.4,7.3c0.2,1.1,0.1,2.2-0.1,3.3c-0.2,1.1-0.4,2.2-0.9,3.2
		c0.4-0.8,0.1-1.7,0.2-2.5c0-1-0.1-2-0.4-3C96.8,53.9,96.5,53.2,96.2,52.6z"/>
	<path d="M38.8,109.6c-0.1,0.5-0.2,0.9-0.2,1.4c-0.1,1.3,0.2,2.6,0.6,3.9c-0.7-0.8-1.5-1.6-1.5-2.7c0-0.5,0.1-1.1,0.3-1.6
		c0.4-1.4,0.8-2.9,1.8-4C39.3,107.6,39.1,108.6,38.8,109.6z"/>
	<path d="M69.3,119.8c0.3-0.3,0.6-0.7,0.7-1.2c-0.6,2.4-1.8,4.6-3.5,6.4c-1-0.2-2-0.4-2.9-0.4C65.8,123.6,67.6,121.7,69.3,119.8z"/>
	<path d="M59.2,115.9c3.1,1.3,6.5,2.1,9.9,1.8c3.4-0.3,6.8-1.9,8.7-4.6c-2,4.2-7,6.7-11.6,5.9c-1.2-0.2-2.4-0.6-3.5-1.1
		C61.4,117.4,60.1,116.9,59.2,115.9z"/>
	<path d="M55.9,50.2c-0.8-0.8-2.9-0.9-3.9-1.1c-1.2-0.2-2.5-0.3-3.8-0.2c-2.5,0.2-5,1-7,2.7c-1.4,1.2-2.4,2.9-3.4,4.5
		c-0.9,1.4-1.2,3.9-1.1,5.5c-0.1-2-0.8-3.5-0.3-5.5C38.2,48,49.8,44.9,55.9,50.2z"/>
	<path d="M99.1,97.6c-0.3,0.9-0.8,1.6-1.5,2.2c-1.5,1.3-3.8,1.7-5.7,1.1c1.4,0.8,3,0.9,4.6,0.6c1.3-0.3,2.5-0.9,3.3-1.9
		c0.9-1,1.4-2.3,1.2-3.6c-0.2-1.3-1-2.5-2.2-3c0.6,0.6,0.6,1.5,0.6,2.4C99.3,96.2,99.3,96.9,99.1,97.6z"/>
	<g>
		<path class="st3" d="M27.8,30c0.6-1.7,2-2.9,3.5-3.8c-2.4,0.4-5.3-0.5-7.4-1.6C22.5,24,21,23,20,21.8c-1.1-1.3-1.9-2.7-2.6-4.2
			c1.5,4.1-0.4,8.5-3.8,11.2c-0.8,0.7-1.8,1.1-2.7,1.6c0.7-0.4,2.5,0.4,3.2,0.7c0.9,0.3,1.7,0.8,2.4,1.4c0.7,0.5,1.3,1,1.8,1.7
			c0.7,1.1,1.4,2.3,1.5,3.7c0,0.4,0,0.8,0,1.2c0,0.4,0,0.8-0.1,1.2c0.4-1.5,1.1-3,2.5-3.7c0.5-0.3,1.1-0.5,1.7-0.6
			c1.4-0.2,2.9-0.1,4.3,0c0.6,0.1,1.2,0.2,1.8,0.5c-0.5-0.5-0.8-1-1.2-1.5c-0.5-0.8-0.8-1.7-1.1-2.6C27.5,31.5,27.6,30.8,27.8,30z"
			/>
		<path class="st4" d="M23.1,26.4c-1.6-1-3.1-2.4-4.2-3.9c0.1,1.4,0,2.9-0.8,4.1c-0.6,0.9-1.5,1.4-2.4,1.9c-1,0.5-2.1,1-3.1,1.4
			c1.6-0.2,3.2,0.2,4.6,1c1.1,0.7,1.7,1.8,2.3,2.9c0.6,1.3,1.1,2.7,0.9,4.2c0.2-0.9,0.3-1.8,0.9-2.5c1.1-1.3,2.9-1.3,4.5-0.9
			c1.1,0.2,2.1,0.6,3.1,1.1c-0.6-0.6-1.2-1-1.9-1.5c-0.6-0.5-1.2-1-1.5-1.8c-0.3-0.7-0.3-1.5-0.1-2.1c0.3-0.8,1-1.3,1.6-1.8
			c0.6-0.5,1.8-1.1,2.6-1.2c-1.4,0.3-2.8,0.6-4.1,0.2C24.5,27.2,23.8,26.8,23.1,26.4z"/>
	</g>
	<g>
		<path class="st3" d="M142.9,99.9c0.1-1.4,1-2.6,2.1-3.5c-1.8,0.7-4.1,0.5-5.9,0c-1.2-0.3-2.5-0.8-3.5-1.5c-1-0.8-1.9-1.7-2.6-2.8
			c1.8,2.9,1.1,6.6-1,9.1c-0.5,0.6-1.2,1.2-1.8,1.7c0.5-0.4,2-0.1,2.5,0c0.7,0.1,1.4,0.3,2,0.6c0.6,0.3,1.2,0.5,1.7,1
			c0.7,0.7,1.4,1.6,1.7,2.6c0.1,0.3,0.1,0.6,0.2,0.9c0.1,0.3,0.1,0.6,0.2,0.9c0.1-1.2,0.4-2.4,1.3-3.2c0.4-0.3,0.8-0.5,1.2-0.7
			c1-0.4,2.2-0.6,3.3-0.7c0.5-0.1,1-0.1,1.4,0.1c-0.4-0.3-0.8-0.6-1.1-1c-0.5-0.5-0.9-1.2-1.3-1.8
			C142.8,101.1,142.8,100.6,142.9,99.9z"/>
		<path class="st4" d="M138.7,97.9c-1.4-0.5-2.7-1.3-3.8-2.3c0.3,1.1,0.5,2.2,0,3.2c-0.3,0.8-0.9,1.3-1.5,1.9
			c-0.7,0.6-1.4,1.1-2.1,1.6c1.2-0.4,2.5-0.4,3.6,0c0.9,0.3,1.6,1.1,2.2,1.8c0.7,0.9,1.3,1.9,1.4,3c0-0.7-0.1-1.5,0.3-2.1
			c0.6-1.2,2-1.4,3.2-1.5c0.8,0,1.7,0.1,2.5,0.3c-0.5-0.3-1.1-0.5-1.7-0.8c-0.6-0.3-1.1-0.6-1.5-1.1c-0.3-0.5-0.5-1.1-0.4-1.6
			c0.1-0.7,0.5-1.1,0.9-1.6c0.4-0.5,1.2-1.1,1.8-1.4c-1,0.4-2,0.9-3.1,0.9C139.9,98.4,139.3,98.2,138.7,97.9z"/>
	</g>
	<g>
		<path class="st3" d="M15.1,123.6c1.2-0.6,2.6-0.5,3.9-0.1c-1.5-1.1-2.5-3.1-3-4.8c-0.4-1.1-0.6-2.4-0.5-3.6
			c0.1-1.2,0.4-2.4,0.9-3.6c-1.4,3-4.8,4.2-7.9,3.8c-0.8-0.1-1.5-0.3-2.3-0.6c0.5,0.2,1.1,1.6,1.3,2c0.3,0.6,0.4,1.3,0.5,2
			c0.1,0.6,0.2,1.2,0,1.9c-0.2,1-0.5,2-1.2,2.7c-0.2,0.2-0.4,0.4-0.6,0.6c-0.2,0.2-0.5,0.4-0.7,0.6c1-0.5,2.2-0.9,3.3-0.6
			c0.4,0.1,0.8,0.4,1.2,0.6c0.9,0.6,1.6,1.5,2.2,2.3c0.3,0.4,0.6,0.7,0.7,1.2c0-0.5,0.1-1,0.2-1.4c0.2-0.7,0.5-1.3,0.8-1.9
			C14.1,124.2,14.6,123.9,15.1,123.6z"/>
		<path class="st4" d="M14.6,119.2c-0.3-1.4-0.4-2.9-0.1-4.3c-0.7,0.8-1.6,1.5-2.6,1.7c-0.8,0.1-1.6-0.1-2.3-0.3
			c-0.8-0.3-1.6-0.6-2.4-0.9c0.9,0.7,1.6,1.8,1.8,3c0.2,0.9,0,1.8-0.4,2.7c-0.4,1-0.9,2-1.7,2.7c0.6-0.4,1.2-0.8,1.8-0.8
			c1.3-0.1,2.2,0.9,2.8,1.9c0.4,0.7,0.7,1.4,1,2.2c0-0.6-0.1-1.2-0.2-1.8c-0.1-0.6-0.1-1.2,0.1-1.7c0.2-0.5,0.6-0.9,1.1-1.1
			c0.6-0.3,1.2-0.2,1.8-0.1c0.6,0.1,1.5,0.4,2,0.7c-0.9-0.6-1.7-1.2-2.3-2.1C14.9,120.4,14.7,119.8,14.6,119.2z"/>
	</g>
</g>
</svg>
