<?xml version="1.0" encoding="utf-8"?>
<!-- Generator: Adobe Illustrator 21.0.0, SVG Export Plug-In . SVG Version: 6.00 Build 0)  -->
<svg version="1.1" id="Isolation_Mode" xmlns="http://www.w3.org/2000/svg" xmlns:xlink="http://www.w3.org/1999/xlink" x="0px"
	 y="0px" viewBox="0 0 7.8 4.2" style="enable-background:new 0 0 7.8 4.2;" xml:space="preserve">
<style type="text/css">
	.st0{fill:#5F3E24;}
	.st1{fill:#8C592D;}
	.st2{opacity:0.3;fill:#3C3C3B;}
	.st3{opacity:0.2;fill:#3C3C3B;}
	.st4{fill:#BF7432;}
</style>
<g>
	<path class="st0" d="M7.2,0.4v0.2c0,0.1-0.1,0.1-0.1,0.1c0,0,0,0,0,0H0.8c-0.1,0-0.1-0.1-0.1-0.1V0.4c0-0.1,0.1-0.1,0.1-0.1h6.3
		c0,0,0,0,0,0C7.1,0.2,7.2,0.3,7.2,0.4z"/>
	<path class="st0" d="M7.2,0.9v0.2c0,0.1-0.1,0.1-0.1,0.1c0,0,0,0,0,0H0.8c-0.1,0-0.1-0.1-0.1-0.1V0.9c0-0.1,0.1-0.1,0.1-0.1h6.3
		c0,0,0,0,0,0C7.1,0.8,7.2,0.8,7.2,0.9z"/>
	<path class="st0" d="M7.2,1.4v0.2c0,0.1-0.1,0.1-0.1,0.1c0,0,0,0,0,0H0.8c-0.1,0-0.1-0.1-0.1-0.1V1.4c0-0.1,0.1-0.1,0.1-0.1h6.3
		c0,0,0,0,0,0C7.1,1.3,7.2,1.4,7.2,1.4z"/>
	<path class="st0" d="M7.2,2v0.2c0,0.1-0.1,0.1-0.1,0.1c0,0,0,0,0,0H0.8c-0.1,0-0.1-0.1-0.1-0.1V2c0-0.1,0.1-0.1,0.1-0.1h6.3
		c0,0,0,0,0,0C7.1,1.8,7.2,1.9,7.2,2z"/>
	<g>
		<g>
			<path class="st1" d="M0.8,4.2L0.8,4.2c-0.1,0-0.1-0.1-0.1-0.1v-4C0.7,0.1,0.8,0,0.8,0h0C0.9,0,1,0.1,1,0.1v4
				C1,4.2,0.9,4.2,0.8,4.2z"/>
			<g>
				<path class="st1" d="M6.9,4.2L6.9,4.2c-0.1,0-0.1-0.1-0.1-0.1v-4C6.8,0.1,6.9,0,6.9,0h0C7,0,7.1,0.1,7.1,0.1v4
					C7.1,4.2,7,4.2,6.9,4.2z"/>
			</g>
		</g>
	</g>
	<path class="st1" d="M7.7,2.9H0.2C0.1,2.9,0,2.8,0,2.8V2.6c0-0.1,0.1-0.1,0.1-0.1h7.5c0.1,0,0.1,0.1,0.1,0.1v0.2
		C7.8,2.8,7.7,2.9,7.7,2.9z"/>
	<g>
		<path class="st2" d="M7.2,0.4v0.2c0,0.1-0.1,0.1-0.1,0.1V0.2C7.1,0.2,7.2,0.3,7.2,0.4z"/>
		<path class="st2" d="M7.2,0.9v0.2c0,0.1-0.1,0.1-0.1,0.1V0.8C7.1,0.8,7.2,0.8,7.2,0.9z"/>
		<path class="st2" d="M7.2,1.4v0.2c0,0.1-0.1,0.1-0.1,0.1V1.3C7.1,1.3,7.2,1.4,7.2,1.4z"/>
		<path class="st2" d="M7.2,2v0.2c0,0.1-0.1,0.1-0.1,0.1V1.8C7.1,1.8,7.2,1.9,7.2,2z"/>
	</g>
	<path class="st1" d="M7.3,1.7H6.9c-0.1,0-0.1,0-0.1,0.1v2.4c0,0.1,0,0.1,0.1,0.1h0.3c0.1,0,0.1,0,0.1-0.1V2.2c0-0.1,0-0.1,0.1-0.1
		h0.3c0.1,0,0.1,0,0.1-0.1V1.8c0-0.1,0-0.1-0.1-0.1H7.3z"/>
	<path class="st1" d="M0.5,1.7h0.4c0.1,0,0.1,0,0.1,0.1v2.4c0,0.1,0,0.1-0.1,0.1H0.6c-0.1,0-0.1,0-0.1-0.1V2.2c0-0.1,0-0.1-0.1-0.1
		H0.1C0,2.1,0,2.1,0,2V1.8c0-0.1,0-0.1,0.1-0.1H0.5z"/>
	<rect x="1" y="2.4" class="st3" width="0.2" height="0.4"/>
	<rect x="7.3" y="2.4" class="st3" width="0.2" height="0.4"/>
	<g>
		<path class="st4" d="M7.8,1.8C7.8,1.8,7.8,1.8,7.8,1.8L7,1.8c-0.1,0-0.1,0-0.1,0.1v2.4c0,0-0.1-0.1-0.1-0.1V1.8
			c0-0.1,0-0.1,0.1-0.1h0.8C7.7,1.7,7.8,1.7,7.8,1.8z"/>
		<path class="st4" d="M1,1.8C1,1.8,1,1.8,1,1.8l-0.8,0c-0.1,0-0.1,0-0.1,0.1v0.2C0,2.1,0,2.1,0,2V1.8c0-0.1,0-0.1,0.1-0.1h0.8
			C0.9,1.7,1,1.7,1,1.8z"/>
	</g>
	<g>
		<rect x="1" y="0.2" class="st2" width="0.2" height="0.4"/>
		<rect x="1" y="0.8" class="st2" width="0.2" height="0.4"/>
		<rect x="1" y="1.3" class="st2" width="0.2" height="0.4"/>
		<rect x="1" y="1.8" class="st2" width="0.2" height="0.4"/>
	</g>
</g>
</svg>
