<svg xmlns="http://www.w3.org/2000/svg" width="286" height="116">
    <defs>
        <linearGradient id="a" x1="0%" x2="50%" y1="86.603%" y2="0%">
            <stop offset="0%" stop-color="#EF451F"/>
            <stop offset="100%" stop-color="#FCDD57"/>
        </linearGradient>
    </defs>
    <path fill="#B58C8C" fill-rule="evenodd" d="M285.852 11.881c-.504.838-1.111 1.108-1.818.809-.691-.224-1.297-.272-1.818-.142-.447.111-1.213.539-2.294 1.283-.952.634-1.67 1.246-2.155 1.842-5.058 5.137-8.492 10.741-10.307 16.813-.298.709-.505 1.631-.618 2.766-.562 3.466-.947 6.055-1.154 7.769-.299 1.659-.608 2.805-.926 3.437-.561 1.247-1.4 2.01-2.519 2.289-.223.055-.578.064-1.062.026-1.64-.227-2.674-1.194-3.101-2.91a17.498 17.498 0 0 1-.276-3.969c.134-2.012.564-5.524 1.297-10.536a171.087 171.087 0 0 1 2.304-11.736l.899-4.499c.204-.446.402-1.009.589-1.69a11.29 11.29 0 0 1 .589-1.69c.448-.744 1.008-1.201 1.679-1.368.224-.056.578-.064 1.063-.027 1.079.207 1.779.944 2.095 2.211.092.69.124 1.296.096 1.817-.03.523-.035.979-.016 1.369-.094.896-.096 1.687-.002 2.376a14.81 14.81 0 0 1-.099 1.747 31.296 31.296 0 0 0-.156 1.523c.26-.223.597-.623 1.008-1.201l1.596-2.178 2.912-3.574c1.866-2.047 3.853-3.61 5.96-4.688.708-.334 1.287-.558 1.735-.669l1.37-.222c1.024-.017 1.956.386 2.795 1.205.26.411.41.691.447.839.056.224.018.551-.113.978zM251.26 43.283c-1.028 1.918-2.451 3.994-4.27 6.228-1.82 2.233-3.327 3.814-4.521 4.746a6.54 6.54 0 0 1-1.93.836c-1.046.26-2.038.248-2.978-.032-.943-.281-1.786-.803-2.529-1.568-1.024-.933-1.76-2.294-2.206-4.083-.78-2.181-.991-4.781-.635-7.799 1.109-8.904 4.444-16.978 10.006-24.221a16.491 16.491 0 0 1 3.247-3.182c.335-.241.876-.455 1.623-.641 1.267-.315 2.414-.084 3.438.689 1.025.775 1.601 1.74 1.731 2.895.408 1.324.296 3.094-.341 5.31-1.795 5.514-4.922 10.131-9.38 13.852-.524.447-.883.833-1.078 1.158-.197.328-.314.732-.351 1.216-.339 3.409-.5 5.786-.482 7.126-.094.579-.067 1.483.081 2.712l.028.111c.074.299.371.225.895-.222 2.798-2.121 4.888-4.223 6.27-6.309l3.08-4.804c.505-.838.971-1.349 1.4-1.535.13-.111.344-.205.643-.279a1.572 1.572 0 0 1 1.231.169c.092.057.167.196.223.42.186.746.11 1.397-.226 1.956l-2.969 5.251zm-8.629-12.225a5.732 5.732 0 0 0 1.176-1.004c1.979-2.55 3.529-5.39 4.65-8.519.243-.931.398-1.662.464-2.194.064-.53-.069-.992-.404-1.384-.916.782-2.143 2.771-3.683 5.963-1.542 3.194-2.304 5.462-2.286 6.803-.02.242.008.354.083.335zm-4.957-19.906c-2.2.707-3.899 1.207-5.091 1.503-.895.223-1.391.782-1.484 1.675a14.144 14.144 0 0 1-.184 2.124c-.122.784-.22 1.343-.295 1.677l-4.841 32.081a74.44 74.44 0 0 0-.505 2.5 49.862 49.862 0 0 0-.507 3.452 16.431 16.431 0 0 1-.786 3.045 81.564 81.564 0 0 1-1.15 3.017c-.523 1.081-.87 1.918-1.037 2.515-.299 1.024-1.047 1.685-2.239 1.981-.522.13-.904.184-1.146.167-.709.016-1.385-.231-2.027-.743A4.24 4.24 0 0 1 215 64.173c-.689-2.125-.976-4.073-.861-5.842.076-2.235.17-3.921.284-5.059.62-5.457 1.866-12.221 3.739-20.287l2.78-11.735 1.011-4.052c.185-.521.234-.967.141-1.341l-1.93.361c-.598.148-1.474.446-2.629.891-.448.111-.696.392-.742.838-.048.448-.091.755-.127.922l-.957 6.651c-.301 2.609-.846 6.465-1.633 11.569a462.317 462.317 0 0 1-2.534 17.018c-.451 3.597-1.397 6.957-2.834 10.087-.468 1.304-1.26 2.094-2.379 2.373-.299.074-.69.091-1.174.054-.876-.02-1.598-.297-2.167-.827-.567-.533-.925-1.254-1.074-2.167a18.588 18.588 0 0 1-.275-5.395l.479-3.801c2.4-14.53 4.452-25.372 6.156-32.526.037-.167.088-.437.155-.81a2.43 2.43 0 0 0-.013-1.006c-.242-.018-.587.027-1.035.138-.598.149-1.036.299-1.315.446-1.305.484-2.303.771-2.993.863-1.007.092-1.65-.262-1.928-1.065l-.223-.419c-.167-.671.112-1.294.84-1.872.522-.445 1.198-.832 2.029-1.157.829-.325 1.347-.553 1.553-.683l3.356-1.31c.895-.222 1.492-.846 1.792-1.87.43-1.77 1.243-4.386 2.44-7.851l1.121-2.654c.486-.911 1.101-1.461 1.847-1.647.521-.129.96-.12 1.315.03.819.113 1.351.655 1.592 1.623.149.597.185 1.063.11 1.397l-.648 5.03-.506 2.739c2.797-.853 4.644-1.392 5.539-1.615.502-.202.923-.743 1.26-1.619l1.906-5.224c.522-1.08.84-1.712.953-1.9.596-.781 1.193-1.247 1.791-1.395.372-.093.772-.074 1.202.057 1.174.263 1.853 1.083 2.039 2.462a5.69 5.69 0 0 1 .124 1.929c-.066.69-.11 1.155-.127 1.397-.188.522-.198.96-.029 1.314.334.076.614.084.838.029l.979-.362c1.64-.408 2.862-.593 3.664-.555.615-.073 1.142.054 1.58.379.437.327.722.752.851 1.273.297 1.194-.198 2.068-1.484 2.626-.561.298-.952.474-1.175.529zm-42.688 46.121c-1.028 1.919-2.451 3.994-4.27 6.228-1.82 2.234-3.327 3.815-4.521 4.746a6.526 6.526 0 0 1-1.93.836c-1.046.26-2.038.249-2.978-.031-.943-.282-1.786-.803-2.529-1.569-1.024-.933-1.76-2.294-2.206-4.083-.78-2.181-.991-4.78-.635-7.799 1.109-8.904 4.444-16.977 10.006-24.22a16.463 16.463 0 0 1 3.247-3.182c.336-.242.876-.456 1.623-.641 1.267-.315 2.414-.085 3.438.689 1.025.775 1.601 1.739 1.731 2.895.408 1.323.296 3.094-.34 5.31-1.796 5.514-4.923 10.13-9.382 13.851-.523.448-.882.834-1.077 1.159-.197.327-.314.731-.351 1.215-.339 3.41-.501 5.786-.482 7.127-.094.578-.067 1.483.081 2.711l.028.112c.074.299.371.225.895-.223 2.798-2.12 4.888-4.223 6.27-6.309l3.08-4.803c.504-.838.971-1.349 1.4-1.536.13-.11.344-.204.643-.278a1.565 1.565 0 0 1 1.23.169c.093.057.168.196.224.419.186.746.11 1.398-.226 1.956l-2.969 5.251zm-8.628-12.224c.41-.26.802-.595 1.175-1.005 1.979-2.55 3.529-5.39 4.65-8.519.243-.931.397-1.661.464-2.193.064-.531-.069-.993-.404-1.384-.916.782-2.143 2.77-3.683 5.962-1.542 3.195-2.304 5.463-2.286 6.803-.02.243.008.355.084.336zm-20.913 24.794c-1.736 2.569-3.426 4.533-5.066 5.891-1.96 1.675-3.946 2.762-5.96 3.263-.523.13-1.249.231-2.181.305-1.846.221-3.371-.014-4.571-.704-1.203-.692-2.25-1.876-3.143-3.554-.056-.223-.196-.465-.418-.727-.224.056-.364.209-.42.461-.057.251-.114.425-.169.517a39.263 39.263 0 0 1-1.513 3.464c-.71.966-1.205 1.526-1.484 1.675a3.063 3.063 0 0 1-1.259.669 2.993 2.993 0 0 1-2.139-.24c-.68-.347-1.159-.92-1.438-1.721l-.167-.671c-.112-.447-.185-1.062-.222-1.845-.016-1.658.349-4.163 1.098-7.517.505-2.421.814-3.884.927-4.387 1.198-4.731 2.302-9.835 3.314-15.312.262-1.491.965-5.505 2.109-12.044.282-1.733.651-3.903 1.111-6.511a356.622 356.622 0 0 1 1.757-9.166l.646-3.129c.28-1.098.683-2.901 1.208-5.407a107.11 107.11 0 0 1 1.6-6.692l.982-3.213c.411-.893.774-1.499 1.092-1.815.355-.484.868-.81 1.539-.977.671-.167 1.347-.077 2.027.268.681.347 1.15.883 1.411 1.609l.139.559c.13.523.156 1.268.082 2.236-.133 2.33-.415 5.013-.847 8.049a197.393 197.393 0 0 1-1.28 7.978 207.256 207.256 0 0 0-.998 5.77 3215.38 3215.38 0 0 0-1.856 10.675c-.901 5.924-1.727 10.88-2.476 14.866l-.196 1.118c.354-.166.615-.391.783-.67l.336-.559c2.184-3.313 4.928-6.765 8.232-10.359 1.846-1.805 3.628-3.236 5.345-4.298a8.35 8.35 0 0 1 2.266-.919 5.812 5.812 0 0 1 3.886.34c1.248.561 2.283 1.531 3.101 2.91.52.821.921 1.79 1.2 2.908.13.523.25 1.324.361 2.405a23.945 23.945 0 0 1-.986 7.489c-1.722 6.128-4.308 11.8-7.763 17.012zm1.202-28.088c-.129-.521-.457-.718-.978-.588-.15.037-.504.205-1.063.501-1.025.653-1.67 1.089-1.93 1.312-1.68 1.21-3.396 2.904-5.151 5.08-3.284 3.985-6.365 8.631-9.241 13.936-1.158 2.03-1.514 4.414-1.07 7.154.167.671.642 1.622 1.424 2.853.26.41.493.63.698.657.204.029.559-.059 1.063-.264 1.007-.408 1.874-.9 2.602-1.478 2.406-2.101 4.347-4.326 5.823-6.673 2.651-4.3 4.827-9.077 6.529-14.33.786-2.571 1.234-4.898 1.349-6.986 0-.633-.017-1.024-.055-1.174zm-28.755-17.196l-.45 2.487c-3.073 15.015-5.339 26.266-6.8 33.755-2.024 10.954-3.376 19.525-4.052 25.709l-.423 4.024a6.515 6.515 0 0 0 .165 2.096c.112.448.241.811.391 1.091.465.912.422 1.775-.129 2.585-.552.809-1.34 1.224-2.364 1.241-.708.017-1.574-.282-2.599-.898a7.454 7.454 0 0 1-1.886-2.084c-.474-.793-.795-1.524-.962-2.195-.539-2.164-.77-4.52-.693-7.073.228-2.589.538-5.16.931-7.712 1.668-10.786 4.04-23.37 7.111-37.752l1.405-6.762c2.228-10.767 3.913-18.312 5.055-22.633.149-.67.449-1.695.898-3.074.336-.874.765-1.535 1.288-1.983a3.067 3.067 0 0 1 1.26-.669 2.216 2.216 0 0 1 1.523.156c.493.233.889.63 1.188 1.189.129.205.251.531.362.979.112.447.157.792.139 1.034.259 1.995.201 4.622-.175 7.881-.153 1.938-.546 4.808-1.183 8.608zm-25.693 53.296c-1.028 1.919-2.451 3.994-4.271 6.228-1.82 2.234-3.327 3.815-4.521 4.746a6.515 6.515 0 0 1-1.93.836c-1.045.26-2.038.249-2.978-.031-.943-.282-1.785-.803-2.529-1.568-1.023-.934-1.759-2.294-2.205-4.084-.781-2.181-.992-4.78-.636-7.799 1.109-8.904 4.445-16.977 10.007-24.22a16.485 16.485 0 0 1 3.246-3.182c.336-.241.877-.456 1.623-.641 1.268-.315 2.415-.085 3.439.689 1.024.775 1.601 1.739 1.731 2.895.407 1.323.295 3.094-.341 5.31-1.795 5.514-4.923 10.13-9.381 13.851-.524.448-.882.834-1.078 1.159-.197.327-.313.731-.351 1.215-.338 3.41-.5 5.786-.482 7.127-.093.578-.067 1.483.081 2.711l.028.112c.075.299.372.225.895-.222 2.799-2.121 4.889-4.224 6.27-6.309l3.081-4.804c.504-.838.971-1.349 1.399-1.536.131-.11.345-.204.644-.278a1.566 1.566 0 0 1 1.23.169c.092.057.168.196.223.419.186.746.111 1.398-.225 1.957l-2.969 5.25zm-8.629-12.224c.41-.26.802-.595 1.175-1.005 1.979-2.55 3.529-5.39 4.651-8.519.243-.931.397-1.661.463-2.193.065-.53-.069-.993-.404-1.384-.915.782-2.143 2.77-3.683 5.963-1.542 3.194-2.304 5.462-2.286 6.803-.019.242.009.354.084.335zM87.25 84.058c-1.027 1.918-2.45 3.994-4.27 6.228-1.82 2.233-3.327 3.814-4.521 4.746a6.54 6.54 0 0 1-1.93.836c-1.045.26-2.038.248-2.978-.032-.943-.281-1.785-.803-2.529-1.568-1.023-.933-1.759-2.294-2.205-4.083-.781-2.181-.992-4.781-.636-7.799 1.109-8.904 4.445-16.978 10.007-24.221a16.491 16.491 0 0 1 3.247-3.182c.335-.241.876-.455 1.622-.641 1.267-.315 2.414-.084 3.439.689 1.024.775 1.601 1.74 1.731 2.895.407 1.324.295 3.094-.341 5.31-1.796 5.514-4.923 10.131-9.381 13.852-.524.447-.882.833-1.078 1.159-.197.327-.313.731-.351 1.215-.338 3.409-.5 5.786-.482 7.127-.093.578-.067 1.482.081 2.711l.028.112c.075.298.372.224.895-.223 2.799-2.121 4.889-4.223 6.27-6.309l3.081-4.804c.504-.838.97-1.349 1.399-1.535.131-.111.345-.205.644-.279a1.575 1.575 0 0 1 1.23.169c.092.057.168.196.223.42.186.746.111 1.397-.225 1.956l-2.97 5.251zm-8.628-12.225c.41-.259.802-.594 1.175-1.004 1.979-2.55 3.529-5.39 4.65-8.519.244-.931.398-1.662.464-2.194.065-.53-.069-.992-.404-1.384-.916.782-2.143 2.771-3.683 5.963-1.542 3.194-2.304 5.462-2.286 6.803-.019.242.009.354.084.335zM69.766 35.32a246.195 246.195 0 0 0-3.197 9.108 298.429 298.429 0 0 0-1.667 5.133c3.431-.285 5.794.062 6.021 1.073.291 1.293-2.99 3.283-7.847 4.965-2.295 7.892-4.132 15.526-5.488 22.889l-.142 1.341c-.094.261.019.551.335.867 3.259 2.912 5.289 5.97 6.087 9.175.242.97.379 1.687.417 2.153.555 5.087.082 10.033-1.412 14.839a24.902 24.902 0 0 1-2.102 4.442c-.336.558-.934 1.34-1.792 2.345-1.065 1.136-2.23 1.861-3.497 2.176-1.269.316-2.508.188-3.719-.381-1.211-.571-2.226-1.546-3.045-2.925-.594-1.119-1.088-2.461-1.478-4.026-.595-2.387-.825-5.219-.691-8.498.079-4.453.615-10.247 1.611-17.383 1.28-8.176 3.113-16.392 5.47-24.646-4.971.786-8.669.566-8.957-.713-.35-1.554 4.454-4.117 10.965-5.938.056-.177.102-.352.159-.528 2.673-8.028 5.9-15.112 9.552-20.71 2.74-4.124 7.961-5.333 8.304-5.387.653-.24 1.717-.052 2.266.246.55.299.899.747 1.047 1.343l.055 1.255c-.393.815-3.201 1.726-4.619 3.516-1.163 1.467-2.636 4.269-2.636 4.269zm-14.445 73.658l.223-.055c.298-.074.541-.214.728-.419a5.21 5.21 0 0 1 .476-.474c.82-1.154 1.474-2.504 1.961-4.05 1.346-4.135 1.648-8.486.908-13.052-.409-1.956-1.377-3.933-2.903-5.929-1.425 8.59-1.89 16.58-1.393 23.979zM31.199 84.875c2.573.924 3.883 2.381 3.935 4.375.077 1.21-.253 2.238-.988 3.09-.737.853-1.801 1.397-3.192 1.63-1.157.288-1.774.943-1.853 1.967.023.998-.067 1.747-.278 2.244-.398 1.996-1.527 3.056-3.391 3.185-1.708.315-3.06-.41-4.056-2.17-.052-.21-.17-.57-.353-1.084-.185-.511-.577-.635-1.181-.375l-.631.157-.63.156c-1.577.392-2.353 1.087-2.327 2.084-.211.947-.422 2.338-.634 4.173-.422 2.338-1.644 3.478-3.667 3.421-1.918-.079-3.06-1.301-3.423-3.666l-.274-1.772c-.264-.156-.643-.229-1.143-.218-.498.015-.867-.006-1.103-.06-1.706-.133-2.887-.843-3.543-2.131l-.118-.472c-.339-1.364.068-2.636 1.225-3.818.892-.891 1.695-1.48 2.405-1.769 2.128-.864 3.075-2.437 2.841-4.721l.12-1.536c-.42-.34-.801-.412-1.143-.218-.342.198-.618.321-.827.373-1.576.392-2.759.576-3.546.547-1.707-.132-2.784-.868-3.228-2.209l-.079-.315c-.339-1.364.146-2.545 1.461-3.542 1.603-1.177 3.771-2.331 6.504-3.457 1.812-.785 2.838-2.044 3.076-3.776.052-.682.244-1.593.574-2.736.328-1.14.56-2.118.692-2.932l.592-1.653c.657-1.837 1.842-2.688 3.548-2.555 1.548.396 2.492 1.5 2.833 3.31a14.76 14.76 0 0 0-.04 1.182c-.001.447.078.984.235 1.614-.028.342-.06.768-.1 1.28-.04.512.031.912.215 1.201a4.74 4.74 0 0 0 1.813-.116c.315-.078.543-.274.69-.59.144-.313.268-.707.375-1.181l.91-4.408a4.473 4.473 0 0 1 1.066-2.44c.551-.916 1.302-1.495 2.247-1.73.315-.078.815-.09 1.497-.038 1.522.291 2.494 1.278 2.912 2.957.21.842.288 1.826.234 2.953a56.41 56.41 0 0 0-.081 2.363c-.053.238-.027.566.078.984.131.527.471.999 1.022 1.419 1.102.842 1.746 1.631 1.929 2.365.183.736.083 1.459-.298 2.165-.383.709-1.073 1.299-2.07 1.769-.789.421-1.347.978-1.676 1.672a3.122 3.122 0 0 0-.218 2.145c.025.553.38.855 1.062.907zm-10.358-1.942c-1.367.34-2.161.734-2.385 1.179-.223.447-.324 1.837-.299 4.173 1.706-.312 2.705-.782 2.995-1.414.288-.628.186-1.941-.311-3.938z" opacity=".102"/>
    <path fill="url(#a)" d="M285.852 11.881c-.504.838-1.111 1.108-1.818.809-.691-.224-1.297-.272-1.818-.142-.447.111-1.213.539-2.294 1.283-.952.634-1.67 1.246-2.155 1.842-5.058 5.137-8.492 10.741-10.307 16.813-.298.709-.505 1.631-.618 2.766-.562 3.466-.947 6.055-1.154 7.769-.299 1.659-.608 2.805-.926 3.437-.561 1.247-1.4 2.01-2.519 2.289-.223.055-.578.064-1.062.026-1.64-.227-2.674-1.194-3.101-2.91a17.498 17.498 0 0 1-.276-3.969c.134-2.012.564-5.524 1.297-10.536a171.087 171.087 0 0 1 2.304-11.736l.899-4.499c.204-.446.402-1.009.589-1.69a11.29 11.29 0 0 1 .589-1.69c.448-.744 1.008-1.201 1.679-1.368.224-.056.578-.064 1.063-.027 1.079.207 1.779.944 2.095 2.211.092.69.124 1.296.096 1.817-.03.523-.035.979-.016 1.369-.094.896-.096 1.687-.002 2.376a14.81 14.81 0 0 1-.099 1.747 31.296 31.296 0 0 0-.156 1.523c.26-.223.597-.623 1.008-1.201l1.596-2.178 2.912-3.574c1.866-2.047 3.853-3.61 5.96-4.688.708-.334 1.287-.558 1.735-.669l1.37-.222c1.024-.017 1.956.386 2.795 1.205.26.411.41.691.447.839.056.224.018.551-.113.978zM251.26 43.283c-1.028 1.918-2.451 3.994-4.27 6.228-1.82 2.233-3.327 3.814-4.521 4.746a6.54 6.54 0 0 1-1.93.836c-1.046.26-2.038.248-2.978-.032-.943-.281-1.786-.803-2.529-1.568-1.024-.933-1.76-2.294-2.206-4.083-.78-2.181-.991-4.781-.635-7.799 1.109-8.904 4.444-16.978 10.006-24.221a16.491 16.491 0 0 1 3.247-3.182c.335-.241.876-.455 1.623-.641 1.267-.315 2.414-.084 3.438.689 1.025.775 1.601 1.74 1.731 2.895.408 1.324.296 3.094-.341 5.31-1.795 5.514-4.922 10.131-9.38 13.852-.524.447-.883.833-1.078 1.158-.197.328-.314.732-.351 1.216-.339 3.409-.5 5.786-.482 7.126-.094.579-.067 1.483.081 2.712l.028.111c.074.299.371.225.895-.222 2.798-2.121 4.888-4.223 6.27-6.309l3.08-4.804c.505-.838.971-1.349 1.4-1.535.13-.111.344-.205.643-.279a1.572 1.572 0 0 1 1.231.169c.092.057.167.196.223.42.186.746.11 1.397-.226 1.956l-2.969 5.251zm-8.629-12.225a5.732 5.732 0 0 0 1.176-1.004c1.979-2.55 3.529-5.39 4.65-8.519.243-.931.398-1.662.464-2.194.064-.53-.069-.992-.404-1.384-.916.782-2.143 2.771-3.683 5.963-1.542 3.194-2.304 5.462-2.286 6.803-.02.242.008.354.083.335zm-4.957-19.906c-2.2.707-3.899 1.207-5.091 1.503-.895.223-1.391.782-1.484 1.675a14.144 14.144 0 0 1-.184 2.124c-.122.784-.22 1.343-.295 1.677l-4.841 32.081a74.44 74.44 0 0 0-.505 2.5 49.862 49.862 0 0 0-.507 3.452 16.431 16.431 0 0 1-.786 3.045 81.564 81.564 0 0 1-1.15 3.017c-.523 1.081-.87 1.918-1.037 2.515-.299 1.024-1.047 1.685-2.239 1.981-.522.13-.904.184-1.146.167-.709.016-1.385-.231-2.027-.743A4.24 4.24 0 0 1 215 64.173c-.689-2.125-.976-4.073-.861-5.842.076-2.235.17-3.921.284-5.059.62-5.457 1.866-12.221 3.739-20.287l2.78-11.735 1.011-4.052c.185-.521.234-.967.141-1.341l-1.93.361c-.598.148-1.474.446-2.629.891-.448.111-.696.392-.742.838-.048.448-.091.755-.127.922l-.957 6.651c-.301 2.609-.846 6.465-1.633 11.569a462.317 462.317 0 0 1-2.534 17.018c-.451 3.597-1.397 6.957-2.834 10.087-.468 1.304-1.26 2.094-2.379 2.373-.299.074-.69.091-1.174.054-.876-.02-1.598-.297-2.167-.827-.567-.533-.925-1.254-1.074-2.167a18.588 18.588 0 0 1-.275-5.395l.479-3.801c2.4-14.53 4.452-25.372 6.156-32.526.037-.167.088-.437.155-.81a2.43 2.43 0 0 0-.013-1.006c-.242-.018-.587.027-1.035.138-.598.149-1.036.299-1.315.446-1.305.484-2.303.771-2.993.863-1.007.092-1.65-.262-1.928-1.065l-.223-.419c-.167-.671.112-1.294.84-1.872.522-.445 1.198-.832 2.029-1.157.829-.325 1.347-.553 1.553-.683l3.356-1.31c.895-.222 1.492-.846 1.792-1.87.43-1.77 1.243-4.386 2.44-7.851l1.121-2.654c.486-.911 1.101-1.461 1.847-1.647.521-.129.96-.12 1.315.03.819.113 1.351.655 1.592 1.623.149.597.185 1.063.11 1.397l-.648 5.03-.506 2.739c2.797-.853 4.644-1.392 5.539-1.615.502-.202.923-.743 1.26-1.619l1.906-5.224c.522-1.08.84-1.712.953-1.9.596-.781 1.193-1.247 1.791-1.395.372-.093.772-.074 1.202.057 1.174.263 1.853 1.083 2.039 2.462a5.69 5.69 0 0 1 .124 1.929c-.066.69-.11 1.155-.127 1.397-.188.522-.198.96-.029 1.314.334.076.614.084.838.029l.979-.362c1.64-.408 2.862-.593 3.664-.555.615-.073 1.142.054 1.58.379.437.327.722.752.851 1.273.297 1.194-.198 2.068-1.484 2.626-.561.298-.952.474-1.175.529zm-42.688 46.121c-1.028 1.919-2.451 3.994-4.27 6.228-1.82 2.234-3.327 3.815-4.521 4.746a6.526 6.526 0 0 1-1.93.836c-1.046.26-2.038.249-2.978-.031-.943-.282-1.786-.803-2.529-1.569-1.024-.933-1.76-2.294-2.206-4.083-.78-2.181-.991-4.78-.635-7.799 1.109-8.904 4.444-16.977 10.006-24.22a16.463 16.463 0 0 1 3.247-3.182c.336-.242.876-.456 1.623-.641 1.267-.315 2.414-.085 3.438.689 1.025.775 1.601 1.739 1.731 2.895.408 1.323.296 3.094-.34 5.31-1.796 5.514-4.923 10.13-9.382 13.851-.523.448-.882.834-1.077 1.159-.197.327-.314.731-.351 1.215-.339 3.41-.501 5.786-.482 7.127-.094.578-.067 1.483.081 2.711l.028.112c.074.299.371.225.895-.223 2.798-2.12 4.888-4.223 6.27-6.309l3.08-4.803c.504-.838.971-1.349 1.4-1.536.13-.11.344-.204.643-.278a1.565 1.565 0 0 1 1.23.169c.093.057.168.196.224.419.186.746.11 1.398-.226 1.956l-2.969 5.251zm-8.628-12.224c.41-.26.802-.595 1.175-1.005 1.979-2.55 3.529-5.39 4.65-8.519.243-.931.397-1.661.464-2.193.064-.531-.069-.993-.404-1.384-.916.782-2.143 2.77-3.683 5.962-1.542 3.195-2.304 5.463-2.286 6.803-.02.243.008.355.084.336zm-20.913 24.794c-1.736 2.569-3.426 4.533-5.066 5.891-1.96 1.675-3.946 2.762-5.96 3.263-.523.13-1.249.231-2.181.305-1.846.221-3.371-.014-4.571-.704-1.203-.692-2.25-1.876-3.143-3.554-.056-.223-.196-.465-.418-.727-.224.056-.364.209-.42.461-.057.251-.114.425-.169.517a39.263 39.263 0 0 1-1.513 3.464c-.71.966-1.205 1.526-1.484 1.675a3.063 3.063 0 0 1-1.259.669 2.993 2.993 0 0 1-2.139-.24c-.68-.347-1.159-.92-1.438-1.721l-.167-.671c-.112-.447-.185-1.062-.222-1.845-.016-1.658.349-4.163 1.098-7.517.505-2.421.814-3.884.927-4.387 1.198-4.731 2.302-9.835 3.314-15.312.262-1.491.965-5.505 2.109-12.044.282-1.733.651-3.903 1.111-6.511a356.622 356.622 0 0 1 1.757-9.166l.646-3.129c.28-1.098.683-2.901 1.208-5.407a107.11 107.11 0 0 1 1.6-6.692l.982-3.213c.411-.893.774-1.499 1.092-1.815.355-.484.868-.81 1.539-.977.671-.167 1.347-.077 2.027.268.681.347 1.15.883 1.411 1.609l.139.559c.13.523.156 1.268.082 2.236-.133 2.33-.415 5.013-.847 8.049a197.393 197.393 0 0 1-1.28 7.978 207.256 207.256 0 0 0-.998 5.77 3215.38 3215.38 0 0 0-1.856 10.675c-.901 5.924-1.727 10.88-2.476 14.866l-.196 1.118c.354-.166.615-.391.783-.67l.336-.559c2.184-3.313 4.928-6.765 8.232-10.359 1.846-1.805 3.628-3.236 5.345-4.298a8.35 8.35 0 0 1 2.266-.919 5.812 5.812 0 0 1 3.886.34c1.248.561 2.283 1.531 3.101 2.91.52.821.921 1.79 1.2 2.908.13.523.25 1.324.361 2.405a23.945 23.945 0 0 1-.986 7.489c-1.722 6.128-4.308 11.8-7.763 17.012zm1.202-28.088c-.129-.521-.457-.718-.978-.588-.15.037-.504.205-1.063.501-1.025.653-1.67 1.089-1.93 1.312-1.68 1.21-3.396 2.904-5.151 5.08-3.284 3.985-6.365 8.631-9.241 13.936-1.158 2.03-1.514 4.414-1.07 7.154.167.671.642 1.622 1.424 2.853.26.41.493.63.698.657.204.029.559-.059 1.063-.264 1.007-.408 1.874-.9 2.602-1.478 2.406-2.101 4.347-4.326 5.823-6.673 2.651-4.3 4.827-9.077 6.529-14.33.786-2.571 1.234-4.898 1.349-6.986 0-.633-.017-1.024-.055-1.174zm-28.755-17.196l-.45 2.487c-3.073 15.015-5.339 26.266-6.8 33.755-2.024 10.954-3.376 19.525-4.052 25.709l-.423 4.024a6.515 6.515 0 0 0 .165 2.096c.112.448.241.811.391 1.091.465.912.422 1.775-.129 2.585-.552.809-1.34 1.224-2.364 1.241-.708.017-1.574-.282-2.599-.898a7.454 7.454 0 0 1-1.886-2.084c-.474-.793-.795-1.524-.962-2.195-.539-2.164-.77-4.52-.693-7.073.228-2.589.538-5.16.931-7.712 1.668-10.786 4.04-23.37 7.111-37.752l1.405-6.762c2.228-10.767 3.913-18.312 5.055-22.633.149-.67.449-1.695.898-3.074.336-.874.765-1.535 1.288-1.983a3.067 3.067 0 0 1 1.26-.669 2.216 2.216 0 0 1 1.523.156c.493.233.889.63 1.188 1.189.129.205.251.531.362.979.112.447.157.792.139 1.034.259 1.995.201 4.622-.175 7.881-.153 1.938-.546 4.808-1.183 8.608zm-25.693 53.296c-1.028 1.919-2.451 3.994-4.271 6.228-1.82 2.234-3.327 3.815-4.521 4.746a6.515 6.515 0 0 1-1.93.836c-1.045.26-2.038.249-2.978-.031-.943-.282-1.785-.803-2.529-1.568-1.023-.934-1.759-2.294-2.205-4.084-.781-2.181-.992-4.78-.636-7.799 1.109-8.904 4.445-16.977 10.007-24.22a16.485 16.485 0 0 1 3.246-3.182c.336-.241.877-.456 1.623-.641 1.268-.315 2.415-.085 3.439.689 1.024.775 1.601 1.739 1.731 2.895.407 1.323.295 3.094-.341 5.31-1.795 5.514-4.923 10.13-9.381 13.851-.524.448-.882.834-1.078 1.159-.197.327-.313.731-.351 1.215-.338 3.41-.5 5.786-.482 7.127-.093.578-.067 1.483.081 2.711l.028.112c.075.299.372.225.895-.222 2.799-2.121 4.889-4.224 6.27-6.309l3.081-4.804c.504-.838.971-1.349 1.399-1.536.131-.11.345-.204.644-.278a1.566 1.566 0 0 1 1.23.169c.092.057.168.196.223.419.186.746.111 1.398-.225 1.957l-2.969 5.25zm-8.629-12.224c.41-.26.802-.595 1.175-1.005 1.979-2.55 3.529-5.39 4.651-8.519.243-.931.397-1.661.463-2.193.065-.53-.069-.993-.404-1.384-.915.782-2.143 2.77-3.683 5.963-1.542 3.194-2.304 5.462-2.286 6.803-.019.242.009.354.084.335zM87.25 84.058c-1.027 1.918-2.45 3.994-4.27 6.228-1.82 2.233-3.327 3.814-4.521 4.746a6.54 6.54 0 0 1-1.93.836c-1.045.26-2.038.248-2.978-.032-.943-.281-1.785-.803-2.529-1.568-1.023-.933-1.759-2.294-2.205-4.083-.781-2.181-.992-4.781-.636-7.799 1.109-8.904 4.445-16.978 10.007-24.221a16.491 16.491 0 0 1 3.247-3.182c.335-.241.876-.455 1.622-.641 1.267-.315 2.414-.084 3.439.689 1.024.775 1.601 1.74 1.731 2.895.407 1.324.295 3.094-.341 5.31-1.796 5.514-4.923 10.131-9.381 13.852-.524.447-.882.833-1.078 1.159-.197.327-.313.731-.351 1.215-.338 3.409-.5 5.786-.482 7.127-.093.578-.067 1.482.081 2.711l.028.112c.075.298.372.224.895-.223 2.799-2.121 4.889-4.223 6.27-6.309l3.081-4.804c.504-.838.97-1.349 1.399-1.535.131-.111.345-.205.644-.279a1.575 1.575 0 0 1 1.23.169c.092.057.168.196.223.42.186.746.111 1.397-.225 1.956l-2.97 5.251zm-8.628-12.225c.41-.259.802-.594 1.175-1.004 1.979-2.55 3.529-5.39 4.65-8.519.244-.931.398-1.662.464-2.194.065-.53-.069-.992-.404-1.384-.916.782-2.143 2.771-3.683 5.963-1.542 3.194-2.304 5.462-2.286 6.803-.019.242.009.354.084.335zM69.766 35.32a246.195 246.195 0 0 0-3.197 9.108 298.429 298.429 0 0 0-1.667 5.133c3.431-.285 5.794.062 6.021 1.073.291 1.293-2.99 3.283-7.847 4.965-2.295 7.892-4.132 15.526-5.488 22.889l-.142 1.341c-.094.261.019.551.335.867 3.259 2.912 5.289 5.97 6.087 9.175.242.97.379 1.687.417 2.153.555 5.087.082 10.033-1.412 14.839a24.902 24.902 0 0 1-2.102 4.442c-.336.558-.934 1.34-1.792 2.345-1.065 1.136-2.23 1.861-3.497 2.176-1.269.316-2.508.188-3.719-.381-1.211-.571-2.226-1.546-3.045-2.925-.594-1.119-1.088-2.461-1.478-4.026-.595-2.387-.825-5.219-.691-8.498.079-4.453.615-10.247 1.611-17.383 1.28-8.176 3.113-16.392 5.47-24.646-4.971.786-8.669.566-8.957-.713-.35-1.554 4.454-4.117 10.965-5.938.056-.177.102-.352.159-.528 2.673-8.028 5.9-15.112 9.552-20.71 2.74-4.124 7.961-5.333 8.304-5.387.653-.24 1.717-.052 2.266.246.55.299.899.747 1.047 1.343l.055 1.255c-.393.815-3.201 1.726-4.619 3.516-1.163 1.467-2.636 4.269-2.636 4.269zm-14.445 73.658l.223-.055c.298-.074.541-.214.728-.419a5.21 5.21 0 0 1 .476-.474c.82-1.154 1.474-2.504 1.961-4.05 1.346-4.135 1.648-8.486.908-13.052-.409-1.956-1.377-3.933-2.903-5.929-1.425 8.59-1.89 16.58-1.393 23.979zM31.199 84.875c2.573.924 3.883 2.381 3.935 4.375.077 1.21-.253 2.238-.988 3.09-.737.853-1.801 1.397-3.192 1.63-1.157.288-1.774.943-1.853 1.967.023.998-.067 1.747-.278 2.244-.398 1.996-1.527 3.056-3.391 3.185-1.708.315-3.06-.41-4.056-2.17-.052-.21-.17-.57-.353-1.084-.185-.511-.577-.635-1.181-.375l-.631.157-.63.156c-1.577.392-2.353 1.087-2.327 2.084-.211.947-.422 2.338-.634 4.173-.422 2.338-1.644 3.478-3.667 3.421-1.918-.079-3.06-1.301-3.423-3.666l-.274-1.772c-.264-.156-.643-.229-1.143-.218-.498.015-.867-.006-1.103-.06-1.706-.133-2.887-.843-3.543-2.131l-.118-.472c-.339-1.364.068-2.636 1.225-3.818.892-.891 1.695-1.48 2.405-1.769 2.128-.864 3.075-2.437 2.841-4.721l.12-1.536c-.42-.34-.801-.412-1.143-.218-.342.198-.618.321-.827.373-1.576.392-2.759.576-3.546.547-1.707-.132-2.784-.868-3.228-2.209l-.079-.315c-.339-1.364.146-2.545 1.461-3.542 1.603-1.177 3.771-2.331 6.504-3.457 1.812-.785 2.838-2.044 3.076-3.776.052-.682.244-1.593.574-2.736.328-1.14.56-2.118.692-2.932l.592-1.653c.657-1.837 1.842-2.688 3.548-2.555 1.548.396 2.492 1.5 2.833 3.31a14.76 14.76 0 0 0-.04 1.182c-.001.447.078.984.235 1.614-.028.342-.06.768-.1 1.28-.04.512.031.912.215 1.201a4.74 4.74 0 0 0 1.813-.116c.315-.078.543-.274.69-.59.144-.313.268-.707.375-1.181l.91-4.408a4.473 4.473 0 0 1 1.066-2.44c.551-.916 1.302-1.495 2.247-1.73.315-.078.815-.09 1.497-.038 1.522.291 2.494 1.278 2.912 2.957.21.842.288 1.826.234 2.953a56.41 56.41 0 0 0-.081 2.363c-.053.238-.027.566.078.984.131.527.471.999 1.022 1.419 1.102.842 1.746 1.631 1.929 2.365.183.736.083 1.459-.298 2.165-.383.709-1.073 1.299-2.07 1.769-.789.421-1.347.978-1.676 1.672a3.122 3.122 0 0 0-.218 2.145c.025.553.38.855 1.062.907zm-10.358-1.942c-1.367.34-2.161.734-2.385 1.179-.223.447-.324 1.837-.299 4.173 1.706-.312 2.705-.782 2.995-1.414.288-.628.186-1.941-.311-3.938z"/>
    <path fill="#B58C8C" fill-rule="evenodd" d="M246.209 30.124c-.418.578-.876.736-1.372.476-.488-.204-.926-.276-1.312-.214-.333.053-.916.317-1.747.791-.731.402-1.291.803-1.68 1.206-3.992 3.421-6.833 7.28-8.524 11.577-.261.497-.468 1.153-.619 1.971-.622 2.481-1.061 4.338-1.316 5.57-.319 1.186-.614 1.999-.884 2.438-.485.871-1.141 1.374-1.971 1.508-.167.027-.425.011-.775-.045-1.178-.265-1.87-1.031-2.076-2.303a12.8 12.8 0 0 1 .043-2.898c.221-1.452.749-3.976 1.589-7.57a125.19 125.19 0 0 1 2.396-8.38l.929-3.211c.177-.311.355-.708.532-1.191.178-.482.355-.878.532-1.191.371-.513.806-.81 1.305-.89.166-.027.424-.012.774.045.772.216 1.236.794 1.387 1.733.025.506.011.948-.041 1.325a9.477 9.477 0 0 0-.096.993c-.123.644-.173 1.219-.147 1.725-.04.461-.1.881-.179 1.262-.081.382-.15.747-.207 1.096.203-.146.472-.416.807-.81l1.293-1.484 2.337-2.417c1.482-1.372 3.022-2.385 4.621-3.04.535-.199.969-.326 1.302-.38l1.01-.077c.745.05 1.398.399 1.958 1.046.164.313.255.526.273.636.027.166-.021.401-.142.703zM219.134 50.81c-.865 1.33-2.027 2.75-3.487 4.261-1.46 1.51-2.653 2.566-3.578 3.169a4.757 4.757 0 0 1-1.454.489c-.776.125-1.497.057-2.163-.204-.668-.262-1.249-.692-1.743-1.293-.687-.74-1.138-1.773-1.352-3.099-.434-1.631-.428-3.531.016-5.701 1.352-6.397 4.273-12.054 8.761-16.973a12.01 12.01 0 0 1 2.555-2.112c.259-.155.665-.277 1.219-.366.941-.152 1.761.086 2.458.71.697.625 1.057 1.36 1.081 2.207.215.986.025 2.264-.574 3.834-1.643 3.894-4.2 7.055-7.67 9.484-.408.293-.692.551-.854.775-.163.226-.273.512-.33.861-.455 2.455-.719 4.17-.788 5.145-.103.414-.139 1.072-.107 1.973l.013.083c.036.221.257.186.665-.107 2.164-1.369 3.813-2.768 4.945-4.198l2.534-3.299c.418-.578.789-.92 1.112-1.029.102-.073.263-.128.485-.163.332-.054.626.013.884.197.064.047.11.153.137.319.089.553-.006 1.021-.285 1.406l-2.48 3.631zm-5.523-9.402c.314-.163.619-.382.916-.657a22.362 22.362 0 0 0 3.903-5.901c.234-.661.391-1.182.472-1.564a1.253 1.253 0 0 0-.209-1.03c-.714.512-1.728 1.881-3.043 4.104-1.317 2.225-2.011 3.825-2.08 4.8-.029.174-.015.257.041.248zm-2.383-14.754c-1.643.379-2.909.638-3.794.78-.664.107-1.059.483-1.181 1.126-.04.461-.128.971-.264 1.531-.137.561-.243.961-.317 1.199l-5.488 22.995a51.064 51.064 0 0 0-.521 1.785 35.666 35.666 0 0 0-.58 2.474 11.928 11.928 0 0 1-.759 2.163 59.464 59.464 0 0 1-1.02 2.121c-.447.752-.751 1.339-.909 1.762-.281.725-.864 1.159-1.749 1.302-.388.062-.669.078-.844.05-.516-.031-.992-.252-1.428-.663a3.085 3.085 0 0 1-.883-1.516c-.371-1.585-.46-3.017-.268-4.294.193-1.618.365-2.836.517-3.655.785-3.924 2.107-8.759 3.963-14.5l2.741-8.351.983-2.879c.167-.367.23-.688.185-.966l-1.425.145c-.444.071-1.099.234-1.966.486-.332.054-.53.242-.591.563a7.223 7.223 0 0 1-.149.662l-1.104 4.77c-.378 1.876-1.011 4.642-1.897 8.299a336.863 336.863 0 0 1-2.886 12.201c-.549 2.584-1.442 4.966-2.679 7.15-.42.918-1.045 1.444-1.875 1.577-.222.036-.507.025-.857-.032-.636-.068-1.144-.313-1.524-.733-.38-.421-.596-.967-.649-1.639a13.524 13.524 0 0 1 .132-3.933l.581-2.73c2.636-10.402 4.793-18.148 6.471-23.238.037-.119.091-.312.162-.579.07-.266.088-.51.053-.731-.175-.028-.429-.016-.761.037-.444.072-.772.154-.983.244-.979.271-1.722.419-2.229.443-.738.006-1.184-.29-1.337-.89l-.137-.318c-.08-.498.161-.933.727-1.308.407-.291.922-.531 1.545-.716.623-.186 1.014-.319 1.171-.401l2.521-.746c.664-.107 1.136-.523 1.417-1.249.421-1.258 1.173-3.108 2.256-5.551l.977-1.858c.41-.632.89-.994 1.445-1.083.386-.062.705-.028.953.102.589.132.942.558 1.058 1.275.072.443.07.784-.005 1.022l-.78 3.612-.536 1.957c2.086-.448 3.461-.727 4.126-.834.377-.116.716-.483 1.015-1.098l1.707-3.677c.445-.752.715-1.191.809-1.321.481-.53.943-.832 1.387-.903.277-.045.566-.007.871.115.837.262 1.281.899 1.331 1.911.072.443.062.913-.028 1.408-.09.497-.151.832-.178 1.007-.169.367-.203.685-.102.952.238.076.442.099.608.072l.734-.203c1.217-.196 2.117-.256 2.697-.179.452-.016.828.109 1.125.372.299.264.479.59.542.976.142.884-.271 1.489-1.241 1.815-.426.183-.72.286-.886.313zm-33.864 30.878c-.865 1.33-2.027 2.75-3.487 4.261-1.46 1.51-2.653 2.566-3.578 3.169a4.787 4.787 0 0 1-1.454.49c-.776.124-1.497.056-2.163-.205-.668-.262-1.249-.692-1.743-1.293-.687-.74-1.138-1.773-1.352-3.099-.434-1.631-.428-3.531.016-5.701 1.352-6.397 4.273-12.054 8.761-16.973a12.01 12.01 0 0 1 2.555-2.112c.259-.155.665-.277 1.219-.366.941-.152 1.761.086 2.458.71.697.625 1.057 1.36 1.081 2.207.215.986.025 2.264-.574 3.834-1.643 3.894-4.2 7.055-7.67 9.484-.408.293-.692.551-.854.775-.164.226-.273.512-.33.861-.455 2.455-.719 4.17-.788 5.145-.103.414-.139 1.072-.107 1.973l.013.083c.036.221.257.186.665-.107 2.164-1.369 3.813-2.768 4.945-4.198l2.534-3.299c.418-.577.789-.92 1.112-1.029.102-.072.263-.128.485-.163.332-.054.627.013.884.198.063.046.11.152.136.318.09.553-.005 1.021-.283 1.406l-2.481 3.631zm-5.523-9.402c.314-.163.62-.382.916-.657a22.362 22.362 0 0 0 3.903-5.901c.234-.661.391-1.182.472-1.564.079-.381.01-.725-.209-1.03-.714.512-1.728 1.881-3.043 4.104-1.317 2.225-2.011 3.825-2.079 4.8-.03.175-.016.257.04.248zm-16.725 16.724c-1.419 1.76-2.769 3.082-4.045 3.968-1.527 1.096-3.038 1.765-4.532 2.005-.388.063-.923.092-1.605.088-1.356.048-2.45-.215-3.28-.79-.832-.576-1.52-1.499-2.067-2.771-.027-.166-.113-.35-.26-.554-.166.027-.277.13-.333.309a1.401 1.401 0 0 1-.154.365c-.382.799-.82 1.605-1.313 2.422-.575.659-.97 1.035-1.181 1.126a2.253 2.253 0 0 1-.957.409 2.184 2.184 0 0 1-1.54-.305c-.473-.293-.786-.739-.94-1.337l-.081-.497c-.053-.332-.069-.783-.048-1.353.091-1.205.51-3.002 1.26-5.391.516-1.727.83-2.77.943-3.128 1.161-3.362 2.277-7 3.349-10.915.282-1.065 1.039-3.937 2.272-8.615.311-1.24.713-2.793 1.207-4.659a258.792 258.792 0 0 1 1.84-6.547l.662-2.232c.27-.78.674-2.065 1.209-3.852a78.64 78.64 0 0 1 1.574-4.761l.911-2.272c.353-.623.655-1.041.906-1.252.287-.329.68-.534 1.178-.614.499-.081.985.026 1.458.318.473.293.781.711.927 1.254l.066.414c.063.388.036.93-.077 1.629-.24 1.683-.609 3.614-1.11 5.791a143.76 143.76 0 0 1-1.42 5.714 154.189 154.189 0 0 0-1.08 4.129 2509.48 2509.48 0 0 0-2.004 7.636c-1.018 4.246-1.923 7.793-2.712 10.642l-.211.799c.267-.099.471-.246.611-.438l.278-.385c1.791-2.272 3.997-4.611 6.62-7.019 1.453-1.197 2.837-2.128 4.15-2.794a6.127 6.127 0 0 1 1.703-.529 4.255 4.255 0 0 1 2.805.484c.873.484 1.565 1.251 2.076 2.302.328.628.56 1.356.693 2.185.063.387.101.977.116 1.767a17.446 17.446 0 0 1-1.177 5.377c-1.628 4.345-3.856 8.304-6.687 11.877zm2.597-20.318c-.062-.386-.288-.549-.675-.487-.111.018-.379.118-.803.3-.786.41-1.282.688-1.484.834-1.296.776-2.647 1.901-4.056 3.374-2.633 2.692-5.158 5.877-7.574 9.553-.966 1.403-1.372 3.112-1.216 5.129.08.497.367 1.216.859 2.157.164.314.32.488.468.521.146.033.41-.009.789-.127.757-.235 1.417-.539 1.982-.915 1.878-1.378 3.426-2.875 4.643-4.489 2.191-2.96 4.066-6.295 5.626-10.005.729-1.818 1.198-3.48 1.409-4.989.039-.46.05-.745.032-.856zM139.251 24.12c-.23 1.397-.692 3.457-1.388 6.176l-.48 1.778c-3.155 10.714-5.493 18.744-7.015 24.091-2.143 7.829-3.651 13.969-4.522 18.418l-.555 2.895a4.747 4.747 0 0 0-.008 1.532c.053.332.125.604.217.816.282.691.197 1.314-.252 1.869-.451.554-1.049.807-1.795.757-.516-.032-1.127-.301-1.835-.811a5.422 5.422 0 0 1-1.243-1.628c-.296-.605-.485-1.155-.565-1.653-.259-1.603-.282-3.328-.069-5.176a86.828 86.828 0 0 1 1.149-5.543c1.875-7.729 4.371-16.72 7.487-26.973l1.436-4.824c2.28-7.681 3.968-13.055 5.063-16.123.15-.477.431-1.203.842-2.177.297-.613.65-1.068 1.058-1.36.305-.22.624-.356.956-.409.387-.063.754.006 1.099.206.343.199.607.512.79.935.081.157.15.401.203.733.054.332.065.585.038.759.066 1.465-.138 3.369-.611 5.712zm-23.337 43.301c-.865 1.33-2.027 2.75-3.487 4.261-1.46 1.511-2.653 2.566-3.578 3.17a4.784 4.784 0 0 1-1.454.489c-.776.125-1.497.056-2.163-.205-.668-.262-1.249-.692-1.743-1.293-.686-.74-1.138-1.773-1.352-3.099-.434-1.631-.428-3.531.016-5.701 1.352-6.396 4.273-12.054 8.761-16.973a12.04 12.04 0 0 1 2.555-2.112c.259-.154.665-.277 1.219-.366.941-.151 1.761.086 2.458.71.697.625 1.057 1.361 1.081 2.207.215.986.025 2.265-.574 3.835-1.643 3.893-4.2 7.054-7.67 9.483-.408.293-.692.552-.854.776-.164.225-.273.511-.33.861-.455 2.454-.719 4.17-.788 5.144-.103.414-.139 1.072-.107 1.973l.013.083c.036.222.257.186.665-.107 2.164-1.369 3.813-2.767 4.945-4.197l2.534-3.3c.418-.577.789-.92 1.112-1.029.102-.072.263-.127.485-.163.332-.054.626.013.884.198.064.047.11.152.137.318.089.553-.006 1.021-.285 1.406l-2.48 3.631zm-5.523-9.401c.314-.164.619-.383.916-.658a22.346 22.346 0 0 0 3.903-5.901c.234-.661.391-1.182.472-1.564a1.253 1.253 0 0 0-.209-1.03c-.713.513-1.728 1.881-3.044 4.105-1.316 2.225-2.01 3.825-2.079 4.799-.029.175-.015.258.041.249zM97.396 70.401c-.865 1.33-2.027 2.75-3.487 4.261-1.46 1.511-2.653 2.566-3.578 3.17a4.757 4.757 0 0 1-1.454.489c-.776.125-1.497.056-2.163-.205-.668-.262-1.249-.692-1.743-1.293-.686-.74-1.138-1.773-1.353-3.099-.433-1.631-.427-3.531.017-5.7 1.352-6.397 4.273-12.055 8.761-16.974a12.046 12.046 0 0 1 2.555-2.112c.259-.154.665-.277 1.219-.366.941-.151 1.761.086 2.458.71.697.625 1.057 1.361 1.081 2.207.215.986.025 2.265-.574 3.835-1.643 3.893-4.2 7.054-7.67 9.483-.408.293-.692.552-.854.776-.164.225-.273.511-.33.861-.455 2.454-.719 4.17-.788 5.144-.103.414-.139 1.072-.107 1.973l.013.083c.036.222.257.186.665-.107 2.164-1.368 3.813-2.767 4.945-4.197l2.534-3.3c.418-.577.789-.92 1.112-1.029.102-.072.263-.127.485-.163.332-.054.627.013.884.198.064.047.11.152.137.318.089.553-.006 1.021-.284 1.407l-2.481 3.63zM91.873 61c.314-.164.62-.383.916-.658a22.346 22.346 0 0 0 3.903-5.901c.234-.661.391-1.182.472-1.564a1.25 1.25 0 0 0-.209-1.029c-.713.512-1.728 1.88-3.043 4.104-1.317 2.225-2.011 3.825-2.079 4.799-.029.175-.016.258.04.249zm-2.02-29.988c-.935.995-2.179 2.939-2.179 2.939a181.88 181.88 0 0 0-2.882 6.417c-.53 1.222-1.008 2.422-1.504 3.629 2.493.006 4.185.398 4.288 1.142.132.954-2.37 2.193-5.99 3.116-2.153 5.59-3.976 11.03-5.414 16.292l-.185.965c-.084.184-.02.401.191.65 2.19 2.313 3.478 4.657 3.862 7.033.116.718.172 1.247.171 1.588.091 3.727-.556 7.289-1.937 10.687a18.132 18.132 0 0 1-1.8 3.096c-.279.385-.762.916-1.447 1.594-.844.759-1.736 1.215-2.676 1.366-.942.152-1.835-.017-2.68-.504-.846-.489-1.524-1.258-2.035-2.309-.363-.849-.64-1.853-.827-3.014-.286-1.769-.28-3.839.019-6.211.33-3.228 1.075-7.402 2.237-12.522 1.433-5.858 3.27-11.712 5.49-17.562-3.66.267-6.338-.115-6.469-1.061-.159-1.148 3.495-2.705 8.331-3.631.054-.128.099-.256.153-.385 2.436-5.664 5.216-10.611 8.215-14.451 2.245-2.828 6.115-3.386 6.367-3.404.49-.135 1.252.067 1.633.316.381.251.608.597.679 1.039l-.037.915c-.337.567-2.434 1.057-3.574 2.27zM72.82 86.518c.22-.036.406-.123.554-.259.148-.139.273-.244.375-.316.668-.788 1.226-1.728 1.675-2.821 1.232-2.92 1.718-6.059 1.46-9.42-.177-1.445-.759-2.939-1.746-4.481-1.563 6.149-2.392 11.922-2.484 17.324l.166-.027zM57.491 64.195c-.6.257-1.039.627-1.321 1.111-.282.485-.379 1-.291 1.544-.016.403.224.644.717.723 1.814.828 2.677 1.966 2.592 3.417-.018.883-.321 1.609-.907 2.183-.589.574-1.396.904-2.421.988-.86.139-1.348.577-1.468 1.315-.044.726-.156 1.264-.34 1.612-.411 1.425-1.298 2.126-2.661 2.106-1.261.124-2.199-.485-2.815-1.824a10.257 10.257 0 0 0-.19-.808c-.103-.382-.381-.496-.836-.344l-.468.075-.468.075c-1.17.189-1.777.646-1.819 1.371-.212.675-.45 1.671-.717 2.991-.451 1.671-1.409 2.425-2.876 2.26-1.39-.175-2.145-1.132-2.264-2.87l-.091-1.304c-.182-.13-.453-.206-.817-.228-.363-.02-.63-.057-.798-.111-1.233-.2-2.047-.788-2.445-1.763l-.057-.35c-.163-1.011.211-1.91 1.125-2.697.703-.593 1.323-.971 1.857-1.138 1.6-.497 2.385-1.582 2.355-3.254l.181-1.107c-.284-.273-.557-.349-.817-.228a2.538 2.538 0 0 1-.625.22c-1.169.188-2.041.25-2.611.181-1.233-.201-1.971-.801-2.211-1.801l-.038-.234c-.163-1.01.262-1.839 1.279-2.482 1.238-.757 2.885-1.462 4.94-2.113 1.367-.459 2.189-1.31 2.469-2.553.08-.493.275-1.142.585-1.952.308-.807.537-1.503.683-2.086l.532-1.164c.59-1.293 1.503-1.839 2.736-1.639 1.101.383 1.72 1.242 1.857 2.577-.041.246-.076.532-.102.855-.029.325-.004.719.071 1.187l-.151.922c-.06.369-.033.665.083.886.415.094.857.101 1.325.026a.732.732 0 0 0 .538-.386c.124-.218.238-.497.345-.834l.932-3.146a3.264 3.264 0 0 1 .925-1.706c.457-.631 1.038-1.006 1.74-1.119.234-.037.597-.015 1.09.065 1.088.304 1.735 1.079 1.936 2.324.101.624.097 1.343-.011 2.158a39.597 39.597 0 0 0-.204 1.71c-.053.17-.054.41-.004.72.063.39.281.754.657 1.092.749.679 1.168 1.291 1.256 1.835.088.545-.029 1.064-.349 1.553-.322.492-.86.878-1.613 1.159zm-8.307 1.336c-1.014.164-1.615.401-1.805.71-.19.312-.349 1.314-.474 3.012 1.259-.122 2.015-.403 2.264-.844.248-.438.255-1.398.015-2.878z"/>
    <path fill="url(#a)" d="M246.209 30.124c-.418.578-.876.736-1.372.476-.488-.204-.926-.276-1.312-.214-.333.053-.916.317-1.747.791-.731.402-1.291.803-1.68 1.206-3.992 3.421-6.833 7.28-8.524 11.577-.261.497-.468 1.153-.619 1.971-.622 2.481-1.061 4.338-1.316 5.57-.319 1.186-.614 1.999-.884 2.438-.485.871-1.141 1.374-1.971 1.508-.167.027-.425.011-.775-.045-1.178-.265-1.87-1.031-2.076-2.303a12.8 12.8 0 0 1 .043-2.898c.221-1.452.749-3.976 1.589-7.57a125.19 125.19 0 0 1 2.396-8.38l.929-3.211c.177-.311.355-.708.532-1.191.178-.482.355-.878.532-1.191.371-.513.806-.81 1.305-.89.166-.027.424-.012.774.045.772.216 1.236.794 1.387 1.733.025.506.011.948-.041 1.325a9.477 9.477 0 0 0-.096.993c-.123.644-.173 1.219-.147 1.725-.04.461-.1.881-.179 1.262-.081.382-.15.747-.207 1.096.203-.146.472-.416.807-.81l1.293-1.484 2.337-2.417c1.482-1.372 3.022-2.385 4.621-3.04.535-.199.969-.326 1.302-.38l1.01-.077c.745.05 1.398.399 1.958 1.046.164.313.255.526.273.636.027.166-.021.401-.142.703zM219.134 50.81c-.865 1.33-2.027 2.75-3.487 4.261-1.46 1.51-2.653 2.566-3.578 3.169a4.757 4.757 0 0 1-1.454.489c-.776.125-1.497.057-2.163-.204-.668-.262-1.249-.692-1.743-1.293-.687-.74-1.138-1.773-1.352-3.099-.434-1.631-.428-3.531.016-5.701 1.352-6.397 4.273-12.054 8.761-16.973a12.01 12.01 0 0 1 2.555-2.112c.259-.155.665-.277 1.219-.366.941-.152 1.761.086 2.458.71.697.625 1.057 1.36 1.081 2.207.215.986.025 2.264-.574 3.834-1.643 3.894-4.2 7.055-7.67 9.484-.408.293-.692.551-.854.775-.163.226-.273.512-.33.861-.455 2.455-.719 4.17-.788 5.145-.103.414-.139 1.072-.107 1.973l.013.083c.036.221.257.186.665-.107 2.164-1.369 3.813-2.768 4.945-4.198l2.534-3.299c.418-.578.789-.92 1.112-1.029.102-.073.263-.128.485-.163.332-.054.626.013.884.197.064.047.11.153.137.319.089.553-.006 1.021-.285 1.406l-2.48 3.631zm-5.523-9.402c.314-.163.619-.382.916-.657a22.362 22.362 0 0 0 3.903-5.901c.234-.661.391-1.182.472-1.564a1.253 1.253 0 0 0-.209-1.03c-.714.512-1.728 1.881-3.043 4.104-1.317 2.225-2.011 3.825-2.08 4.8-.029.174-.015.257.041.248zm-2.383-14.754c-1.643.379-2.909.638-3.794.78-.664.107-1.059.483-1.181 1.126-.04.461-.128.971-.264 1.531-.137.561-.243.961-.317 1.199l-5.488 22.995a51.064 51.064 0 0 0-.521 1.785 35.666 35.666 0 0 0-.58 2.474 11.928 11.928 0 0 1-.759 2.163 59.464 59.464 0 0 1-1.02 2.121c-.447.752-.751 1.339-.909 1.762-.281.725-.864 1.159-1.749 1.302-.388.062-.669.078-.844.05-.516-.031-.992-.252-1.428-.663a3.085 3.085 0 0 1-.883-1.516c-.371-1.585-.46-3.017-.268-4.294.193-1.618.365-2.836.517-3.655.785-3.924 2.107-8.759 3.963-14.5l2.741-8.351.983-2.879c.167-.367.23-.688.185-.966l-1.425.145c-.444.071-1.099.234-1.966.486-.332.054-.53.242-.591.563a7.223 7.223 0 0 1-.149.662l-1.104 4.77c-.378 1.876-1.011 4.642-1.897 8.299a336.863 336.863 0 0 1-2.886 12.201c-.549 2.584-1.442 4.966-2.679 7.15-.42.918-1.045 1.444-1.875 1.577-.222.036-.507.025-.857-.032-.636-.068-1.144-.313-1.524-.733-.38-.421-.596-.967-.649-1.639a13.524 13.524 0 0 1 .132-3.933l.581-2.73c2.636-10.402 4.793-18.148 6.471-23.238.037-.119.091-.312.162-.579.07-.266.088-.51.053-.731-.175-.028-.429-.016-.761.037-.444.072-.772.154-.983.244-.979.271-1.722.419-2.229.443-.738.006-1.184-.29-1.337-.89l-.137-.318c-.08-.498.161-.933.727-1.308.407-.291.922-.531 1.545-.716.623-.186 1.014-.319 1.171-.401l2.521-.746c.664-.107 1.136-.523 1.417-1.249.421-1.258 1.173-3.108 2.256-5.551l.977-1.858c.41-.632.89-.994 1.445-1.083.386-.062.705-.028.953.102.589.132.942.558 1.058 1.275.072.443.07.784-.005 1.022l-.78 3.612-.536 1.957c2.086-.448 3.461-.727 4.126-.834.377-.116.716-.483 1.015-1.098l1.707-3.677c.445-.752.715-1.191.809-1.321.481-.53.943-.832 1.387-.903.277-.045.566-.007.871.115.837.262 1.281.899 1.331 1.911.072.443.062.913-.028 1.408-.09.497-.151.832-.178 1.007-.169.367-.203.685-.102.952.238.076.442.099.608.072l.734-.203c1.217-.196 2.117-.256 2.697-.179.452-.016.828.109 1.125.372.299.264.479.59.542.976.142.884-.271 1.489-1.241 1.815-.426.183-.72.286-.886.313zm-33.864 30.878c-.865 1.33-2.027 2.75-3.487 4.261-1.46 1.51-2.653 2.566-3.578 3.169a4.787 4.787 0 0 1-1.454.49c-.776.124-1.497.056-2.163-.205-.668-.262-1.249-.692-1.743-1.293-.687-.74-1.138-1.773-1.352-3.099-.434-1.631-.428-3.531.016-5.701 1.352-6.397 4.273-12.054 8.761-16.973a12.01 12.01 0 0 1 2.555-2.112c.259-.155.665-.277 1.219-.366.941-.152 1.761.086 2.458.71.697.625 1.057 1.36 1.081 2.207.215.986.025 2.264-.574 3.834-1.643 3.894-4.2 7.055-7.67 9.484-.408.293-.692.551-.854.775-.164.226-.273.512-.33.861-.455 2.455-.719 4.17-.788 5.145-.103.414-.139 1.072-.107 1.973l.013.083c.036.221.257.186.665-.107 2.164-1.369 3.813-2.768 4.945-4.198l2.534-3.299c.418-.577.789-.92 1.112-1.029.102-.072.263-.128.485-.163.332-.054.627.013.884.198.063.046.11.152.136.318.09.553-.005 1.021-.283 1.406l-2.481 3.631zm-5.523-9.402c.314-.163.62-.382.916-.657a22.362 22.362 0 0 0 3.903-5.901c.234-.661.391-1.182.472-1.564.079-.381.01-.725-.209-1.03-.714.512-1.728 1.881-3.043 4.104-1.317 2.225-2.011 3.825-2.079 4.8-.03.175-.016.257.04.248zm-16.725 16.724c-1.419 1.76-2.769 3.082-4.045 3.968-1.527 1.096-3.038 1.765-4.532 2.005-.388.063-.923.092-1.605.088-1.356.048-2.45-.215-3.28-.79-.832-.576-1.52-1.499-2.067-2.771-.027-.166-.113-.35-.26-.554-.166.027-.277.13-.333.309a1.401 1.401 0 0 1-.154.365c-.382.799-.82 1.605-1.313 2.422-.575.659-.97 1.035-1.181 1.126a2.253 2.253 0 0 1-.957.409 2.184 2.184 0 0 1-1.54-.305c-.473-.293-.786-.739-.94-1.337l-.081-.497c-.053-.332-.069-.783-.048-1.353.091-1.205.51-3.002 1.26-5.391.516-1.727.83-2.77.943-3.128 1.161-3.362 2.277-7 3.349-10.915.282-1.065 1.039-3.937 2.272-8.615.311-1.24.713-2.793 1.207-4.659a258.792 258.792 0 0 1 1.84-6.547l.662-2.232c.27-.78.674-2.065 1.209-3.852a78.64 78.64 0 0 1 1.574-4.761l.911-2.272c.353-.623.655-1.041.906-1.252.287-.329.68-.534 1.178-.614.499-.081.985.026 1.458.318.473.293.781.711.927 1.254l.066.414c.063.388.036.93-.077 1.629-.24 1.683-.609 3.614-1.11 5.791a143.76 143.76 0 0 1-1.42 5.714 154.189 154.189 0 0 0-1.08 4.129 2509.48 2509.48 0 0 0-2.004 7.636c-1.018 4.246-1.923 7.793-2.712 10.642l-.211.799c.267-.099.471-.246.611-.438l.278-.385c1.791-2.272 3.997-4.611 6.62-7.019 1.453-1.197 2.837-2.128 4.15-2.794a6.127 6.127 0 0 1 1.703-.529 4.255 4.255 0 0 1 2.805.484c.873.484 1.565 1.251 2.076 2.302.328.628.56 1.356.693 2.185.063.387.101.977.116 1.767a17.446 17.446 0 0 1-1.177 5.377c-1.628 4.345-3.856 8.304-6.687 11.877zm2.597-20.318c-.062-.386-.288-.549-.675-.487-.111.018-.379.118-.803.3-.786.41-1.282.688-1.484.834-1.296.776-2.647 1.901-4.056 3.374-2.633 2.692-5.158 5.877-7.574 9.553-.966 1.403-1.372 3.112-1.216 5.129.08.497.367 1.216.859 2.157.164.314.32.488.468.521.146.033.41-.009.789-.127.757-.235 1.417-.539 1.982-.915 1.878-1.378 3.426-2.875 4.643-4.489 2.191-2.96 4.066-6.295 5.626-10.005.729-1.818 1.198-3.48 1.409-4.989.039-.46.05-.745.032-.856zM139.251 24.12c-.23 1.397-.692 3.457-1.388 6.176l-.48 1.778c-3.155 10.714-5.493 18.744-7.015 24.091-2.143 7.829-3.651 13.969-4.522 18.418l-.555 2.895a4.747 4.747 0 0 0-.008 1.532c.053.332.125.604.217.816.282.691.197 1.314-.252 1.869-.451.554-1.049.807-1.795.757-.516-.032-1.127-.301-1.835-.811a5.422 5.422 0 0 1-1.243-1.628c-.296-.605-.485-1.155-.565-1.653-.259-1.603-.282-3.328-.069-5.176a86.828 86.828 0 0 1 1.149-5.543c1.875-7.729 4.371-16.72 7.487-26.973l1.436-4.824c2.28-7.681 3.968-13.055 5.063-16.123.15-.477.431-1.203.842-2.177.297-.613.65-1.068 1.058-1.36.305-.22.624-.356.956-.409.387-.063.754.006 1.099.206.343.199.607.512.79.935.081.157.15.401.203.733.054.332.065.585.038.759.066 1.465-.138 3.369-.611 5.712zm-23.337 43.301c-.865 1.33-2.027 2.75-3.487 4.261-1.46 1.511-2.653 2.566-3.578 3.17a4.784 4.784 0 0 1-1.454.489c-.776.125-1.497.056-2.163-.205-.668-.262-1.249-.692-1.743-1.293-.686-.74-1.138-1.773-1.352-3.099-.434-1.631-.428-3.531.016-5.701 1.352-6.396 4.273-12.054 8.761-16.973a12.04 12.04 0 0 1 2.555-2.112c.259-.154.665-.277 1.219-.366.941-.151 1.761.086 2.458.71.697.625 1.057 1.361 1.081 2.207.215.986.025 2.265-.574 3.835-1.643 3.893-4.2 7.054-7.67 9.483-.408.293-.692.552-.854.776-.164.225-.273.511-.33.861-.455 2.454-.719 4.17-.788 5.144-.103.414-.139 1.072-.107 1.973l.013.083c.036.222.257.186.665-.107 2.164-1.369 3.813-2.767 4.945-4.197l2.534-3.3c.418-.577.789-.92 1.112-1.029.102-.072.263-.127.485-.163.332-.054.626.013.884.198.064.047.11.152.137.318.089.553-.006 1.021-.285 1.406l-2.48 3.631zm-5.523-9.401c.314-.164.619-.383.916-.658a22.346 22.346 0 0 0 3.903-5.901c.234-.661.391-1.182.472-1.564a1.253 1.253 0 0 0-.209-1.03c-.713.513-1.728 1.881-3.044 4.105-1.316 2.225-2.01 3.825-2.079 4.799-.029.175-.015.258.041.249zM97.396 70.401c-.865 1.33-2.027 2.75-3.487 4.261-1.46 1.511-2.653 2.566-3.578 3.17a4.757 4.757 0 0 1-1.454.489c-.776.125-1.497.056-2.163-.205-.668-.262-1.249-.692-1.743-1.293-.686-.74-1.138-1.773-1.353-3.099-.433-1.631-.427-3.531.017-5.7 1.352-6.397 4.273-12.055 8.761-16.974a12.046 12.046 0 0 1 2.555-2.112c.259-.154.665-.277 1.219-.366.941-.151 1.761.086 2.458.71.697.625 1.057 1.361 1.081 2.207.215.986.025 2.265-.574 3.835-1.643 3.893-4.2 7.054-7.67 9.483-.408.293-.692.552-.854.776-.164.225-.273.511-.33.861-.455 2.454-.719 4.17-.788 5.144-.103.414-.139 1.072-.107 1.973l.013.083c.036.222.257.186.665-.107 2.164-1.368 3.813-2.767 4.945-4.197l2.534-3.3c.418-.577.789-.92 1.112-1.029.102-.072.263-.127.485-.163.332-.054.627.013.884.198.064.047.11.152.137.318.089.553-.006 1.021-.284 1.407l-2.481 3.63zM91.873 61c.314-.164.62-.383.916-.658a22.346 22.346 0 0 0 3.903-5.901c.234-.661.391-1.182.472-1.564a1.25 1.25 0 0 0-.209-1.029c-.713.512-1.728 1.88-3.043 4.104-1.317 2.225-2.011 3.825-2.079 4.799-.029.175-.016.258.04.249zm-2.02-29.988c-.935.995-2.179 2.939-2.179 2.939a181.88 181.88 0 0 0-2.882 6.417c-.53 1.222-1.008 2.422-1.504 3.629 2.493.006 4.185.398 4.288 1.142.132.954-2.37 2.193-5.99 3.116-2.153 5.59-3.976 11.03-5.414 16.292l-.185.965c-.084.184-.02.401.191.65 2.19 2.313 3.478 4.657 3.862 7.033.116.718.172 1.247.171 1.588.091 3.727-.556 7.289-1.937 10.687a18.132 18.132 0 0 1-1.8 3.096c-.279.385-.762.916-1.447 1.594-.844.759-1.736 1.215-2.676 1.366-.942.152-1.835-.017-2.68-.504-.846-.489-1.524-1.258-2.035-2.309-.363-.849-.64-1.853-.827-3.014-.286-1.769-.28-3.839.019-6.211.33-3.228 1.075-7.402 2.237-12.522 1.433-5.858 3.27-11.712 5.49-17.562-3.66.267-6.338-.115-6.469-1.061-.159-1.148 3.495-2.705 8.331-3.631.054-.128.099-.256.153-.385 2.436-5.664 5.216-10.611 8.215-14.451 2.245-2.828 6.115-3.386 6.367-3.404.49-.135 1.252.067 1.633.316.381.251.608.597.679 1.039l-.037.915c-.337.567-2.434 1.057-3.574 2.27zM72.82 86.518c.22-.036.406-.123.554-.259.148-.139.273-.244.375-.316.668-.788 1.226-1.728 1.675-2.821 1.232-2.92 1.718-6.059 1.46-9.42-.177-1.445-.759-2.939-1.746-4.481-1.563 6.149-2.392 11.922-2.484 17.324l.166-.027zM57.491 64.195c-.6.257-1.039.627-1.321 1.111-.282.485-.379 1-.291 1.544-.016.403.224.644.717.723 1.814.828 2.677 1.966 2.592 3.417-.018.883-.321 1.609-.907 2.183-.589.574-1.396.904-2.421.988-.86.139-1.348.577-1.468 1.315-.044.726-.156 1.264-.34 1.612-.411 1.425-1.298 2.126-2.661 2.106-1.261.124-2.199-.485-2.815-1.824a10.257 10.257 0 0 0-.19-.808c-.103-.382-.381-.496-.836-.344l-.468.075-.468.075c-1.17.189-1.777.646-1.819 1.371-.212.675-.45 1.671-.717 2.991-.451 1.671-1.409 2.425-2.876 2.26-1.39-.175-2.145-1.132-2.264-2.87l-.091-1.304c-.182-.13-.453-.206-.817-.228-.363-.02-.63-.057-.798-.111-1.233-.2-2.047-.788-2.445-1.763l-.057-.35c-.163-1.011.211-1.91 1.125-2.697.703-.593 1.323-.971 1.857-1.138 1.6-.497 2.385-1.582 2.355-3.254l.181-1.107c-.284-.273-.557-.349-.817-.228a2.538 2.538 0 0 1-.625.22c-1.169.188-2.041.25-2.611.181-1.233-.201-1.971-.801-2.211-1.801l-.038-.234c-.163-1.01.262-1.839 1.279-2.482 1.238-.757 2.885-1.462 4.94-2.113 1.367-.459 2.189-1.31 2.469-2.553.08-.493.275-1.142.585-1.952.308-.807.537-1.503.683-2.086l.532-1.164c.59-1.293 1.503-1.839 2.736-1.639 1.101.383 1.72 1.242 1.857 2.577-.041.246-.076.532-.102.855-.029.325-.004.719.071 1.187l-.151.922c-.06.369-.033.665.083.886.415.094.857.101 1.325.026a.732.732 0 0 0 .538-.386c.124-.218.238-.497.345-.834l.932-3.146a3.264 3.264 0 0 1 .925-1.706c.457-.631 1.038-1.006 1.74-1.119.234-.037.597-.015 1.09.065 1.088.304 1.735 1.079 1.936 2.324.101.624.097 1.343-.011 2.158a39.597 39.597 0 0 0-.204 1.71c-.053.17-.054.41-.004.72.063.39.281.754.657 1.092.749.679 1.168 1.291 1.256 1.835.088.545-.029 1.064-.349 1.553-.322.492-.86.878-1.613 1.159zm-8.307 1.336c-1.014.164-1.615.401-1.805.71-.19.312-.349 1.314-.474 3.012 1.259-.122 2.015-.403 2.264-.844.248-.438.255-1.398.015-2.878z"/>
</svg>
