<svg xmlns="http://www.w3.org/2000/svg" width="28" height="28">
    <defs>
        <linearGradient id="a" x1="0%" x2="50%" y1="86.603%" y2="0%">
            <stop offset="0%" stop-color="#EF451F"/>
            <stop offset="100%" stop-color="#FCDD57"/>
        </linearGradient>
    </defs>
    <path fill="#307292" fill-rule="evenodd" d="M4.363 0h2.14v2.151h15.013V0h2.14v2.151c1.842-.02 2.921.277 3.673 1.316.96 1.326.607 4.444.607 6.677v10.689c0 3.828.44 6.578-2.907 7.158H6.663c-3.329 0-5.736.284-6.484-2.375-.336-1.193-.096-3.784-.096-5.233V9.341c0-2.065-.268-4.668.607-5.874.755-1.042 1.829-1.331 3.673-1.316V0zm-2.14 10.753v10.658c0 1.041-.216 3.455.223 4.044.488.655 3.933.385 5.175.385h12.968c1.146 0 4.184.257 4.823-.224.672-.505.384-2.687.384-3.82V10.753H2.223zm8.56 2.151v2.183l-2.14-.032.032-2.151h2.108zm2.172 0l2.14.032-.031 2.151-2.141-.032.032-2.151zm4.281 0l2.14.032-.032 2.151h-2.108v-2.183zm4.28 0l2.14.032-.032 2.151h-2.108v-2.183zM4.363 17.238h2.14v2.15h-2.14v-2.15zm4.28 0h2.14v2.15l-2.14-.032v-2.118zm4.28 0h2.172l-.031 2.15-2.141-.032v-2.118zm4.313 0h2.14l-.032 2.15h-2.108v-2.15zm4.28 0h2.14v2.15h-2.14v-2.15zM4.363 21.539h2.14v2.151h-2.14v-2.151zm4.28 0h2.14v2.151h-2.14v-2.151zm4.28 0h2.172l-.031 2.151-2.141-.033v-2.118z"/>
    <path fill="url(#a)" d="M4.363 0h2.14v2.151h15.013V0h2.14v2.151c1.842-.02 2.921.277 3.673 1.316.96 1.326.607 4.444.607 6.677v10.689c0 3.828.44 6.578-2.907 7.158H6.663c-3.329 0-5.736.284-6.484-2.375-.336-1.193-.096-3.784-.096-5.233V9.341c0-2.065-.268-4.668.607-5.874.755-1.042 1.829-1.331 3.673-1.316V0zm-2.14 10.753v10.658c0 1.041-.216 3.455.223 4.044.488.655 3.933.385 5.175.385h12.968c1.146 0 4.184.257 4.823-.224.672-.505.384-2.687.384-3.82V10.753H2.223zm8.56 2.151v2.183l-2.14-.032.032-2.151h2.108zm2.172 0l2.14.032-.031 2.151-2.141-.032.032-2.151zm4.281 0l2.14.032-.032 2.151h-2.108v-2.183zm4.28 0l2.14.032-.032 2.151h-2.108v-2.183zM4.363 17.238h2.14v2.15h-2.14v-2.15zm4.28 0h2.14v2.15l-2.14-.032v-2.118zm4.28 0h2.172l-.031 2.15-2.141-.032v-2.118zm4.313 0h2.14l-.032 2.15h-2.108v-2.15zm4.28 0h2.14v2.15h-2.14v-2.15zM4.363 21.539h2.14v2.151h-2.14v-2.151zm4.28 0h2.14v2.151h-2.14v-2.151zm4.28 0h2.172l-.031 2.151-2.141-.033v-2.118z"/>
</svg>
