<svg xmlns="http://www.w3.org/2000/svg" width="29" height="36">
    <defs>
        <linearGradient id="a" x1="0%" x2="50%" y1="86.603%" y2="0%">
            <stop offset="0%" stop-color="#EF451F"/>
            <stop offset="100%" stop-color="#FCDD57"/>
        </linearGradient>
    </defs>
    <path fill="#307292" fill-rule="evenodd" d="M5.54.025c2.682-.068 3.203.839 4.447 2.08 1.407-.652 3.682-1.415 6.064-.991 1.101.197 2.65 1.094 3.436.793C20.127.283 23.032-.64 24.945.52c2.833 1.719 2.136 6.234-1.011 7.133.405 4.697-1.522 8.268-5.256 9.411 2.658-3.416.575-9.185-4.952-8.124-4.309.828-5.707 4.274-3.436 8.024-2.761-.63-4.747-3.642-5.256-6.538l.101-2.872c-2.471-.477-3.574-3.998-1.92-6.142C3.769.693 4.676.456 5.54.025zM6.753 2.6c-1.223.595-2.126 1.939-.809 3.071l.303-.198c.377-.945 1.213-1.742 2.021-2.278l-.202-.297L6.753 2.6zm15.058.099l-.808.496 2.122 2.476c.503-.375.716-.788.708-1.684l-.607-.99-1.415-.298zm-7.782 7.628l1.112.099.707.595-.101.792-1.01.595-1.011-.199c-.625-.824-.503-1.278.303-1.882zM2.407 16.172c5.22-.044 7.741 3.917 13.34 2.972 2.812-.475 8.194-3.584 10.916-2.972 1.945.437 3.347 3.877 1.415 5.349-.822.626-2.245.747-3.336 1.09l.203.991c-2.819-.065-3.573.881-5.256 1.684-.548-2.634-4.9-4.407-7.883-2.675-1.064.617-1.43 1.589-2.123 2.576-1.557-1.004-2.865-1.754-5.558-1.486l.303-1.09c-4.32-.808-6.355-4.044-2.021-6.439zm2.425 8.42c6.786-.181 9.069 9.462 3.234 11.194-4.094 1.216-8.03-3.685-6.872-7.727.577-2.016 1.816-2.634 3.638-3.467zm18.293 0c8.7-.26 5.61 12.74-1.212 11.293-3.876-.821-4.691-6.109-2.325-9.113.908-1.153 2.071-1.53 3.537-2.18zm-10.814 6.935c1.51.459 3.468.667 4.952 0l.607 2.476c-1.732.219-4.602.845-6.266 0l.707-2.476z"/>
    <path fill="url(#a)" d="M5.54.025c2.682-.068 3.203.839 4.447 2.08 1.407-.652 3.682-1.415 6.064-.991 1.101.197 2.65 1.094 3.436.793C20.127.283 23.032-.64 24.945.52c2.833 1.719 2.136 6.234-1.011 7.133.405 4.697-1.522 8.268-5.256 9.411 2.658-3.416.575-9.185-4.952-8.124-4.309.828-5.707 4.274-3.436 8.024-2.761-.63-4.747-3.642-5.256-6.538l.101-2.872c-2.471-.477-3.574-3.998-1.92-6.142C3.769.693 4.676.456 5.54.025zM6.753 2.6c-1.223.595-2.126 1.939-.809 3.071l.303-.198c.377-.945 1.213-1.742 2.021-2.278l-.202-.297L6.753 2.6zm15.058.099l-.808.496 2.122 2.476c.503-.375.716-.788.708-1.684l-.607-.99-1.415-.298zm-7.782 7.628l1.112.099.707.595-.101.792-1.01.595-1.011-.199c-.625-.824-.503-1.278.303-1.882zM2.407 16.172c5.22-.044 7.741 3.917 13.34 2.972 2.812-.475 8.194-3.584 10.916-2.972 1.945.437 3.347 3.877 1.415 5.349-.822.626-2.245.747-3.336 1.09l.203.991c-2.819-.065-3.573.881-5.256 1.684-.548-2.634-4.9-4.407-7.883-2.675-1.064.617-1.43 1.589-2.123 2.576-1.557-1.004-2.865-1.754-5.558-1.486l.303-1.09c-4.32-.808-6.355-4.044-2.021-6.439zm2.425 8.42c6.786-.181 9.069 9.462 3.234 11.194-4.094 1.216-8.03-3.685-6.872-7.727.577-2.016 1.816-2.634 3.638-3.467zm18.293 0c8.7-.26 5.61 12.74-1.212 11.293-3.876-.821-4.691-6.109-2.325-9.113.908-1.153 2.071-1.53 3.537-2.18zm-10.814 6.935c1.51.459 3.468.667 4.952 0l.607 2.476c-1.732.219-4.602.845-6.266 0l.707-2.476z"/>
</svg>
