<?xml version="1.0" encoding="utf-8"?>
<!-- Generator: Adobe Illustrator 21.0.0, SVG Export Plug-In . SVG Version: 6.00 Build 0)  -->
<svg version="1.1" id="Isolation_Mode" xmlns="http://www.w3.org/2000/svg" xmlns:xlink="http://www.w3.org/1999/xlink" x="0px"
	 y="0px" viewBox="0 0 9.5 3.9" style="enable-background:new 0 0 9.5 3.9;" xml:space="preserve">
<style type="text/css">
	.st0{fill:#FFECA8;}
	.st1{fill:#F9DB8D;}
	.st2{fill:#FFF2CA;}
	.st3{fill:#376A79;}
	.st4{opacity:0.2;fill:#3C3C3B;}
	.st5{fill:#489EB8;}
	.st6{fill:#C8590C;}
	.st7{opacity:0.2;fill:#F08038;}
	.st8{fill:#69C2D6;}
	.st9{fill:#368FA3;}
	.st10{fill:#237B84;}
</style>
<g>
	<g>
		<g>
			<path class="st0" d="M0.4,2.8c0.3-0.3,0.8-0.6,1.4-0.6c0.3,0,0.6,0,0.8,0c0.5,0,0.9-0.1,1.3-0.1C4.3,2,4.8,1.9,5.2,1.8
				c0.4-0.1,0.7-0.2,1.1-0.3c0.7-0.1,1.5,0,2,0.2C8.9,2,9.2,2.4,9.1,2.8H0.4z"/>
		</g>
		<g>
			<path class="st1" d="M9.1,2.8H8.3C8.4,2.4,8.2,2,7.6,1.7C7.3,1.6,7,1.5,6.6,1.5c0.6-0.1,1.3,0,1.7,0.3C8.9,2,9.2,2.4,9.1,2.8z"/>
		</g>
		<g>
			<path class="st2" d="M6.6,1.5c-0.1,0-0.2,0-0.3,0C5.9,1.6,5.6,1.7,5.2,1.8C4.8,2,4.3,2,3.9,2.1C3.5,2.2,3,2.3,2.6,2.3
				c-0.1,0-0.2,0-0.3,0c0.3,0,0.6-0.1,0.9-0.1C3.6,2,4.1,2,4.5,1.8c0.4-0.1,0.7-0.2,1.1-0.3C5.9,1.5,6.3,1.4,6.6,1.5z"/>
		</g>
	</g>
	<path class="st3" d="M9.2,3.9h-9c0,0-0.1,0-0.1-0.1V2.8c0,0,0-0.1,0.1-0.1h9c0,0,0.1,0,0.1,0.1L9.2,3.9C9.3,3.9,9.2,3.9,9.2,3.9z"
		/>
	<path class="st4" d="M9.2,3h-9c0,0-0.1,0-0.1-0.1V2.8c0,0,0-0.1,0.1-0.1h9c0,0,0.1,0,0.1,0.1L9.2,3C9.3,3,9.2,3,9.2,3z"/>
	<path class="st4" d="M9.2,3.9H7.8c0,0-0.1,0-0.1-0.1V2.8c0,0,0-0.1,0.1-0.1h1.4c0,0,0.1,0,0.1,0.1L9.2,3.9C9.3,3.9,9.2,3.9,9.2,3.9
		z"/>
	<path class="st5" d="M0.5,3.9H0.2c0,0-0.1,0-0.1-0.1V2.8c0,0,0-0.1,0.1-0.1h0.3c0,0,0.1,0,0.1,0.1L0.5,3.9C0.5,3.9,0.5,3.9,0.5,3.9
		z"/>
	<path class="st3" d="M9.4,2.8H0.1c0,0-0.1,0-0.1-0.1V2.5c0,0,0-0.1,0.1-0.1h9.3c0,0,0.1,0,0.1,0.1L9.4,2.8C9.5,2.7,9.4,2.8,9.4,2.8
		z"/>
	<path class="st5" d="M9.4,2.6H0.1c0,0-0.1,0-0.1-0.1v0c0,0,0-0.1,0.1-0.1h9.3C9.4,2.5,9.5,2.5,9.4,2.6L9.4,2.6
		C9.5,2.6,9.4,2.6,9.4,2.6z"/>
	<path class="st5" d="M0.1,2.8L0.1,2.8C0,2.8,0,2.7,0.1,2.8L0,2.5c0,0,0-0.1,0.1-0.1h0c0,0,0.1,0,0.1,0.1L0.1,2.8
		C0.1,2.7,0.1,2.8,0.1,2.8z"/>
	<g>
		<g>
			
				<rect x="6.5" y="0.6" transform="matrix(0.9973 -7.351846e-02 7.351846e-02 0.9973 -4.849169e-02 0.4853)" class="st6" width="0.1" height="0.6"/>
			
				<rect x="6.6" y="0.6" transform="matrix(0.9973 -7.306427e-02 7.306427e-02 0.9973 -4.803392e-02 0.4847)" class="st4" width="0" height="0.6"/>
		</g>
		<g>
			<path class="st6" d="M6.7,0.6c0,0.1,0,0.1-0.1,0.1l0,0c-0.1,0-0.1,0-0.1-0.1l0-0.5c0-0.1,0-0.1,0.1-0.1l0,0c0.1,0,0.1,0,0.1,0.1
				L6.7,0.6z"/>
			<path class="st4" d="M6.5,0C6.5,0,6.5,0,6.5,0C6.5,0,6.5,0,6.5,0C6.5,0,6.6,0,6.5,0C6.6,0,6.6,0.1,6.5,0l0.1,0.6
				c0,0.1,0,0.1-0.1,0.1c0,0,0,0,0,0c0.1,0,0.1-0.1,0.1-0.1L6.5,0C6.6,0.1,6.6,0.1,6.5,0z"/>
		</g>
		<path class="st7" d="M6.4,0.1l0,0.5c0,0,0,0.1,0.1,0.1l0,0.5l0,0l0-0.5c0,0-0.1-0.1-0.1-0.1L6.4,0.1c0-0.1,0-0.1,0.1-0.1
			c0,0,0,0,0,0c0,0,0,0,0,0c0,0,0,0,0,0C6.5,0,6.4,0.1,6.4,0.1z"/>
		<path class="st6" d="M6.9,1.1C6.9,1,6.9,1,6.8,1L6.3,1c-0.1,0-0.1,0-0.1,0.1l0,0.4c0,0,0,0,0,0c0,0,0,0,0,0c0,0,0.2,0.6,0.4,0.6
			C6.9,2.1,7,1.5,7,1.5c0,0,0,0,0,0c0,0,0,0,0,0L6.9,1.1z"/>
		<path class="st4" d="M7,1.5C7,1.5,7,1.5,7,1.5C7,1.5,7,1.5,7,1.5c0,0-0.1,0.6-0.3,0.6c0,0,0,0-0.1,0l0,0C6.8,2.1,6.9,1.5,7,1.5
			C6.9,1.5,6.9,1.5,7,1.5C6.9,1.5,6.9,1.5,7,1.5L6.9,1c0,0,0,0,0-0.1c0.1,0,0.1,0,0.1,0.1L7,1.5z"/>
	</g>
	<g>
		<g>
			<polygon class="st8" points="7.6,2.2 6.9,2.1 7.1,0.9 8,1.1 			"/>
			<polygon class="st5" points="7.5,2.2 7,2.1 7.2,0.9 7.9,1.1 			"/>
			<polygon class="st9" points="7.4,2.2 7.1,2.1 7.3,0.9 7.8,1 			"/>
			<polygon class="st3" points="8,1.1 7.6,2.2 7.5,2.2 7.9,1.1 			"/>
			<polygon class="st10" points="7.9,1.1 7.5,2.2 7.4,2.2 7.8,1 			"/>
		</g>
		<path class="st9" d="M8,1.1C8,1.1,8,1.1,8,1.1c0,0-0.2,0-0.4,0c0,0,0,0-0.1,0c0,0,0,0-0.1,0C7.2,1,7.1,0.9,7.1,0.9c0,0,0,0,0,0
			c0,0,0.2,0,0.5,0C7.8,0.9,8,1,8,1.1z"/>
		<path class="st3" d="M8,1.1c0,0-0.2,0-0.4,0c0,0,0,0-0.1,0c0,0,0,0-0.1,0C7.2,1,7.1,0.9,7.1,0.9c0,0,0.2,0,0.5,0C7.8,1,8,1,8,1.1z
			"/>
		<path class="st6" d="M8,1.1C8,1.1,8,1.1,8,1.1c0.1-0.3-0.1-0.6-0.4-0.6h0h0C7.4,0.4,7.1,0.6,7,0.9c0,0,0,0,0,0l0,0l0,0
			c0,0,0,0,0,0c0,0,0,0,0,0c0,0,0,0,0,0c0.1-0.2,0.3-0.4,0.5-0.3C7.9,0.6,8,0.8,8,1.1C8,1.1,8,1.1,8,1.1C8,1.1,8,1.1,8,1.1
			C8,1.1,8,1.1,8,1.1L8,1.1L8,1.1z"/>
	</g>
	<g>
		<path class="st0" d="M6.2,1.9c0-0.1,0.1-0.2,0.1-0.2c0.1,0,0.2,0,0.2,0c0.1,0,0.2,0,0.2,0c0,0,0.1,0,0.1,0c0.1,0,0.1,0,0.2,0
			C7.3,1.9,7.5,2,7.7,2c0.1,0,0.1,0,0.1,0.1c0,0.1,0,0.2-0.1,0.2c-0.1,0-0.2,0-0.2,0c-0.4,0-0.7-0.1-1.1-0.1c-0.1,0-0.2,0-0.2-0.1
			C6.1,2.2,6.1,2.1,6.2,1.9L6.2,1.9z"/>
	</g>
</g>
</svg>
