<?xml version="1.0" encoding="utf-8"?>
<!-- Generator: Adobe Illustrator 21.0.0, SVG Export Plug-In . SVG Version: 6.00 Build 0)  -->
<svg version="1.1" id="Isolation_Mode" xmlns="http://www.w3.org/2000/svg" xmlns:xlink="http://www.w3.org/1999/xlink" x="0px"
	 y="0px" viewBox="0 0 25.5 13" style="enable-background:new 0 0 25.5 13;" xml:space="preserve">
<style type="text/css">
	.st0{fill:#3C3C3B;}
	.st1{fill:#8C592D;}
	.st2{opacity:0.2;fill:#3C3C3B;}
	.st3{fill:#613D24;}
	.st4{fill:#986233;}
	.st5{fill:#C8590C;}
	.st6{opacity:0.3;}
	.st7{opacity:0.25;}
	.st8{fill:#CC6A29;}
</style>
<g>
	<rect x="2.3" y="4.5" class="st0" width="0.1" height="7.2"/>
	<rect x="4.8" y="4.5" class="st0" width="0.1" height="7.2"/>
	<g>
		<path class="st1" d="M5,11.6c0,0.1-0.1,0.2-0.2,0.2C4,12,3.2,12,2.4,11.9c-0.1,0-0.2-0.1-0.2-0.2l0,0c0-0.1,0.1-0.2,0.2-0.2
			c0.8,0,1.5,0,2.3,0C4.9,11.5,5,11.5,5,11.6L5,11.6z"/>
		<path class="st2" d="M5,11.6c0,0.1-0.1,0.2-0.2,0.2C4,12,3.2,12,2.4,11.9c-0.1,0-0.2-0.1-0.2-0.2c0,0,0,0,0,0
			c0,0.1,0.1,0.2,0.2,0.2C3.2,12,4,12,4.8,11.8C4.9,11.8,5,11.7,5,11.6C5,11.6,5,11.6,5,11.6z"/>
	</g>
	<path class="st3" d="M23.6,12H22c-0.2,0-0.3,0.1-0.3,0.3v0.3c0,0.2,0.1,0.3,0.3,0.3h1.6c0.2,0,0.3-0.1,0.3-0.3v-0.3
		C23.9,12.2,23.8,12,23.6,12z"/>
	<g>
		<g>
			<g>
				<path class="st3" d="M8.6,6.3c-0.1,0-0.2,0.1-0.2,0.2c0,0.1,0,0.1,0,0.2c0,0,0,0,0,0l0,0.1c0,0,0-0.1,0-0.2
					C8.5,6.5,8.6,6.4,8.6,6.3c0.1,0.1,0.2,0.1,0.2,0.1C8.8,6.4,8.7,6.3,8.6,6.3z M9.1,6.3C9,6.3,8.9,6.4,8.9,6.5
					c0,0,0.1,0.1,0.1,0.1l0,0C9,6.5,9.1,6.4,9.1,6.3c0.1,0.1,0.2,0.1,0.2,0.1C9.3,6.4,9.2,6.3,9.1,6.3z"/>
			</g>
		</g>
		<polygon class="st3" points="8.9,6.6 8.9,6.5 8.9,6.4 9,6.5 		"/>
	</g>
	<g>
		<path class="st4" d="M7.8,13L7.8,13C8,13,8,12.9,8,12.8V8.1C8,8,8,8,7.9,8H7.8C7.7,8,7.7,8,7.7,8.1v4.7C7.7,12.9,7.7,13,7.8,13z"
			/>
		<path class="st4" d="M9.8,13L9.8,13c0.1,0,0.2-0.1,0.2-0.1V8.1C10,8,10,8,9.9,8H9.8C9.8,8,9.7,8,9.7,8.1v4.7
			C9.7,12.9,9.8,13,9.8,13z"/>
		<path class="st4" d="M0.3,13H0.1C0.1,13,0,12.9,0,12.8V4.2C0,4.1,0.1,4,0.1,4h0.1c0.1,0,0.1,0.1,0.1,0.1v8.6
			C0.4,12.9,0.4,13,0.3,13z"/>
		<g>
			<path class="st3" d="M6.4,2.8V2.7c0-0.1,0.1-0.1,0.1-0.1h4.8c0.1,0,0.1,0.1,0.1,0.1v0.1c0,0.1-0.1,0.1-0.1,0.1H6.5
				C6.4,2.9,6.4,2.9,6.4,2.8z"/>
			<g>
				<path class="st4" d="M6.9,2.9H7c0.1,0,0.1,0.1,0.1,0.1v9.7C7.2,12.9,7.1,13,7,13H6.9c-0.1,0-0.1-0.1-0.1-0.1V3.1
					C6.7,3,6.8,2.9,6.9,2.9z"/>
				<path class="st4" d="M10.7,2.9h0.1C11,2.9,11,3,11,3.1v9.7c0,0.1-0.1,0.1-0.1,0.1h-0.1c-0.1,0-0.1-0.1-0.1-0.1V3.1
					C10.6,3,10.7,2.9,10.7,2.9z"/>
			</g>
		</g>
		<path class="st4" d="M16.1,5.3v7.5c0,0.1-0.1,0.1-0.1,0.1h-0.1c-0.1,0-0.1-0.1-0.1-0.1V5.3c0-0.1,0.1-0.1,0.1-0.1h0.1
			C16,5.2,16.1,5.2,16.1,5.3z"/>
		<path class="st3" d="M10.6,5.5V5.3c0-0.1,0.1-0.1,0.1-0.1h5.2c0.1,0,0.1,0.1,0.1,0.1v0.1c0,0.1-0.1,0.1-0.1,0.1h-5.2
			C10.7,5.6,10.6,5.5,10.6,5.5z"/>
		<path class="st3" d="M16.1,8v0.4h-5.3c-0.1,0-0.1-0.1-0.1-0.1V8.1C10.6,8,10.7,8,10.7,8H16.1z"/>
		<path class="st3" d="M0,4.3V4.2C0,4.1,0.1,4,0.1,4H7c0.1,0,0.1,0.1,0.1,0.1v0.1c0,0.1-0.1,0.1-0.1,0.1H0.1C0.1,4.5,0,4.4,0,4.3z"
			/>
		<g>
			<path class="st3" d="M7.9,11.7v-0.1c0-0.1,0.1-0.1,0.1-0.1h1.7c0.1,0,0.1,0.1,0.1,0.1v0.1c0,0.1-0.1,0.1-0.1,0.1H8
				C7.9,11.8,7.9,11.8,7.9,11.7z"/>
			<path class="st3" d="M7.9,12.5v-0.1c0-0.1,0.1-0.1,0.1-0.1h1.7c0.1,0,0.1,0.1,0.1,0.1v0.1c0,0.1-0.1,0.1-0.1,0.1H8
				C7.9,12.7,7.9,12.6,7.9,12.5z"/>
			<path class="st3" d="M7.9,10.8v-0.1c0-0.1,0.1-0.1,0.1-0.1h1.7c0.1,0,0.1,0.1,0.1,0.1v0.1c0,0.1-0.1,0.1-0.1,0.1H8
				C7.9,11,7.9,10.9,7.9,10.8z"/>
			<path class="st3" d="M7.9,10V9.8c0-0.1,0.1-0.1,0.1-0.1h1.7c0.1,0,0.1,0.1,0.1,0.1V10c0,0.1-0.1,0.1-0.1,0.1H8
				C7.9,10.1,7.9,10,7.9,10z"/>
			<path class="st3" d="M7.9,9.1V9c0-0.1,0.1-0.1,0.1-0.1h1.7c0.1,0,0.1,0.1,0.1,0.1v0.1c0,0.1-0.1,0.1-0.1,0.1H8
				C7.9,9.2,7.9,9.2,7.9,9.1z"/>
			<path class="st3" d="M7.9,8.2V8.1C7.9,8,7.9,8,8,8h1.7C9.8,8,9.8,8,9.8,8.1v0.1c0,0.1-0.1,0.1-0.1,0.1H8C7.9,8.4,7.9,8.3,7.9,8.2
				z"/>
		</g>
		<g>
			<path class="st5" d="M11.9,5.8v2c0,0.1,0,0.2-0.1,0.2l-0.1,0.2c-0.1,0.1-0.2,0.1-0.3,0L11.2,8c0,0-0.1-0.1-0.1-0.2v-2
				c0-0.1,0-0.2,0.1-0.2l0.1-0.2c0.1-0.1,0.2-0.1,0.3,0l0.1,0.2C11.8,5.6,11.9,5.7,11.9,5.8z"/>
			<path class="st5" d="M12.8,5.8v2c0,0.1,0,0.2-0.1,0.2l-0.1,0.2c-0.1,0.1-0.2,0.1-0.3,0L12.2,8c0,0-0.1-0.1-0.1-0.2v-2
				c0-0.1,0-0.2,0.1-0.2l0.1-0.2c0.1-0.1,0.2-0.1,0.3,0l0.1,0.2C12.7,5.6,12.8,5.7,12.8,5.8z"/>
			<path class="st5" d="M13.7,5.8v2c0,0.1,0,0.2-0.1,0.2l-0.1,0.2c-0.1,0.1-0.2,0.1-0.3,0L13.1,8c0,0-0.1-0.1-0.1-0.2v-2
				c0-0.1,0-0.2,0.1-0.2l0.1-0.2c0.1-0.1,0.2-0.1,0.3,0l0.1,0.2C13.6,5.6,13.7,5.7,13.7,5.8z"/>
			<path class="st5" d="M14.6,5.8v2c0,0.1,0,0.2-0.1,0.2l-0.1,0.2c-0.1,0.1-0.2,0.1-0.3,0L14,8c0,0-0.1-0.1-0.1-0.2v-2
				c0-0.1,0-0.2,0.1-0.2l0.1-0.2c0.1-0.1,0.2-0.1,0.3,0l0.1,0.2C14.5,5.6,14.6,5.7,14.6,5.8z"/>
			<path class="st5" d="M15.5,5.8v2c0,0.1,0,0.2-0.1,0.2l-0.1,0.2c-0.1,0.1-0.2,0.1-0.3,0L14.9,8c0,0-0.1-0.1-0.1-0.2v-2
				c0-0.1,0-0.2,0.1-0.2L15,5.4c0.1-0.1,0.2-0.1,0.3,0l0.1,0.2C15.4,5.6,15.5,5.7,15.5,5.8z"/>
			<g class="st6">
				<path class="st0" d="M11.9,5.7v2c0,0.1,0,0.2-0.1,0.2l-0.1,0.2c-0.1,0.1-0.2,0.1-0.3,0l0-0.1c0.1,0,0.2,0,0.2,0l0.1-0.2
					c0-0.1,0.1-0.1,0.1-0.2v-2c0-0.1,0-0.2-0.1-0.2l-0.1-0.1c0,0,0,0,0,0l0.1,0.2C11.8,5.6,11.9,5.7,11.9,5.7z"/>
				<path class="st0" d="M12.8,5.7v2c0,0.1,0,0.2-0.1,0.2l-0.1,0.2c-0.1,0.1-0.2,0.1-0.3,0l0-0.1c0.1,0,0.2,0,0.2,0l0.1-0.2
					c0-0.1,0.1-0.1,0.1-0.2v-2c0-0.1,0-0.2-0.1-0.2l-0.1-0.1c0,0,0,0,0,0l0.1,0.2C12.7,5.6,12.8,5.7,12.8,5.7z"/>
				<path class="st0" d="M13.7,5.7v2c0,0.1,0,0.2-0.1,0.2l-0.1,0.2c-0.1,0.1-0.2,0.1-0.3,0l0-0.1c0.1,0,0.2,0,0.2,0l0.1-0.2
					c0-0.1,0.1-0.1,0.1-0.2v-2c0-0.1,0-0.2-0.1-0.2l-0.1-0.1c0,0,0,0,0,0l0.1,0.2C13.6,5.6,13.7,5.7,13.7,5.7z"/>
				<path class="st0" d="M14.6,5.7v2c0,0.1,0,0.2-0.1,0.2l-0.1,0.2c-0.1,0.1-0.2,0.1-0.3,0l0-0.1c0.1,0,0.2,0,0.2,0l0.1-0.2
					c0-0.1,0.1-0.1,0.1-0.2v-2c0-0.1,0-0.2-0.1-0.2l-0.1-0.1c0,0,0,0,0,0l0.1,0.2C14.5,5.6,14.6,5.7,14.6,5.7z"/>
				<path class="st0" d="M15.5,5.7v2c0,0.1,0,0.2-0.1,0.2l-0.1,0.2c-0.1,0.1-0.2,0.1-0.3,0l0-0.1c0.1,0,0.2,0,0.2,0l0.1-0.2
					c0-0.1,0.1-0.1,0.1-0.2v-2c0-0.1,0-0.2-0.1-0.2l-0.1-0.1c0,0,0,0,0,0l0.1,0.2C15.4,5.6,15.5,5.7,15.5,5.7z"/>
			</g>
		</g>
	</g>
	<path class="st4" d="M10.7,5.2H7c-0.2,0-0.3,0.1-0.3,0.3v2.6c0,0.2,0.1,0.3,0.3,0.3h3.7c0.2,0,0.3-0.1,0.3-0.3V5.5
		C11,5.3,10.9,5.2,10.7,5.2z M9.3,6.7C9.3,6.7,9.3,6.7,9.3,6.7L8.9,7.2L8.5,6.7c0,0,0,0,0,0c0,0,0-0.1,0-0.2c0-0.1,0.1-0.2,0.2-0.2
		c0.1,0,0.2,0.1,0.2,0.2l0,0c0-0.1,0.1-0.2,0.2-0.2c0.1,0,0.2,0.1,0.2,0.2C9.3,6.6,9.3,6.6,9.3,6.7z"/>
	<path class="st2" d="M11,5.5v2.6c0,0.2-0.1,0.3-0.3,0.3H7c-0.1,0-0.3-0.1-0.3-0.2h3.7c0.2,0,0.3-0.1,0.3-0.3V5.2c0,0,0,0,0-0.1h0
		C10.9,5.2,11,5.3,11,5.5z"/>
	<g>
		<path class="st5" d="M11.8,2.3C11.8,2.3,11.8,2.3,11.8,2.3c0,0.1-0.1,0.2-0.3,0.2H6.4c-0.1,0-0.2,0-0.2-0.1c0,0-0.1-0.1-0.1-0.1
			c0,0,0,0,0,0c0,0,0-0.1,0-0.1c0,0,0,0,0,0l0.3-0.2l0.2-0.1l0.3-0.3l0.2-0.1l0.3-0.3L7.5,1l0.3-0.3L8,0.6l0.3-0.3l0.2-0.1l0.2-0.1
			C8.8,0,9,0,9.2,0.1l0.2,0.1l0.2,0.1l0.3,0.3L10,0.7L10.3,1l0.2,0.1l0.3,0.3l0.2,0.1l0.3,0.3l0.2,0.1l0.3,0.2c0,0,0,0,0,0
			C11.8,2.2,11.8,2.3,11.8,2.3z"/>
		<g>
			<polygon class="st2" points="9.5,0.3 8.4,0.3 8.5,0.2 9.3,0.2 			"/>
			<polygon class="st2" points="10,0.7 7.9,0.7 8,0.6 9.8,0.6 			"/>
			<polygon class="st2" points="10.5,1.1 7.4,1.1 7.5,1 10.3,1 			"/>
			<polygon class="st2" points="10.9,1.5 6.9,1.5 7.1,1.4 10.8,1.4 			"/>
			<polygon class="st2" points="11.4,1.9 6.4,1.9 6.6,1.8 11.3,1.8 			"/>
			<path class="st2" d="M11.8,2.3C11.8,2.3,11.8,2.3,11.8,2.3l-5.7,0c0,0,0,0,0,0c0,0,0-0.1,0-0.1h5.7C11.8,2.2,11.8,2.3,11.8,2.3z"
				/>
		</g>
	</g>
	<g>
		<g>
			<path class="st5" d="M25.1,12.8c0,0-0.5,0.2-1.1,0.2c-0.2,0-0.5,0-0.7-0.1c-1-0.2-2.3-0.8-3.3-2.6C18.4,7.7,16.4,7.9,16,8
				c0,0-0.1,0-0.1,0c-0.1,0-0.2,0-0.3,0V7.1c0,0,0,0,0.1,0c0.1,0,0.2,0,0.3-0.1c1.1-0.2,3.3,0.3,4.7,2.8c1.6,2.9,4,2.1,4.1,2.1
				c0.2-0.1,0.5,0.1,0.6,0.3C25.5,12.5,25.4,12.7,25.1,12.8z"/>
		</g>
		<g class="st7">
			<path class="st0" d="M25.1,12.8c0,0-0.5,0.2-1.1,0.2c-0.2,0-0.5,0-0.7-0.1c-1-0.2-2.3-0.8-3.3-2.6C18.4,7.7,16.4,7.9,16,8
				c0,0-0.1,0-0.1,0c-0.1,0-0.2,0-0.3,0V7.6c0.1,0,0.2,0.1,0.3,0c0,0,0,0,0.1,0c0.4-0.1,2.4-0.3,3.9,2.4c1,1.8,2.4,2.4,3.3,2.6
				c0.3,0,0.5,0.1,0.7,0.1c0.7,0,1.1-0.2,1.1-0.2c0.1,0,0.2-0.1,0.3-0.2c0,0,0,0,0,0.1C25.5,12.5,25.4,12.7,25.1,12.8z"/>
		</g>
	</g>
	<path class="st4" d="M16.1,5.3v7.5c0,0.1-0.1,0.1-0.1,0.1h-0.1c-0.1,0-0.1-0.1-0.1-0.1V5.3c0-0.1,0.1-0.1,0.1-0.1h0.1
		C16,5.2,16.1,5.2,16.1,5.3z"/>
	<g>
		<path class="st5" d="M2.5,4.6C2.5,4.7,2.4,4.7,2.5,4.6l-0.2,0c0,0,0,0,0,0V3.9c0,0,0,0,0,0h0.2c0,0,0,0,0,0V4.6z"/>
		<path class="st8" d="M2.5,3.9L2.5,3.9l-0.1,0c0,0,0,0,0,0v0.7h0c0,0,0,0,0,0V3.9c0,0,0,0,0,0L2.5,3.9C2.4,3.8,2.5,3.9,2.5,3.9z"/>
		<path class="st2" d="M2.5,3.9v0.8c0,0,0,0,0,0H2.3c0,0,0,0,0,0V4.6h0.1c0,0,0,0,0,0L2.5,3.9L2.5,3.9C2.4,3.8,2.5,3.9,2.5,3.9z"/>
	</g>
	<g>
		<path class="st5" d="M4.9,4.6C4.9,4.7,4.9,4.7,4.9,4.6l-0.2,0c0,0,0,0,0,0V3.9c0,0,0,0,0,0h0.2c0,0,0,0,0,0V4.6z"/>
		<path class="st8" d="M4.9,3.9L4.9,3.9l-0.1,0c0,0,0,0,0,0v0.7h0c0,0,0,0,0,0V3.9c0,0,0,0,0,0L4.9,3.9C4.9,3.8,4.9,3.9,4.9,3.9z"/>
		<path class="st2" d="M4.9,3.9v0.8c0,0,0,0,0,0H4.7c0,0,0,0,0,0V4.6h0.1c0,0,0,0,0,0L4.9,3.9L4.9,3.9C4.9,3.8,4.9,3.9,4.9,3.9z"/>
	</g>
</g>
</svg>
