<?xml version="1.0" encoding="utf-8"?>
<!-- Generator: Adobe Illustrator 21.0.0, SVG Export Plug-In . SVG Version: 6.00 Build 0)  -->
<svg version="1.1" id="Layer_7" xmlns="http://www.w3.org/2000/svg" xmlns:xlink="http://www.w3.org/1999/xlink" x="0px" y="0px"
	 viewBox="0 0 235.7 357.9" style="enable-background:new 0 0 235.7 357.9;" xml:space="preserve">
<style type="text/css">
	.st0{fill:#D9852F;}
	.st1{fill:#FFC691;}
	.st2{fill:#C46B22;}
	.st3{fill:#E8924B;}
	.st4{fill:#D9842F;}
	.st5{fill:#FCB077;}
	.st6{fill:#FFD5B6;}
	.st7{fill:#231F20;}
	.st8{fill:#FFFFFF;}
	.st9{fill:#8B0304;}
	.st10{fill:#603913;}
	.st11{fill:#3C2415;}
	.st12{fill:#8E5628;}
	.st13{fill:#B2620B;}
</style>
<g>
	<path class="st0" d="M229.2,174.4C257,196,188,252.4,164,217.9c-8.2-11.9,5.9-7.3,11.5-7.6c8.3-0.5,17.7-3.1,22.3-10.2
		C203.4,191.7,213.3,162,229.2,174.4z"/>
	<path class="st1" d="M223,185.5c10.9,4.1,4.1,20.7-5.7,16.4C207.4,197.6,215.4,182.7,223,185.5z"/>
	<path class="st0" d="M25.9,205.2c-17.8,30.3,67.1,57.2,76.6,16.3c3.3-14.1-8.2-4.6-13.5-2.8c-7.9,2.6-17.6,3.6-24.5-1.2
		C56.3,211.7,36.1,187.8,25.9,205.2z"/>
	<path class="st2" d="M212.9,219c-7.6,2-15.9,2.9-23.6,1c-6.2-1.6-11.5-4.9-15.5-9.7c-6.3-0.4-17.2-3.1-9.7,7.6
		c11.5,16.6,33.3,12.2,49.9,0.8C213.6,218.8,213.2,218.9,212.9,219z"/>
	<path class="st2" d="M89,218.7c-0.5,0.2-1,0.3-1.5,0.5c-3.1,6.5-8,11.8-15,14.9c-8.4,3.7-18,3.9-27.1,3c21.5,9,51.7,7.8,57.2-15.6
		C105.8,207.4,94.3,216.9,89,218.7z"/>
	<path class="st1" d="M35.8,213.2c-8.6,7.8,3.8,20.8,11.4,13.1C54.7,218.7,41.8,207.8,35.8,213.2z"/>
	<path class="st1" d="M29.7,205.9c-2.2,2.6,1.8,8.5,4.4,6.2S31.3,204,29.7,205.9z"/>
	<path class="st1" d="M25.5,213c-1.8,2.5,2.6,6.5,4.3,4.3C31.5,215.2,27.4,210.4,25.5,213z"/>
	<path class="st1" d="M37.6,202.3c-3.6,0.9-0.9,8.1,2.1,7.1C42.7,208.3,41.2,201.4,37.6,202.3z"/>
	<path class="st0" d="M87.3,287c0.9-17.1,23.6-10.6,25.9,10.6c2.3,21.3,15.6,40.4,9.6,48.7c-9.9,13.7-63.3,16.1-64.2,2.2
		c-0.9-13.9,24.5-12,26.9-20.4C87.7,319.9,86.7,297.4,87.3,287z"/>
	<path class="st0" d="M177.8,279.7c-0.5-16.4-25-8.4-27.3,12.9c-2.3,21.3-15.2,45.4-9.2,53.7c9.9,13.7,64.1,13.4,65.1-0.5
		c0.9-13.9-26.7-14.8-29-23.1C175,314.4,178.2,293.6,177.8,279.7z"/>
	<path class="st2" d="M113.2,297.6c-2.3-21.3-25-27.8-25.9-10.6c-0.2,4.4-0.2,11-0.2,17.8c1.6,2.1,3.6,3.9,5.7,5.6
		c3.9,3,8.1,5.7,11.6,9.3c3.4,3.5,5.6,7.5,6.7,12.2c1.7,7.2,1,15.1-4.7,20.5c-1.9,1.8-4.1,3.2-6.4,4.2c10.3-1.8,19.3-5.2,22.9-10.1
		C128.8,338,115.5,318.9,113.2,297.6z"/>
	<path class="st2" d="M149.5,347.5c-4.1-9-1.8-20.1,5.9-26.4c6.7-5.5,16-8.5,21.3-15.6c0.5-8.5,1.3-18.1,1.1-25.7
		c-0.5-16.4-25-8.4-27.3,12.9c-2.3,21.3-15.2,45.4-9.2,53.7c2.3,3.2,7.1,5.7,13,7.3C152.3,351.9,150.6,349.9,149.5,347.5z"/>
	<path class="st0" d="M101.7,207.2c6.1-11.8,55.9-18.4,61.8-8c5.9,10.4,23.9,59,14.1,87.9c-11.1,32.9-79.3,35.4-90.7,5.6
		C75.5,262.7,93.4,223.2,101.7,207.2z"/>
	<path class="st3" d="M171.3,218c2.6,15,5,30.1,3.5,45.3c-1.3,13.9-5.4,29.1-17.2,37.8c-8.8,6.4-19.8,9.3-30.5,10
		c-7.1,0.4-14.2,0-21.2-1.5c24.6,9.4,63.6,1.6,71.8-22.5C184.4,267.1,177.9,237.7,171.3,218z"/>
	<path class="st4" d="M174.3,39.6C171.8,31,178-7.6,204,1.3c31.4,10.7,10.3,46.8,0.4,52.8C198.4,47.3,178.6,40.9,174.3,39.6z"/>
	<path class="st1" d="M180.7,37.8c-1.1-5.6,5.2-29.4,21.1-22.2c19.1,8.7,3.5,30.1-3,33.3C195.4,44.2,183.4,38.9,180.7,37.8z"/>
	<path class="st4" d="M50.5,59.2c-0.3-9-18.4-43.6-40.3-26.8C-16.1,52.5,15.3,80,26.6,82.6C30.1,74.1,46.8,61.8,50.5,59.2z"/>
	<path class="st1" d="M43.9,59.5c-0.7-5.6-14.3-26.2-27-14.4C1.6,59.5,23.1,74.8,30.3,75.7C32,70.2,41.7,61.4,43.9,59.5z"/>
	<path class="st5" d="M204.3,16.9c4,10.6-2.2,21.6-11.5,27c2.5,1.6,4.8,3.3,6,5C205,45.9,219.4,26.3,204.3,16.9z"/>
	<path class="st5" d="M28.4,65.4c-6.8-2.8-14.2-9.5-14.3-17.1c-9.5,13.4,9.5,26.6,16.2,27.5c0.8-2.5,3.1-5.6,5.7-8.5
		C33.4,67,30.8,66.4,28.4,65.4z"/>
	<path class="st0" d="M191.1,39.1c-13.8-10.4-38.5-11.8-64.4-8.4c0-0.8-0.1-1.6-0.1-2.5c-2,0.9-3.9,1.8-5.9,2.8
		c0.1-1.3,0.3-2.6,0.4-4c-2.2,1.3-4.5,2.6-6.9,3.7c0.2-2.5,0.4-4.9,0.6-7.4C110,28.3,104.2,32.2,98,35c0.4-1.9,0.5-3.9,0.2-5.9
		c-3.4,2.4-6.7,4.8-10.1,7.3c-0.2-4.4,0.8-8.8,3-12.6c-9.4,5.3-13.6,12.7-15.8,19.6c-18.7,6.7-33.9,14.9-40.6,22.4
		C4.4,99.8,5.4,156.2,45.9,192.1c45.5,40.4,144.4,18,170.1-27.5C244.6,114.1,225.5,64.9,191.1,39.1z"/>
	<path class="st3" d="M155.4,31.8c9.9,1.9,20.7,3.8,29.2,9c20.2,12.3,33.5,35,41.2,57.6c2.1,6.3,3.5,12.8,4,19.3
		c1.1-32.5-15.2-61.1-38.7-78.7c-12.2-9.1-32.8-11.4-55.3-9.4C137.7,30.3,151.4,31.1,155.4,31.8z"/>
	<path class="st2" d="M214.6,158.5c-8.4,10-17.3,20.3-28.6,27.2c-10.6,6.4-23.1,10.6-35.1,13.3c-24.4,5.6-51.3,5.9-74.8-3.4
		C55.5,187.4,39.2,171,28.5,152c-8.8-15.6-14.5-34.1-12.1-52c-8.1,30.8,0.7,66.6,29.4,92.1c45.5,40.4,144.4,18,170.1-27.5
		c3.6-6.4,6.4-12.7,8.6-19C221.5,150,218.1,154.3,214.6,158.5z"/>
	<path class="st1" d="M74.7,124c14-16.8,71.4-30.7,95.3-18.7c23.7,11.8,34.1,37.4,17.6,68.4c-14.9,28-76,44.1-105.5,21.2
		C55.8,174.5,56.9,145.4,74.7,124z"/>
	<path class="st6" d="M163.8,108.8c11,4.6,21.7,11.7,27,22.7c3.7,7.7,4.6,16,3.6,24.2c5-22.8-5.5-41-24.4-50.4
		c-9.5-4.8-24.3-5.4-39.6-3.4C141.8,102.5,153.2,104.5,163.8,108.8z"/>
	<path class="st1" d="M225.9,176.5c3,1.6,1.5,8.6-1.8,7.4C220.9,182.6,223.7,175.3,225.9,176.5z"/>
	<path class="st1" d="M232.5,181.5c2.6,1.7,0,7-2.4,5.6C227.7,185.8,229.8,179.8,232.5,181.5z"/>
	<path class="st1" d="M217.3,176c3.6-0.5,3.8,7.2,0.7,7.3C214.8,183.5,213.6,176.5,217.3,176z"/>
	<path class="st5" d="M227.7,189.4c0,2.7-0.4,5.6-2,7.6c-1.9,2.3-4.7,3.3-7.6,2.6c-1.7-0.4-3.5-1.2-5-2.3c0.6,1.9,1.9,3.5,4.3,4.6
		C225.1,205.4,230.9,195.7,227.7,189.4z"/>
	<path class="st5" d="M49,218.8c-0.2,2-1,3.9-2.7,5.2c-3.4,2.6-9.4,1.6-12.9-1.3c2.1,5.2,8.9,8.6,13.7,3.7
		C49.5,223.9,49.9,221.2,49,218.8z"/>
	<path class="st5" d="M29.1,208c0.1,2.7,3,6,5,4.1c0.6-0.5,0.7-1.2,0.7-1.9C33.3,211.7,30.5,210,29.1,208z"/>
	<path class="st5" d="M29.6,214.3c-0.6,1.8-2.4,2.3-4,1.7c1,1.6,3.1,2.7,4.2,1.3C30.5,216.5,30.2,215.3,29.6,214.3z"/>
	<path class="st5" d="M36.1,203.6c-0.9,2.3,1.3,6.5,3.6,5.7c0.9-0.3,1.4-1.2,1.5-2.2C38.9,207.2,36.7,206,36.1,203.6z"/>
	<path class="st5" d="M223.1,182.9c0.2,0.4,0.6,0.8,1.1,1c2.5,0.9,4-3.1,3.1-5.6C226.6,180.6,225,183.3,223.1,182.9z"/>
	<path class="st5" d="M232.5,181.6c-0.3,1.9-1.2,4.5-2.6,5.4c0.1,0,0.1,0.1,0.2,0.1C232.4,188.5,235,183.3,232.5,181.6z"/>
	<path class="st5" d="M217.7,176c1,1.6,0.8,4,0.1,5.7c-0.2,0.6-0.6,1.1-1,1.4c0.3,0.2,0.7,0.3,1.1,0.3
		C220.9,183.2,220.9,176.2,217.7,176z"/>
	<path class="st7" d="M85.8,86.4c9.5-3.9,15,13.7,6,17.2C82.8,107,75.6,90.6,85.8,86.4z"/>
	<path class="st8" d="M87.8,89c3.3-2.7,7.3,5.4,3.9,6.7C88.2,96.9,85.4,90.9,87.8,89z"/>
	<path class="st7" d="M145,74.2c10-2.1,12.3,16.2,2.9,18C138.3,94,134.2,76.5,145,74.2z"/>
	<path class="st8" d="M146.4,77.1c3.7-2.1,6.2,6.6,2.6,7.2C145.4,85,143.8,78.6,146.4,77.1z"/>
	<path class="st9" d="M136.3,170.9c-1.4-11.8-2.8-23.7-4.3-35.5c-0.3-2.7-4.6-2.7-4.3,0c1.4,11.7,2.8,23.5,4.2,35.2
		c-0.3,0.6-0.3,1.4,0.3,2c0.6,2.4,3.9,2.2,4.2-0.4C136.5,171.7,136.5,171.3,136.3,170.9z"/>
	<path class="st9" d="M160.1,147.8c-3.1,12.1-12.7,21.4-25,24c-12,2.5-27-3.5-32.7-14.6c-1.3-2.5-5-0.3-3.7,2.2
		c6.5,12.5,22.8,19.1,36.3,16.8c14.2-2.4,25.7-13.3,29.2-27.2C164.9,146.2,160.8,145.1,160.1,147.8z"/>
	<path class="st10" d="M84.6,120.4c-3.4-24.6,75.7-38.2,80.2-10C169.2,138.5,88.5,149.3,84.6,120.4z"/>
	<path class="st11" d="M156.2,123.2c-4.8,2.6-10,4-15.4,4.8c-7,1.1-14.2,1.6-21.3,0.9c-9.4-0.9-18.6-3.9-25.6-10.7
		c-2.4-2.3-4.7-5.5-4.9-9.1c-3.3,3.4-5.1,7.2-4.5,11.3c3.7,26.8,73.2,19.5,79.8-4.1C162.2,119.1,159.4,121.4,156.2,123.2z"/>
	<path class="st12" d="M120.7,102.7c0.7-6.5,33-8.5,33.2,1C154.1,110.1,120.2,107.8,120.7,102.7z"/>
	<path class="st10" d="M87.7,76.5c-5.4-2.3-12,0.5-13.5,6.3c-0.7,2.7,3.4,3.8,4.1,1.1c0.8-2.9,4.3-5,7.2-3.8
		C88.1,81.3,90.3,77.6,87.7,76.5z"/>
	<path class="st10" d="M153.4,66.1c-4.1-4.2-11.5-4.1-15.2,0.5c-1.7,2.1,1.3,5.2,3,3c2.3-2.8,6.6-3.2,9.1-0.5
		C152.3,71.1,155.3,68.1,153.4,66.1z"/>
	<path class="st13" d="M133.1,214.7c-0.1-1.7-2.7-1.7-2.6,0c0.1,1.6,0.2,3.1,0.3,4.7c0.1,1.7,2.7,1.7,2.6,0
		C133.3,217.8,133.2,216.2,133.1,214.7z"/>
	<path class="st13" d="M131.2,226.7v5.4c0,1.7,2.6,1.7,2.6,0v-5.4C133.7,225,131.2,225,131.2,226.7z"/>
	<path class="st13" d="M134.6,246.7c-0.2-2-0.3-4-0.1-6c0.1-1.7-2.5-1.6-2.6,0c-0.1,2-0.1,4,0.1,6
		C132.2,248.3,134.8,248.3,134.6,246.7z"/>
	<path class="st13" d="M134.4,255.3c0.1-1.7-2.5-1.7-2.6,0c-0.1,2.3-0.1,4.6,0.1,6.9c0.1,1.6,2.7,1.7,2.6,0
		C134.3,259.9,134.3,257.6,134.4,255.3z"/>
	<path class="st13" d="M132.2,271.2v6c0,1.7,2.6,1.7,2.6,0v-6C134.8,269.5,132.2,269.5,132.2,271.2z"/>
	<path class="st13" d="M133.1,285.8v7.3c0,1.7,2.6,1.7,2.6,0v-7.3C135.7,284.1,133.1,284.1,133.1,285.8z"/>
	<path class="st13" d="M132.7,300.8v5.6c0,1.7,2.6,1.7,2.6,0v-5.6C135.3,299.1,132.7,299.1,132.7,300.8z"/>
	<path class="st13" d="M110.3,47.9c-0.7-2.3-1.4-4.5-2.1-6.8c-0.5-1.6-3-0.9-2.5,0.7c0.7,2.3,1.4,4.5,2.1,6.8
		C108.3,50.2,110.8,49.5,110.3,47.9z"/>
	<path class="st13" d="M113.7,62.2c-0.7-2.4-1.3-4.7-2-7.1c-0.4-1.6-2.9-0.9-2.5,0.7c0.7,2.4,1.3,4.7,2,7.1
		C111.7,64.5,114.2,63.8,113.7,62.2z"/>
	<path class="st13" d="M117.4,77.1c-0.5-1.9-1.1-3.8-1.6-5.7c-0.5-1.6-2.9-0.9-2.5,0.7c0.5,1.9,1.1,3.8,1.6,5.7
		C115.4,79.4,117.9,78.8,117.4,77.1z"/>
	<path class="st13" d="M120.9,91.2c-0.6-1.8-1.1-3.6-1.7-5.4c-0.5-1.6-3-0.9-2.5,0.7c0.6,1.8,1.1,3.6,1.7,5.4
		C118.9,93.4,121.4,92.7,120.9,91.2z"/>
</g>
</svg>
