<?xml version="1.0" encoding="utf-8"?>
<!-- Generator: Adobe Illustrator 21.0.0, SVG Export Plug-In . SVG Version: 6.00 Build 0)  -->
<svg version="1.1" id="Isolation_Mode" xmlns="http://www.w3.org/2000/svg" xmlns:xlink="http://www.w3.org/1999/xlink" x="0px"
	 y="0px" viewBox="0 0 12.4 18" style="enable-background:new 0 0 12.4 18;" xml:space="preserve">
<style type="text/css">
	.st0{fill:#92B525;}
	.st1{fill:#7B9A22;}
	.st2{fill:#CDDB4B;}
	.st3{fill:#8F6755;}
	.st4{fill:#4A382C;}
	.st5{opacity:0.39;fill:#CDDB4B;}
</style>
<g>
	<path class="st0" d="M11.2,5.3c0,2.3-2.5,3.5-4.8,3.5c-1,0-1.9-0.3-2.6-0.9c0,0,0,0,0,0C3.6,7.7,3.5,7.6,3.4,7.5
		C2.9,7,2.5,6.4,2.3,5.7c0,0,0-0.1,0-0.1c0,0,0-0.1,0-0.1c0,0,0,0,0,0c0,0,0-0.1,0-0.1c0,0,0-0.1,0-0.1c0,0,0,0,0,0c0,0,0-0.1,0-0.1
		c0,0,0-0.1,0-0.1c0,0,0,0,0,0c0,0,0-0.1,0-0.1c0,0,0,0,0,0c0,0,0-0.1,0-0.1c0-0.1,0-0.1,0-0.2c0,0,0-0.1,0-0.1c0,0,0,0,0,0
		c0.1-2.1,2.2-4,4.3-4.2c0.1,0,0.1,0,0.2,0c0,0,0,0,0,0c0,0,0.1,0,0.1,0c0,0,0.1,0,0.1,0c0,0,0.1,0,0.1,0C8,0.1,9,0.6,9.8,1.5
		c0.7,0.7,1.1,2.1,1.3,3c0,0,0,0.1,0,0.1c0,0.1,0,0.3,0.1,0.4C11.2,5,11.2,5.2,11.2,5.3z"/>
	<g>
		<circle class="st0" cx="8.8" cy="7.4" r="3.6"/>
		<path class="st1" d="M12.4,7.4c0,2-1.6,3.6-3.6,3.6c-1.4,0-2.6-0.8-3.2-1.9c0.6,0.6,1.5,1,2.4,1c2,0,3.6-1.6,3.6-3.6
			c0-0.6-0.1-1.2-0.4-1.7C11.9,5.4,12.4,6.3,12.4,7.4z"/>
	</g>
	<path class="st2" d="M9.8,1.5c-0.6-0.3-1.3-0.5-2-0.5C6,0.9,4.1,2.3,3.5,3.9C3.4,4.3,3.3,4.7,3.2,5.1C2.9,5.2,2.6,5.4,2.3,5.7
		c0,0,0-0.1,0-0.1c0,0,0-0.1,0-0.1c0,0,0,0,0,0c0,0,0-0.1,0-0.1c0,0,0-0.1,0-0.1c0,0,0,0,0,0c0,0,0-0.1,0-0.1c0,0,0-0.1,0-0.1
		c0,0,0,0,0,0c0,0,0-0.1,0-0.1c0,0,0,0,0,0c0,0,0-0.1,0-0.1c0-0.1,0-0.1,0-0.2c0,0,0-0.1,0-0.1c0,0,0,0,0,0c0.1-2.1,2.2-4,4.3-4.2
		c0.1,0,0.1,0,0.2,0c0,0,0,0,0,0c0,0,0.1,0,0.1,0c0,0,0.1,0,0.1,0c0,0,0.1,0,0.1,0C8,0.1,9,0.6,9.8,1.5z"/>
	<path class="st0" d="M7,7.2c0,1.8-1.5,3.3-3.3,3.3c-0.7,0-1.5-0.2-2.1-0.6c0,0-0.1,0-0.1-0.1h0C0.6,9.2,0,8.3,0,7.2
		c0-0.5,0.1-1,0.4-1.4c0,0,0,0,0,0C1,4.7,2.2,3.9,3.5,3.9c0,0,0,0,0.1,0c0,0,0,0,0.1,0h0c0,0,0,0,0.1,0c0,0,0.1,0,0.1,0
		c1,0.1,2,0.6,2.5,1.4c0,0,0,0.1,0.1,0.1C6.8,5.9,7,6.5,7,7.2z"/>
	<path class="st2" d="M6.3,5.3C5.8,5,5.2,4.8,4.6,4.8c-0.5,0-1,0.1-1.4,0.3C2.8,5.2,2.5,5.4,2.3,5.7C1.6,6.3,1.1,7.2,1.1,8.2
		c0,0.6,0.1,1.1,0.4,1.6C0.6,9.2,0,8.3,0,7.2c0-0.5,0.1-1,0.4-1.4c0,0,0,0,0,0C1,4.7,2.2,3.9,3.5,3.9c0,0,0,0,0.1,0c0,0,0,0,0.1,0h0
		c0,0,0,0,0.1,0c0,0,0.1,0,0.1,0C4.9,3.9,5.8,4.5,6.3,5.3z"/>
	<path class="st1" d="M5.2,10.2c-0.1,0-0.1,0.1-0.2,0.1c-0.4,0.2-0.9,0.3-1.3,0.3c-0.5,0-0.9-0.1-1.3-0.3c0.2,0,0.4,0.1,0.7,0.1
		c0.6,0,1.1-0.1,1.6-0.4c0,0,0,0,0,0C4.8,10,5,10.1,5.2,10.2z"/>
	<g>
		<path class="st3" d="M5.4,11.9c0,0-0.9-1.3-1.3-2.2C3.7,8.7,3.6,8.2,3.6,8.2l0.1-0.2c0,0,0.5,1.5,0.9,2.1c0.4,0.6,0.5,0.6,0.8,0.7
			L5.4,11.9z"/>
		<g>
			<polygon class="st4" points="5.8,9 5.8,18 5.3,18 5.4,9.2 5.5,9.2 			"/>
			<polygon class="st3" points="5.5,9.2 5.4,18 5.3,18 5.4,9.2 			"/>
		</g>
		<path class="st4" d="M5.8,12.2c0,0,0.9-0.9,1.3-1.4c0.4-0.6,0.5-0.9,0.5-0.9L7.5,9.7c0,0-0.5,1-0.9,1.3c-0.4,0.4-0.5,0.4-0.8,0.4
			L5.8,12.2z"/>
	</g>
	<g>
		<path class="st0" d="M11.1,2.5c0,0-0.1-0.2-0.3-0.2c-0.2,0-0.3,0.2-0.3,0.2v0c0,0,0.1,0.2,0.3,0.2C10.9,2.6,11,2.5,11.1,2.5
			L11.1,2.5z"/>
		<path class="st2" d="M10.9,2c0,0-0.2,0-0.4,0.1c-0.2,0.2-0.1,0.3-0.1,0.4l0,0c0,0,0.2,0.1,0.4-0.1C10.9,2.2,10.9,2,10.9,2L10.9,2z
			"/>
	</g>
	<g>
		<path class="st1" d="M10.7,8.3c0,0-0.1,0.3,0.1,0.5c0.2,0.2,0.4,0.1,0.4,0.1l0,0c0,0,0.1-0.2-0.1-0.4C11,8.2,10.8,8.3,10.7,8.3
			L10.7,8.3z"/>
		<path class="st2" d="M10.4,8.9c0,0,0.1,0.2,0.4,0.2c0.3,0,0.4-0.2,0.4-0.2v0c0,0-0.1-0.2-0.4-0.2C10.6,8.6,10.5,8.8,10.4,8.9
			L10.4,8.9z"/>
	</g>
	<g>
		<path class="st1" d="M6.9,1.9c0,0-0.2,0.1-0.1,0.3c0,0.2,0.2,0.3,0.2,0.3l0,0c0,0,0.2-0.1,0.1-0.3C7,2,6.9,1.9,6.9,1.9L6.9,1.9z"
			/>
		<path class="st2" d="M6.4,2.1c0,0,0,0.2,0.2,0.3c0.2,0.1,0.3,0.1,0.3,0l0,0c0,0,0-0.2-0.1-0.3C6.6,2.1,6.4,2.1,6.4,2.1L6.4,2.1z"
			/>
	</g>
	<g>
		<path class="st0" d="M1.6,3.8c0,0-0.2,0.1-0.2,0.4c0,0.3,0.2,0.4,0.2,0.4h0c0,0,0.2-0.1,0.2-0.4C1.8,4,1.6,3.8,1.6,3.8L1.6,3.8z"
			/>
		<path class="st2" d="M0.9,4c0,0-0.1,0.3,0.1,0.5c0.2,0.2,0.4,0.1,0.5,0.1l0,0c0,0,0.1-0.3-0.1-0.5C1.2,4,1,4,0.9,4L0.9,4z"/>
	</g>
	<path class="st5" d="M4.5,7.4C4.3,7.3,4.1,7.2,3.9,7.3c-0.2,0-0.3,0.1-0.4,0.2C3.4,7.6,3.4,7.7,3.3,7.9C3.2,8.2,3.1,8.6,3.3,9
		c0.1,0.2,0.2,0.5,0.3,0.6c-0.3-0.2-0.6-0.5-0.8-1c-0.1-0.2-0.1-0.4,0-0.6c0,0,0,0,0,0C2.8,7.6,3.1,7.1,3.5,7c0,0,0,0,0,0
		c0,0,0,0,0,0l0,0c0,0,0,0,0,0c0,0,0,0,0,0C3.9,6.9,4.3,7.1,4.5,7.4z"/>
	<path class="st5" d="M8.8,4.2C8.7,4,8.6,4,8.4,3.9c-0.1,0-0.3,0-0.4,0C7.9,4,7.8,4,7.7,4.1C7.4,4.2,7.3,4.4,7.2,4.7
		c0,0.2,0,0.3,0,0.5C7,5,6.9,4.7,7,4.4C7,4.2,7.1,4.1,7.1,4c0,0,0,0,0,0c0.2-0.3,0.6-0.4,1-0.4c0,0,0,0,0,0c0,0,0,0,0,0l0,0
		c0,0,0,0,0,0c0,0,0,0,0,0C8.5,3.7,8.7,3.9,8.8,4.2z"/>
</g>
</svg>
