<?xml version="1.0" encoding="utf-8"?>
<!-- Generator: Adobe Illustrator 21.0.0, SVG Export Plug-In . SVG Version: 6.00 Build 0)  -->
<svg version="1.1" id="Layer_1" xmlns="http://www.w3.org/2000/svg" xmlns:xlink="http://www.w3.org/1999/xlink" x="0px" y="0px"
	 viewBox="0 0 92.1 91.8" style="enable-background:new 0 0 92.1 91.8;" xml:space="preserve">
<style type="text/css">
	.st0{fill:#005E7F;}
	.st1{fill:#0082A5;}
	.st2{fill:#02A1BC;}
	.st3{opacity:0.29;fill:#005063;}
	.st4{fill:#0A9AC1;}
	.st5{fill:#0F222D;}
	.st6{fill:#D8D8D8;}
	.st7{fill:#FFFFFF;}
	.st8{fill:#132B35;}
</style>
<path id="XMLID_26_" class="st0" d="M53.6,60.3c0,0,4.6,14.3,3.1,13.5c-1.5-0.8-5.6-12.5-5.6-12.5L53.6,60.3z"/>
<ellipse id="XMLID_36_" transform="matrix(0.9804 -0.1969 0.1969 0.9804 -13.5507 12.7298)" class="st1" cx="57.3" cy="74.5" rx="3.4" ry="2.2"/>
<path id="XMLID_28_" class="st0" d="M28.1,44.4c0,0-17.3-0.7-16.1,1.2c1.2,1.8,16.3,1,16.3,1L28.1,44.4z"/>
<ellipse id="XMLID_39_" class="st1" cx="11.2" cy="45.5" rx="1.9" ry="3.4"/>
<path id="XMLID_24_" class="st0" d="M57.8,31.3c0,0,9.8-11.3,7.8-11.6c-1.9-0.3-9.8,10-9.8,10L57.8,31.3z"/>
<path id="XMLID_27_" class="st0" d="M43.4,61.5c0,0-8.1,29.7-9.4,26.7c-1.3-3,6.3-27.6,6.3-27.6L43.4,61.5z"/>
<ellipse id="XMLID_32_" transform="matrix(0.5277 -0.8494 0.8494 0.5277 14.7481 65.4895)" class="st1" cx="66.3" cy="19.5" rx="2" ry="3.1"/>
<path id="XMLID_25_" class="st0" d="M63.1,42.8c0,0,12.3,0.1,12.1,1.1c-0.2,1-12.1,1.6-12.1,1.6V42.8z"/>
<ellipse id="XMLID_34_" class="st1" cx="75.2" cy="43.6" rx="2" ry="3.1"/>
<path id="XMLID_830_" class="st1" d="M63.6,44.4c0,9.8-7.9,17.7-17.7,17.7c-3.6,0-7-1.1-9.8-3c-4.8-3.2-7.9-8.6-7.9-14.8
	c0-3.6,1.1-6.9,2.9-9.7c0,0,0,0,0,0c0,0,0,0,0,0c1.5-2.3,3.6-4.2,6-5.6c2.4-1.4,5.2-2.2,8.1-2.4c0.2,0,0.5,0,0.8,0c0.3,0,0.7,0,1,0
	c0.1,0,0.2,0,0.3,0c0.7,0.1,1.5,0.2,2.2,0.3c1.6,0.3,3.2,0.9,4.6,1.6c2,1,3.8,2.5,5.3,4.2C61.9,35.9,63.6,39.9,63.6,44.4z"/>
<path id="XMLID_840_" class="st2" d="M57.3,41.8c0,2.7-0.6,5.2-1.7,7.5c-0.3,0.6-0.6,1.2-1,1.8c-3.1,5-8.7,8.4-15.1,8.4
	c-0.3,0-0.7,0-1,0c-0.7,0-1.3-0.1-2-0.2c-0.2,0-0.4-0.1-0.5-0.1c-4.8-3.2-7.9-8.6-7.9-14.8c0-3.6,1.1-6.9,2.9-9.7c0,0,0,0,0,0
	c0,0,0,0,0,0c1.5-2.3,3.6-4.2,6-5.6c2.4-1.4,5.2-2.2,8.1-2.4c0.2,0,0.5,0,0.8,0c0.3,0,0.7,0,1,0c0.1,0,0.2,0,0.3,0
	c0.7,0.1,1.5,0.2,2.2,0.3c1.4,0.9,2.6,2,3.6,3.2c0.4,0.5,0.8,1,1.2,1.5c1,1.5,1.9,3.1,2.4,4.9C57,38.2,57.3,40,57.3,41.8z"/>
<path id="XMLID_19_" class="st0" d="M59.8,51c1.5,0.5,29.4,23.7,26.6,24.2c-2,0.4-19.8-13.8-27-20.9C56.6,51.6,58.3,50.6,59.8,51z"
	/>
<path id="XMLID_13_" class="st0" d="M40.7,27.4c0,0-4.3-22.9-2.8-21.6c1.5,1.3,5.1,21,5.1,21L40.7,27.4z"/>
<path id="XMLID_60_" class="st3" d="M56.5,36.6c0,0-1.6-2.2-3.1-3.7c-1.5-1.5-6.4-3-6.4-3s-0.1-0.8,1.9-0.8c1.5,0,3.9,1.7,5.2,2.6
	C55.2,33.2,56,34.8,56.5,36.6z"/>
<path id="XMLID_828_" class="st3" d="M38.5,59.5c-0.7,0-1.3-0.1-2-0.2c-0.2-0.3-0.4-0.6-0.5-0.9c-0.6-1.1-1.4-3-1.4-3
	s1.3-2.3,1.4-1.8C36.1,53.9,38,58.3,38.5,59.5z"/>
<path id="XMLID_7_" class="st1" d="M47.7,30.1c3-0.6,13-25.3,11.2-25c-1.3,0.2-8.3,14.3-11.2,21.6C46.8,28.8,46.4,30.3,47.7,30.1z"
	/>
<path id="XMLID_22_" class="st1" d="M35.4,52.7C31.7,51.3,1.9,73.6,4.1,74.4c1.6,0.6,20-11.1,28.8-17.6C35.4,54.9,37,53.3,35.4,52.7
	z"/>
<path id="XMLID_23_" class="st0" d="M61.2,35.5c0,0,27-10.7,27.2-8.9c0.1,1.8-25.9,11.5-25.9,11.5L61.2,35.5z"/>
<path id="XMLID_29_" class="st0" d="M30.3,35.8c0,0-24-12.7-23.9-10.3c0.1,2.4,22.8,12.6,22.8,12.6L30.3,35.8z"/>
<path id="XMLID_831_" class="st4" d="M20.4,4.9c-0.1,1.5-1.6,3.3-3.8,4.6c-2.3,1.3-4.6,1.6-6,0.9c-0.4-0.2-0.6-0.4-0.8-0.7
	C8.9,8,10.5,5.4,13.4,3.8c2.9-1.6,5.9-1.7,6.8-0.1C20.4,4,20.4,4.4,20.4,4.9z"/>
<ellipse id="XMLID_30_" transform="matrix(0.9881 -0.1537 0.1537 0.9881 -0.3232 5.8711)" class="st1" cx="37.8" cy="5" rx="3.9" ry="2.2"/>
<path id="XMLID_832_" class="st4" d="M65.2,7.2c-1,2.3-4.3,3-7.5,1.7c-1.3-0.5-2.4-1.4-3.1-2.3c-1.1-1.4-1.5-2.9-0.9-4.3
	c1-2.3,4.3-3,7.5-1.7c2.2,0.9,3.7,2.6,4.2,4.2C65.6,5.7,65.5,6.5,65.2,7.2z"/>
<path id="XMLID_826_" class="st1" d="M20.4,4.9c-0.1,1.5-1.6,3.3-3.8,4.6c-2.3,1.3-4.6,1.6-6,0.9c0.1-1.5,1.6-3.3,3.8-4.6
	C16.7,4.5,19,4.2,20.4,4.9z"/>
<path id="XMLID_829_" class="st1" d="M65.2,7.2c-1,2.3-4.3,3-7.5,1.7c-1.3-0.5-2.4-1.4-3.1-2.3c-0.2-0.8-0.2-1.6,0.1-2.3
	c1-2.3,4.3-3,7.5-1.7c1.3,0.5,2.4,1.4,3.1,2.3C65.6,5.7,65.5,6.5,65.2,7.2z"/>
<path id="XMLID_836_" class="st1" d="M92.1,27.4c0,2.1-1,3.8-2.7,4.4c-2.3,0.8-5-1-6.1-4c-0.1-0.2-0.1-0.4-0.2-0.6
	c-0.8-2.9,0.2-5.6,2.4-6.4c2.3-0.8,5,1,6.1,4C92,25.7,92.1,26.6,92.1,27.4z"/>
<path id="XMLID_833_" class="st2" d="M90.8,71.7c0.1,1.7-0.8,3.7-2.3,5.3c-2.4,2.5-5.6,3.3-7.5,1.9c-0.1-0.1-0.2-0.2-0.3-0.2
	c-1.8-1.7-1.2-5.2,1.3-7.8c2.5-2.6,6-3.3,7.8-1.6C90.4,69.8,90.8,70.7,90.8,71.7z"/>
<path id="XMLID_835_" class="st1" d="M40.3,89.1c-0.1,0.2-0.1,0.4-0.2,0.6c-1,1.8-4,2.6-7.2,1.7c-2.5-0.6-4.4-2-5.1-3.6
	c-0.3-0.7-0.5-1.4-0.3-2.1c0.6-2.2,3.9-3.3,7.5-2.4C38.5,84.3,40.9,86.8,40.3,89.1z"/>
<path id="XMLID_85_" class="st0" d="M40.1,89.7c-1,1.8-4,2.6-7.2,1.7c-2.5-0.6-4.4-2-5.1-3.6c1-1.8,4-2.6,7.2-1.7
	C37.4,86.8,39.3,88.2,40.1,89.7z"/>
<path id="XMLID_834_" class="st2" d="M7.9,78.2c-2.1,1.1-4.7,0.1-6.4-2.1C1.2,75.7,1,75.4,0.8,75c-1.5-3-0.9-6.4,1.5-7.6
	c2.4-1.2,5.5,0.2,7.1,3.2c0.3,0.6,0.5,1.1,0.6,1.7C10.6,74.8,9.8,77.2,7.9,78.2z"/>
<path id="XMLID_258_" class="st1" d="M90.8,71.7c0.1,1.7-0.8,3.7-2.3,5.3c-2.4,2.5-5.6,3.3-7.5,1.9c-0.1-1.7,0.8-3.7,2.3-5.3
	C85.7,71.1,88.9,70.4,90.8,71.7z"/>
<path id="XMLID_827_" class="st1" d="M7.9,78.2c-2.1,1.1-4.7,0.1-6.4-2.1c-0.6-2.5,0.2-4.9,2.1-5.9c2.1-1.1,4.7-0.1,6.4,2.1
	C10.6,74.8,9.8,77.2,7.9,78.2z"/>
<path id="XMLID_837_" class="st1" d="M10.4,24.2c0,0.7-0.2,1.4-0.4,2.2c-0.9,2.7-2.9,4.4-4.5,3.8C4.8,30,4.3,29.4,4,28.6
	c-0.4-1.1-0.4-2.6,0.1-4.2C5,21.8,7,20.1,8.6,20.6C9.8,21,10.4,22.4,10.4,24.2z"/>
<path id="XMLID_58_" class="st0" d="M92.1,27.4c0,2.1-1,3.8-2.7,4.4c-2.3,0.8-5-1-6.1-4c-0.1-0.2-0.1-0.4-0.2-0.6
	c0-2.1,1-3.8,2.7-4.4c2.3-0.8,5,1,6.1,4C92,27,92.1,27.2,92.1,27.4z"/>
<path id="XMLID_430_" class="st0" d="M10.4,24.2c0,0.7-0.2,1.4-0.4,2.2c-0.9,2.7-2.9,4.4-4.5,3.8C4.8,30,4.3,29.4,4,28.6
	c0-0.7,0.2-1.4,0.4-2.2c0.9-2.7,2.9-4.4,4.5-3.8C9.6,22.8,10.1,23.4,10.4,24.2z"/>
<path id="XMLID_35_" class="st1" d="M43.7,42c0,1.9-1.5,3.5-3.5,3.5c-0.7,0-1.3-0.2-1.9-0.5c-1-0.6-1.6-1.7-1.6-2.9
	c0-1.9,1.5-3.5,3.5-3.5c0.3,0,0.6,0,0.8,0.1C42.6,39,43.7,40.4,43.7,42z"/>
<path id="XMLID_33_" class="st1" d="M49.7,35.8c0,1.8-1.4,3.2-3.2,3.2c-0.7,0-1.3-0.2-1.8-0.5c-0.9-0.6-1.4-1.6-1.4-2.7
	c0-1.8,1.4-3.2,3.2-3.2c0.3,0,0.5,0,0.7,0.1C48.6,33,49.7,34.3,49.7,35.8z"/>
<path id="XMLID_31_" class="st1" d="M58.1,40.4c0,2-1.7,3.7-3.7,3.7c-0.7,0-1.4-0.2-1.9-0.6c-1.1-0.6-1.8-1.8-1.8-3.2
	c0-2,1.7-3.7,3.7-3.7c0.3,0,0.6,0,0.9,0.1C56.9,37.2,58.1,38.7,58.1,40.4z"/>
<path id="XMLID_848_" class="st5" d="M54.6,47.4c0,0,0,0.6-0.2,1.5c0,0.2-0.1,0.5-0.2,0.8c-0.1,0.4-0.3,0.8-0.4,1.2
	c-0.9,2-2.5,4.1-5.9,4.1c-3.9,0-5.8-2.5-6.7-4.4c-0.5-1.2-0.7-2.1-0.7-2.1l5.5-0.4l5-0.4L54.6,47.4z"/>
<path id="XMLID_843_" class="st6" d="M43,41.2c0,1.9-1.5,3.5-3.5,3.5c-0.7,0-1.3-0.2-1.9-0.5c-1-0.6-1.6-1.7-1.6-2.9
	c0-1.9,1.5-3.5,3.5-3.5c0.3,0,0.6,0,0.8,0.1C41.9,38.2,43,39.6,43,41.2z"/>
<path id="XMLID_842_" class="st6" d="M48.9,35c0,1.8-1.4,3.2-3.2,3.2c-0.7,0-1.3-0.2-1.8-0.5c-0.9-0.6-1.4-1.6-1.4-2.7
	c0-1.8,1.4-3.2,3.2-3.2c0.3,0,0.5,0,0.7,0.1C47.9,32.2,48.9,33.4,48.9,35z"/>
<path id="XMLID_839_" class="st6" d="M57.4,39.6c0,2-1.7,3.7-3.7,3.7c-0.7,0-1.4-0.2-1.9-0.6c-1.1-0.6-1.8-1.8-1.8-3.2
	c0-2,1.7-3.7,3.7-3.7c0.3,0,0.6,0,0.9,0.1C56.2,36.4,57.4,37.8,57.4,39.6z"/>
<path id="XMLID_841_" class="st7" d="M42,40.8c0,1.9-1.5,3.5-3.5,3.5c-0.3,0-0.6,0-0.8-0.1c-1-0.6-1.6-1.7-1.6-2.9
	c0-1.9,1.5-3.5,3.5-3.5c0.3,0,0.6,0,0.8,0.1C41.3,38.5,42,39.6,42,40.8z"/>
<path id="XMLID_838_" class="st7" d="M47.9,34.5c0,1.8-1.4,3.2-3.2,3.2c-0.3,0-0.5,0-0.7-0.1c-0.9-0.6-1.4-1.6-1.4-2.7
	c0-1.8,1.4-3.2,3.2-3.2c0.3,0,0.5,0,0.7,0.1C47.3,32.4,47.9,33.4,47.9,34.5z"/>
<path id="XMLID_41_" class="st7" d="M56.4,39.1c0,2.1-1.7,3.7-3.7,3.7c-0.3,0-0.6,0-0.9-0.1c-1.1-0.6-1.8-1.8-1.8-3.2
	c0-2,1.7-3.7,3.7-3.7c0.3,0,0.6,0,0.9,0.1C55.7,36.6,56.4,37.8,56.4,39.1z"/>
<path id="XMLID_844_" class="st3" d="M50.8,47.7l-5,0.4C38.5,44.5,35,34.1,35,34.1l1.9-1c0,0,3.3,6.5,6.6,10.2
	C45.1,45.1,48.2,46.6,50.8,47.7z"/>
<path id="XMLID_442_" class="st3" d="M55.6,49.3c-0.3,0.6-0.6,1.2-1,1.8c-0.2,0-0.6-0.1-0.9-0.2c0.2-0.4,0.3-0.8,0.4-1.2
	c0.1-0.3,0.1-0.5,0.2-0.8C54.9,49.1,55.4,49.2,55.6,49.3z"/>
<path id="XMLID_10_" class="st1" d="M35,34.1C33.7,33.4,12.6,6.9,15.2,6.9c1.9,0,15.5,16.3,20.7,24.2C38,34.1,36.3,34.8,35,34.1z"/>
<circle id="XMLID_172_" class="st8" cx="39.5" cy="41.2" r="1"/>
<circle id="XMLID_175_" class="st8" cx="53.9" cy="39.6" r="1"/>
<circle id="XMLID_176_" class="st8" cx="45.8" cy="35" r="1"/>
<polygon id="XMLID_850_" class="st6" points="45,50.4 44.4,50.4 42.6,50.5 42.5,48.3 44.3,48.2 44.9,48.1 "/>
<polygon id="XMLID_849_" class="st6" points="50.3,50 49.7,50 47.8,50.2 47.6,47.9 49.6,47.8 50.2,47.7 "/>
<path id="XMLID_846_" class="st6" d="M54.6,47.4c0,0,0,1-0.4,2.3l-0.6,0l-0.5,0l-0.1-2.2l1-0.1L54.6,47.4z"/>
<polygon id="XMLID_847_" class="st7" points="44.4,50.4 42.6,50.5 42.5,48.3 44.3,48.2 "/>
<polygon id="XMLID_845_" class="st7" points="49.7,50 47.8,50.2 47.6,47.9 49.6,47.8 "/>
<path id="XMLID_516_" class="st7" d="M53.9,47.5c0,0.5-0.1,1.3-0.4,2.3l-0.5,0l-0.1-2.2L53.9,47.5z"/>
</svg>
