<?xml version="1.0" encoding="utf-8"?>
<!-- Generator: Adobe Illustrator 21.0.0, SVG Export Plug-In . SVG Version: 6.00 Build 0)  -->
<svg version="1.1" id="Layer_1" xmlns="http://www.w3.org/2000/svg" xmlns:xlink="http://www.w3.org/1999/xlink" x="0px" y="0px"
	 viewBox="0 0 89 83.7" style="enable-background:new 0 0 89 83.7;" xml:space="preserve">
<style type="text/css">
	.st0{fill:#7EBF0E;}
	.st1{fill:#A1D819;}
	.st2{opacity:0.41;fill:#579B08;}
	.st3{fill:#579B08;}
	.st4{fill:#2D3314;}
	.st5{fill:#D8D8D8;}
	.st6{fill:#FFFFFF;}
	.st7{fill:#CC3323;}
	.st8{fill:#438206;}
	.st9{fill:#303A1D;}
</style>
<path id="XMLID_689_" class="st0" d="M67.3,48.9c-2.4,14.4-16,24.1-30.4,21.7c-4.2-0.7-8.1-2.4-11.3-4.8c0,0,0,0,0,0
	c-7.8-5.7-12.1-15.5-10.4-25.6c2.4-14.4,16-24.1,30.4-21.7c1.3,0.2,2.7,0.5,3.9,1c0,0,0,0,0,0C61.8,23.5,69.5,35.9,67.3,48.9z"/>
<path id="XMLID_679_" class="st1" d="M60,45.1c-2.4,14.4-16,24.1-30.4,21.7c-1.3-0.2-2.7-0.5-3.9-1c0,0,0,0,0,0
	c-7.8-5.7-12.1-15.5-10.4-25.6c2.4-14.4,16-24.1,30.4-21.7c1.3,0.2,2.7,0.5,3.9,1c0,0,0,0,0,0C57.3,25.2,61.7,35,60,45.1z"/>
<path id="XMLID_466_" class="st0" d="M29.9,29.3l15.5,7.3c0,0-3,8-10,5.7C28.4,39.9,29.9,29.3,29.9,29.3z"/>
<path id="XMLID_463_" class="st0" d="M46.1,36.5l15.3-3.8c0,0,0.2,11-6.3,11.3C48.6,44.4,46.1,36.5,46.1,36.5z"/>
<path id="XMLID_141_" class="st2" d="M26.5,33.5l0.8,10.1l-2.2-7.6c0,0,0.9-0.5,1.3-1.3C26.8,33.8,26.5,33.5,26.5,33.5z"/>
<path id="XMLID_143_" class="st3" d="M28.9,28.2l15.5,7.3c0,0-3,8-10,5.7C27.5,38.8,28.9,28.2,28.9,28.2z"/>
<path id="XMLID_1015_" class="st4" d="M52.7,55.3c-1.5,1.7-3.9,2.5-7,1.3c-0.1,0-0.1-0.1-0.2-0.1h0c-0.3-0.1-0.6-0.3-0.9-0.4
	c-0.3-0.2-0.6-0.3-1-0.5c-0.2-0.1-0.5-0.2-0.7-0.3c-1.6-0.6-3.1-0.9-4.5-1c0,0-0.1,0-0.1,0c-0.8,0-1.6,0-2.3,0c-0.2,0-0.4,0-0.5,0
	c-2.8,0.2-4.8,0.8-5.8-0.3c-1.5-1.6-3.3-7.2,2.9-6.9l0.3,0c0.6,0,1.3,0.1,2.1,0.3c0.2,0,0.4,0.1,0.6,0.1c1.3,0.3,2.8,0.8,4.5,1.5
	c0.1,0,0.2,0.1,0.3,0.1h0c0.7,0.2,1.5,0.2,2.4,0.1c0.1,0,0.2,0,0.3,0c1.4-0.2,2.9-0.8,4.3-1.3c0.1,0,0.2-0.1,0.3-0.1
	c0.8-0.3,1.5-0.5,2.2-0.6c0.2,0,0.3-0.1,0.5-0.1c1.5-0.3,2.8-0.1,3.5,1.3C54.8,50.6,54.4,53.5,52.7,55.3z"/>
<path id="XMLID_700_" class="st5" d="M43,35.9c0,0-2.2,6.3-8.3,4.3c-0.9-0.3-1.7-0.8-2.3-1.3c-3.5-3.1-2.7-9.3-2.7-9.3l6.4,3l2.1,1
	L41,35L43,35.9z"/>
<path id="XMLID_696_" class="st6" d="M41,35c-0.5,1.1-2.8,5.9-8.2,4.1c-0.1-0.1-0.3-0.1-0.4-0.2c-3.5-3.1-2.7-9.3-2.7-9.3l6.4,3
	l2.1,1L41,35z"/>
<path id="XMLID_231_" class="st2" d="M25.2,49.9l4.1,12.5L24.8,52C24.8,52,25.4,50.5,25.2,49.9C24.9,49.3,25.2,49.9,25.2,49.9z"/>
<path id="XMLID_142_" class="st3" d="M45.1,35.4l15.3-3.8c0,0,0.2,11-6.3,11.3C47.6,43.3,45.1,35.4,45.1,35.4z"/>
<path id="XMLID_688_" class="st2" d="M31.9,59.4l4.2,8.5l-1.2-7c0,0-0.3-1.5-1.3-1.9C32.7,58.5,31.9,59.4,31.9,59.4z"/>
<path id="XMLID_699_" class="st5" d="M54.1,42.1c-0.9,0-1.7-0.1-2.4-0.3c-3.7-1.3-5.1-5.7-5.1-5.7l11-2.6l2-0.5
	C59.6,32.9,59.6,41.8,54.1,42.1z"/>
<path id="XMLID_697_" class="st6" d="M52.1,41.7c-0.1,0-0.3,0-0.4,0c-3.7-1.3-5.1-5.7-5.1-5.7l11-2.6C57.4,35.6,56.5,41.5,52.1,41.7
	z"/>
<path id="XMLID_720_" class="st5" d="M34.9,47.6l-0.3,1.6c-0.1,0.7-0.7,1.2-1.3,1.1c-0.2,0-0.4-0.2-0.6-0.3
	c-0.2-0.3-0.3-0.7-0.3-1.1l0.3-1.5c0.4,0,0.9,0.1,1.4,0.2C34.5,47.5,34.7,47.5,34.9,47.6z"/>
<path id="XMLID_506_" class="st2" d="M47.1,63.5l-1.8,5.9l4.9-6.8c0,0-0.9-0.5-1.6-0.3C47.8,62.6,47.1,63.5,47.1,63.5z"/>
<path id="XMLID_1012_" class="st7" d="M52.7,55.3c-1.5,1.7-3.9,2.5-7,1.3c-0.1,0-0.1-0.1-0.2-0.1h0c-0.3-0.1-0.6-0.3-0.9-0.4
	c-0.3-0.2-0.6-0.3-1-0.5c-0.2-0.1-0.5-0.2-0.7-0.3c-1.6-0.6-3.1-0.9-4.5-1c0,0,2.9-1.5,5.4-0.9c1.3,0.3,1.7,0.8,1.7,1.3
	c0.2-0.6,0.8-1.3,2.3-1.3C50.3,53.5,52.5,55.2,52.7,55.3z"/>
<path id="XMLID_719_" class="st5" d="M41.3,51.8c-0.3,0-0.5-0.1-0.7-0.3c-0.3-0.3-0.4-0.7-0.4-1.2l0.1-0.9c0.5,0.2,1.1,0.2,1.7,0.2
	c0.2,0,0.4,0,0.6-0.1l-0.1,0.9C42.5,51.1,42,51.8,41.3,51.8z"/>
<path id="XMLID_505_" class="st2" d="M54.8,57.5l0.5,4.3l2.1-6.5c0,0-1.7-0.3-2.3,0.4C54.5,56.4,54.8,57.5,54.8,57.5z"/>
<path id="XMLID_717_" class="st5" d="M48.9,50.3c-0.3,0-0.6-0.1-0.9-0.3c-0.2-0.2-0.3-0.5-0.3-0.8l-0.1-1.3c0.5-0.2,1.1-0.4,1.6-0.5
	c0.2-0.1,0.4-0.1,0.6-0.1l0.1,1.6C49.9,49.6,49.5,50.2,48.9,50.3z"/>
<path id="XMLID_718_" class="st6" d="M34.3,47.5L34,48.8c-0.1,0.7-0.7,1.2-1.2,1.1c-0.2-0.3-0.3-0.7-0.3-1.1l0.3-1.5
	C33.3,47.3,33.7,47.4,34.3,47.5z"/>
<path id="XMLID_716_" class="st6" d="M40.7,51.5C40.6,51.5,40.6,51.5,40.7,51.5c-0.3-0.3-0.5-0.7-0.5-1.2l0.1-0.9
	c0.5,0.2,1.1,0.2,1.7,0.2l0,0.5C41.9,50.8,41.3,51.5,40.7,51.5z"/>
<path id="XMLID_714_" class="st6" d="M48.3,50c-0.1,0-0.2,0-0.2,0c-0.2-0.2-0.3-0.5-0.3-0.8l-0.1-1.3c0.5-0.2,1.1-0.4,1.6-0.5
	l0.1,1.1C49.3,49.3,48.9,49.9,48.3,50z"/>
<path id="XMLID_715_" class="st5" d="M45.8,55.8c0,0.1,0,0.2-0.1,0.3l-0.1,0.4l0,0c-0.2-0.1-0.4-0.2-0.6-0.3c-0.1,0-0.2-0.1-0.3-0.2
	c-0.3-0.2-0.6-0.3-1-0.5l0.2-0.5c0.1-0.4,0.4-0.8,0.7-0.9c0.2-0.1,0.5-0.1,0.7,0C45.7,54.5,45.9,55.1,45.8,55.8z"/>
<path id="XMLID_504_" class="st2" d="M63.1,45.3l2.1,7.2l-2-4c0,0-0.8-1.1-0.9-1.9C62.2,45.7,63.1,45.3,63.1,45.3z"/>
<path id="XMLID_723_" class="st5" d="M38.3,54.4c-0.2,0-0.5,0-0.7,0c-0.2,0-0.4,0-0.6,0c0,0,0,0-0.1,0c-0.3,0-0.7,0-1,0c0,0,0,0,0,0
	c0.2-0.4,0.5-0.7,0.8-0.8c0.1,0,0.2,0,0.3,0c0.1,0,0.2,0,0.3,0C37.8,53.6,38.2,53.9,38.3,54.4z"/>
<path id="XMLID_712_" class="st6" d="M45.1,55.8c0,0.1,0,0.2-0.1,0.3l0,0.1c-0.1,0-0.2-0.1-0.3-0.2c-0.3-0.2-0.6-0.3-1-0.5l0.2-0.5
	c0.1-0.4,0.4-0.8,0.7-0.9l0,0C45,54.5,45.2,55.2,45.1,55.8z"/>
<path id="XMLID_721_" class="st6" d="M37.6,54.4c-0.2,0-0.4,0-0.6,0c0,0,0,0-0.1,0c-0.3,0-0.7,0-1,0c0.2-0.4,0.5-0.7,0.8-0.8
	C37.2,53.7,37.5,54,37.6,54.4C37.6,54.4,37.6,54.4,37.6,54.4z"/>
<path id="XMLID_146_" class="st3" d="M26.5,33.5L7,16.5l18.2,19.4c0,0,0.9-0.5,1.3-1.3C26.8,33.8,26.5,33.5,26.5,33.5z"/>
<polygon id="XMLID_150_" class="st8" points="16.7,34.8 5.5,31.9 16.1,36.7 "/>
<path id="XMLID_492_" class="st2" d="M58.4,28l3.6,7.3l-6.3-9.6c0,0-0.1,1.6,0.8,2.3C57.5,28.8,58.4,28,58.4,28z"/>
<polygon id="XMLID_151_" class="st8" points="14.9,42.8 8.5,44.4 14.9,44.8 "/>
<path id="XMLID_481_" class="st2" d="M48.3,26.9c0.5-0.7,1.9,5.5,1.9,5.5l-4.9-6.7c0,0,0.6,1.2,1.3,1.4
	C47.3,27.4,48.3,26.9,48.3,26.9z"/>
<path id="XMLID_149_" class="st3" d="M24.2,48.6L0,60.6L24.8,52c0,0,0.6-1.5,0.3-2.1C24.9,49.3,24.2,48.6,24.2,48.6z"/>
<path id="XMLID_152_" class="st3" d="M31.9,59.4L21.3,83.7L34.9,61c0,0-0.3-1.5-1.3-1.9C32.7,58.5,31.9,59.4,31.9,59.4z"/>
<path id="XMLID_479_" class="st2" d="M38.2,21.7l3.1,8.1l-6-7.5c0,0,0.7,0.4,1.7,0.3C38.1,22.5,38.2,21.7,38.2,21.7z"/>
<polygon id="XMLID_154_" class="st8" points="36.9,70.6 37.6,82.8 39.6,70.9 "/>
<path id="XMLID_153_" class="st3" d="M47.1,63.5L54,83.7l-3.8-21c0,0-0.9-0.5-1.6-0.3C47.8,62.6,47.1,63.5,47.1,63.5z"/>
<path id="XMLID_155_" class="st3" d="M54.8,57.5L74,77.4L57.4,55.3c0,0-1.7-0.3-2.3,0.4C54.5,56.4,54.8,57.5,54.8,57.5z"/>
<polygon id="XMLID_157_" class="st8" points="64.5,57.2 72.5,61.1 65.2,55.8 "/>
<path id="XMLID_156_" class="st3" d="M63.1,45.3L89,47.1l-25.7,1.4c0,0-0.8-1.1-0.9-1.9C62.2,45.7,63.1,45.3,63.1,45.3z"/>
<polygon id="XMLID_159_" class="st8" points="67.1,38.8 77.3,36.9 67.4,40.5 "/>
<polygon id="XMLID_160_" class="st8" points="65.6,34.2 79.6,27.3 64.2,31.4 "/>
<path id="XMLID_158_" class="st3" d="M58.4,28l14.3-16.3l-17,14c0,0-0.1,1.6,0.8,2.3C57.5,28.8,58.4,28,58.4,28z"/>
<path id="XMLID_161_" class="st3" d="M48.3,26.9c0.5-0.7,7.5-24,7.5-24L45.3,25.7c0,0,0.6,1.2,1.3,1.4
	C47.3,27.4,48.3,26.9,48.3,26.9z"/>
<polygon id="XMLID_163_" class="st8" points="42.4,18.2 43.9,8.8 44.3,18.3 "/>
<path id="XMLID_162_" class="st3" d="M38.2,21.7L32.3,0l3,22.3c0,0,0.7,0.4,1.7,0.3C38.1,22.5,38.2,21.7,38.2,21.7z"/>
<polygon id="XMLID_165_" class="st8" points="27.1,22.3 21.2,12.8 25.5,23.4 "/>
<polygon id="XMLID_166_" class="st8" points="20.9,61.4 14.9,69.7 22.5,63.1 "/>
<path id="XMLID_472_" class="st9" d="M38.6,35.6c-0.2,1.4-1.6,2.3-2.9,2.1c-1.4-0.2-2.3-1.6-2.1-2.9c0.2-1.2,1.3-2.1,2.5-2.1l2.1,1
	C38.5,34.2,38.7,34.9,38.6,35.6z"/>
<ellipse id="XMLID_167_" transform="matrix(0.1646 -0.9864 0.9864 0.1646 6.953 82.5438)" class="st9" cx="52.2" cy="37.2" rx="2" ry="2"/>
<ellipse id="XMLID_682_" transform="matrix(0.1645 -0.9864 0.9864 0.1645 -4.6771 63.4612)" class="st6" cx="35.1" cy="34.5" rx="0.8" ry="0.5"/>
<ellipse id="XMLID_691_" transform="matrix(0.1645 -0.9864 0.9864 0.1645 6.8818 81.5159)" class="st6" cx="51.6" cy="36.7" rx="0.8" ry="0.5"/>
</svg>
