<?xml version="1.0" encoding="utf-8"?>
<!-- Generator: Adobe Illustrator 21.0.0, SVG Export Plug-In . SVG Version: 6.00 Build 0)  -->
<svg version="1.1" id="Layer_1" xmlns="http://www.w3.org/2000/svg" xmlns:xlink="http://www.w3.org/1999/xlink" x="0px" y="0px"
	 viewBox="0 0 54.7 84.7" style="enable-background:new 0 0 54.7 84.7;" xml:space="preserve">
<style type="text/css">
	.st0{fill:#D3271A;}
	.st1{fill:#F24327;}
	.st2{fill:#D8D8D8;}
	.st3{fill:#FFFFFF;}
	.st4{fill:#3F1E13;}
	.st5{fill:#4C1D1B;}
</style>
<path id="XMLID_733_" class="st0" d="M33.3,49.7c0,0.1-0.1,0.3,0,0.5c0.3,3.5,10.5,2.7,16.5,4.9c2.4,0.9,4.2,2.3,4.3,4.6
	c0.6,8.2-20.3,5.8-21.8,8c-1.5,2.1,0.7,16.4-0.9,16.6c-1.7,0.1-1.2-4.5-1.8-4.5c-0.6,0,0.2,4.9-1.1,5c-0.8,0.1-1-2-1.2-3.5
	c-0.1-0.9-0.2-1.6-0.3-1.5c-0.1,0-0.2,0.5-0.3,1c-0.2,1.3-0.3,3.5-1.1,3.4c-0.3,0-0.4-1.1-0.5-2.7c-0.2-4.9,0.2-14.9-1.7-16.4
	c-0.4-0.4-1.5-0.5-2.9-0.5C14.6,64.4,2.3,66.3,0.3,61C0.1,60.6,0,60,0,59.5c-0.1-8.7,18.7-4.4,19.4-8.8c0.2-1.4-1.7-1.8-4.5-2
	c-5.1-0.3-12.9,0.1-14.6-4C0.1,44,0,43.3,0,42.5c0.5-9.4,20-2.6,20.3-5.7c0.1-1.5-4.2-1.6-8.8-2.2c0,0,0,0,0,0
	c-4.4-0.5-8.9-1.5-10.1-4.3C1.2,30,1.1,29.5,1.1,29c-0.1-7.5,18-5.1,20.4-8.1C23.7,18,23.1,4.4,23.9,3c0-0.1,0.1-0.1,0.1-0.1
	c0.3-0.1,0.6,0.4,0.8,1.1c0.4,1.4,0.6,3.8,1.1,3.8c0.8,0-0.1-4.3,0.5-4.8c0,0,0.1-0.1,0.1-0.1c1.4,0,1.1,4.9,1.8,4.9
	c0.7,0,0.1-4.6,1.2-4.8c0.9-0.2,1,9.7,2.2,14.3c0.2,0.6,0.3,1.1,0.6,1.5c1.4,2.6,12.1,1.5,18.2,3.6v0c2.6,0.9,4.3,2.4,4.2,5
	c-0.3,8-18.8,3.6-21.9,6.3c-0.3,0.2-0.4,0.5-0.4,0.8c-0.3,3.2,11.4,1.7,18,4.2c2.5,0.9,4.3,2.5,4.4,5.1C55,52.8,34.3,45.8,33.3,49.7
	z"/>
<path id="XMLID_722_" class="st1" d="M49.8,55.1c0.2,0.5,0.4,1,0.4,1.7c0.6,8.2-20.3,5.8-21.8,8c-1.5,2.1,0.7,16.4-0.9,16.6
	c-0.1,0-0.1,0-0.2,0c-0.3,0-0.5-0.2-0.6-0.5c-0.7-1.2-0.5-4-1-4c-0.5,0,0,3.7-0.7,4.7c-0.2-4.9,0.2-14.9-1.7-16.4
	c-0.4-0.4-2.1-2.8-3.9-3c-2.3-0.2-13,0.8-19.2-1.1C0.1,60.6,0,60,0,59.5c-0.1-8.7,18.7-4.4,19.4-8.8c0.2-1.4-3-3.7-3.4-3.9
	c-4.4-1.6-9.8-0.3-15.7-2.1C0.1,44,0,43.3,0,42.5c0.5-9.4,20-2.6,20.3-5.7c0.1-1.5-2.8-3.1-3.8-3.4c-2.7-1-9.4-1-15.1-3
	C1.2,30,1.1,29.5,1.1,29c-0.1-7.5,18-5.1,20.4-8.1C23.7,18,23.1,4.4,23.9,3c0.1,1,0.2,1.8,0.5,1.8c0.2,0,0.3-0.3,0.3-0.8
	C25,2.6,24.9,0.2,25.7,0c0.3-0.1,0.6,1.1,0.8,2.9c0.4,3.9,0.8,10.6,2,12.8c0.4,0.8,1.7,1.2,3.3,1.5c0.2,0.6,0.3,1.1,0.6,1.5
	c1.4,2.6,12.1,1.5,18.2,3.6v0c0.2,0.6,0.4,1.2,0.3,2c-0.4,8.7-21.9,2.7-22.4,7.1c-0.1,1.3,1.7,1.8,4.3,2.1c-0.3,0.2-0.4,0.5-0.4,0.8
	c-0.3,3.2,11.4,1.7,18,4.2c0.3,0.6,0.5,1.3,0.5,2.1c0.4,9.4-21.9,1.5-21.4,6.4c0.1,1.3,1.7,2,3.9,2.5c0,0.1-0.1,0.3,0,0.5
	C33.6,53.6,43.8,52.8,49.8,55.1z"/>
<path id="XMLID_732_" class="st2" d="M50,27.1c0,1.6-1.3,2.9-2.9,2.9c-0.7,0-1.3-0.2-1.7-0.6c-0.7-0.5-1.1-1.3-1.1-2.3
	c0-1.6,1.3-2.9,2.9-2.9c0.2,0,0.5,0,0.7,0.1C49,24.7,50,25.8,50,27.1z"/>
<path id="XMLID_730_" class="st2" d="M50,43.6c0,1.5-1.2,2.8-2.8,2.8c-0.7,0-1.3-0.2-1.7-0.6c-0.6-0.5-1-1.3-1-2.2
	c0-1.5,1.2-2.8,2.8-2.8c0.2,0,0.4,0,0.6,0.1C49,41.2,50,42.3,50,43.6z"/>
<path id="XMLID_728_" class="st2" d="M49.3,60.4c0,1.7-1.3,3-3,3c-0.7,0-1.3-0.2-1.8-0.6c-0.7-0.5-1.2-1.4-1.2-2.4c0-1.7,1.3-3,3-3
	c0.3,0,0.5,0,0.7,0.1C48.4,57.9,49.3,59,49.3,60.4z"/>
<path id="XMLID_724_" class="st2" d="M9.3,59.1c0,1.6-1.3,2.9-3,2.9c-0.7,0-1.3-0.2-1.8-0.6c-0.7-0.5-1.1-1.4-1.1-2.3
	c0-1.6,1.3-3,2.9-3c0.2,0,0.5,0,0.7,0.1C8.4,56.6,9.3,57.7,9.3,59.1z"/>
<path id="XMLID_726_" class="st2" d="M9.3,43.2c0,1.7-1.4,3.1-3.1,3.1c-0.7,0-1.4-0.2-1.9-0.6C3.5,45.1,3,44.2,3,43.2
	c0-1.7,1.4-3.1,3.1-3.1c0.3,0,0.6,0,0.8,0.1C8.3,40.6,9.3,41.8,9.3,43.2z"/>
<path id="XMLID_734_" class="st2" d="M10,28.8c0,1.7-1.3,3-3,3c-0.7,0-1.3-0.2-1.8-0.6C4.5,30.6,4,29.8,4,28.8c0-1.7,1.3-3,3-3
	c0.3,0,0.5,0,0.7,0.1C9.1,26.2,10,27.4,10,28.8z"/>
<path id="XMLID_729_" class="st3" d="M48.9,26.6c0,1.6-1.3,2.9-2.9,2.9c-0.2,0-0.4,0-0.7-0.1c-0.7-0.5-1.1-1.3-1.1-2.3
	c0-1.6,1.3-2.9,2.9-2.9c0.2,0,0.5,0,0.7,0.1C48.4,24.9,48.9,25.7,48.9,26.6z"/>
<path id="XMLID_727_" class="st3" d="M48.9,43.1c0,1.5-1.2,2.8-2.8,2.8c-0.2,0-0.4,0-0.6-0.1c-0.6-0.5-1-1.3-1-2.2
	c0-1.5,1.2-2.8,2.8-2.8c0.2,0,0.4,0,0.6,0.1C48.5,41.4,48.9,42.2,48.9,43.1z"/>
<path id="XMLID_725_" class="st3" d="M48.2,59.9c0,1.6-1.3,3-3,3c-0.3,0-0.5,0-0.7-0.1c-0.7-0.5-1.2-1.4-1.2-2.4c0-1.7,1.3-3,3-3
	c0.3,0,0.5,0,0.7,0.1C47.8,58.1,48.2,58.9,48.2,59.9z"/>
<path id="XMLID_706_" class="st3" d="M8.2,58.6c0,1.6-1.3,2.9-2.9,2.9c-0.3,0-0.5,0-0.7-0.1c-0.7-0.5-1.1-1.4-1.1-2.3
	c0-1.6,1.3-3,2.9-3c0.2,0,0.5,0,0.7,0.1C7.8,56.8,8.2,57.7,8.2,58.6z"/>
<path id="XMLID_713_" class="st3" d="M8.2,42.7c0,1.7-1.4,3.1-3.1,3.1c-0.3,0-0.5,0-0.8-0.1C3.5,45.1,3,44.2,3,43.2
	c0-1.7,1.4-3.1,3.1-3.1c0.3,0,0.6,0,0.8,0.1C7.7,40.8,8.2,41.7,8.2,42.7z"/>
<path id="XMLID_731_" class="st3" d="M8.9,28.3c0,1.7-1.3,3-3,3c-0.3,0-0.5,0-0.7-0.1C4.5,30.6,4,29.8,4,28.8c0-1.7,1.3-3,3-3
	c0.3,0,0.5,0,0.7,0.1C8.5,26.4,8.9,27.3,8.9,28.3z"/>
<circle id="XMLID_6_" class="st4" cx="47.1" cy="27.1" r="1.6"/>
<circle id="XMLID_185_" class="st4" cx="47.2" cy="43.6" r="1.6"/>
<circle id="XMLID_238_" class="st4" cx="6.2" cy="43.2" r="1.6"/>
<circle id="XMLID_247_" class="st4" cx="6.4" cy="59.2" r="1.6"/>
<circle id="XMLID_252_" class="st4" cx="7" cy="28.8" r="1.6"/>
<circle id="XMLID_234_" class="st4" cx="46.3" cy="60.4" r="1.6"/>
<path id="XMLID_445_" class="st0" d="M26.8,61.9c5.2,0.1,7.2-5.9,7.2-5.9H20.8C20.8,56.1,21.8,61.9,26.8,61.9z"/>
<path id="XMLID_12_" class="st5" d="M26.8,60.4c5.2,0.1,7.2-4.4,7.2-4.4H20.8C20.8,56.1,21.8,60.4,26.8,60.4z"/>
<circle id="XMLID_470_" class="st0" cx="26.9" cy="28.6" r="2"/>
<circle id="XMLID_9_" class="st5" cx="26.4" cy="28" r="2"/>
<ellipse id="XMLID_468_" class="st0" cx="27.5" cy="44" rx="3.5" ry="0.7"/>
<ellipse id="XMLID_15_" class="st5" cx="27" cy="43.6" rx="3.5" ry="0.7"/>
<ellipse id="XMLID_178_" class="st3" cx="6.5" cy="28.5" rx="0.4" ry="0.7"/>
<ellipse id="XMLID_181_" class="st3" cx="46.6" cy="26.6" rx="0.4" ry="0.7"/>
<ellipse id="XMLID_182_" class="st3" cx="46.6" cy="43.2" rx="0.4" ry="0.7"/>
<ellipse id="XMLID_183_" class="st3" cx="45.8" cy="60.2" rx="0.4" ry="0.7"/>
<ellipse id="XMLID_179_" class="st3" cx="5.6" cy="42.9" rx="0.4" ry="0.7"/>
<ellipse id="XMLID_180_" class="st3" cx="5.6" cy="58.9" rx="0.4" ry="0.7"/>
</svg>
