<?xml version="1.0" encoding="utf-8"?>
<!-- Generator: Adobe Illustrator 21.0.0, SVG Export Plug-In . SVG Version: 6.00 Build 0)  -->
<svg version="1.1" id="Layer_1" xmlns="http://www.w3.org/2000/svg" xmlns:xlink="http://www.w3.org/1999/xlink" x="0px" y="0px"
	 viewBox="0 0 109.2 71" style="enable-background:new 0 0 109.2 71;" xml:space="preserve">
<style type="text/css">
	.st0{fill:#005472;}
	.st1{fill:#0A84A0;}
	.st2{fill:#02A1BC;}
	.st3{fill:#005E7F;}
	.st4{fill:#004966;}
	.st5{fill:#179BAD;}
	.st6{fill:#24C2D3;}
	.st7{fill:#0082A5;}
	.st8{fill:#0A283A;}
	.st9{fill:#CCC4CE;}
	.st10{fill:#FFFFFF;}
	.st11{fill:#132B35;}
	.st12{fill:#CC3323;}
</style>
<ellipse id="XMLID_394_" transform="matrix(0.1053 -0.9944 0.9944 0.1053 -9.9785 91.4036)" class="st0" cx="45.8" cy="51.2" rx="3.1" ry="5.9"/>
<ellipse id="XMLID_395_" transform="matrix(0.1053 -0.9944 0.9944 0.1053 43.1366 80.5076)" class="st0" cx="66.3" cy="16.3" rx="3.1" ry="5.9"/>
<ellipse id="XMLID_396_" transform="matrix(0.9468 -0.3219 0.3219 0.9468 -12.1177 25.8659)" class="st0" cx="72.1" cy="49.6" rx="5.9" ry="3.1"/>
<ellipse id="XMLID_397_" transform="matrix(0.9704 -0.2417 0.2417 0.9704 -2.9105 9.5522)" class="st0" cx="37.5" cy="16.6" rx="5.9" ry="3.1"/>
<path id="XMLID_573_" class="st1" d="M88.1,45.2c-4.3,3.2-16.2,5.9-32.1,5.9c0,0,0,0,0,0h-1.1c0,0,0,0,0,0c-1.3,0-2.6,0-3.9-0.1
	c-13.9-0.4-24.2-3-28.2-5.9c-4.5-3.2-4.6-16,1.3-22.2c5.3-5.5,12.6-6,26.3-6.1c0.4,0,0.7,0,1.1,0c1.1,0,2.2,0,3.4,0H56
	c16.6,0,25,0,30.8,6.1C92.7,29.2,92.5,42,88.1,45.2z"/>
<path id="XMLID_603_" class="st2" d="M82.4,35.4c0,0.4,0,0.8,0,1.2c0,0.5-0.1,1-0.1,1.5c-0.3,3.2-1.4,5.8-3.1,7.1
	c-0.3,0.3-0.7,0.5-1.2,0.7c-4.6,2.6-14.3,4.8-27.1,5.1c-13.9-0.4-24.2-3-28.2-5.9c-4.5-3.2-4.6-16,1.3-22.2c5.3-5.5,12.6-6,26.3-6.1
	c0.4,0,0.7,0,1.1,0c13.7,0,21.1,0.6,26.3,6.1C80.8,26.2,82.3,31,82.4,35.4z"/>
<path id="XMLID_594_" class="st3" d="M57.2,16.1c1.3,4.5,2.1,3.9,1.9,4.8c-0.2,0.9-3,2.3-6.5,2.2c-3.5-0.1-5-2.1-4.6-2.9
	c0.3-0.6,1.3-4.9,0.6-7.8c-0.2-0.9-0.6-1.6-1.1-2.1C45,8,61.1,8.5,61.1,8.5s-2.5,1.5-3.6,3.9C57,13.5,56.8,14.7,57.2,16.1z"/>
<path id="XMLID_591_" class="st3" d="M29.3,24.7c-2.1,2-4.5,0.9-4.5,0.9c-0.2-1.5-2.2-4.1-4.4-5.3c-0.7-0.4-1.5-0.6-2.2-0.6
	c-2.8,0,6.8-9,6.8-9s-0.6,2.9,0.7,5.1c0.4,0.7,1,1.4,1.9,1.9c3.6,2,3.8,1.4,4.1,1.9C32.1,20,31.4,22.7,29.3,24.7z"/>
<path id="XMLID_593_" class="st3" d="M87.5,12.4c0,0-2.4,0.6-3.8,2.5c-0.5,0.6-0.8,1.4-1,2.3c-0.8,3.8-0.3,3.8-0.5,4.2
	c-0.2,0.4-2.6,0.9-4.6,0c-2-1-1.7-3.4-1.7-3.4c0.9-0.6,2.2-2.7,2.8-4.6c0.4-1.1,0.5-2.3,0.3-3.1C78.3,7.7,87.5,12.4,87.5,12.4z"/>
<path id="XMLID_381_" class="st3" d="M91.2,32.1c1.6,1.1,7,1.7,9.2,0.1c2.2-1.6,1.1,9.8,1.1,9.8s-2.7-3.8-6.9-3.1
	c-4.2,0.8-3.8,1.4-4.5,1.1c-0.7-0.3-2-2.3-1.8-4.7C88.6,32.7,91.2,32.1,91.2,32.1z"/>
<path id="XMLID_382_" class="st3" d="M86.9,45.9c-0.4,1.9,1.2,7.1,3.5,8.5c2.3,1.4-8.6,4.8-8.6,4.8s2.5-3.9,0.2-7.5
	c-2.3-3.6-2.8-3.2-2.8-3.7c0-0.5,1.3-2.7,3.7-3.5C85.3,43.7,86.9,45.9,86.9,45.9z"/>
<path id="XMLID_383_" class="st3" d="M63.6,50.6c0,0.3-1.9,7-0.4,9.2c1.5,2.2-9.8,0.8-9.8,0.8s3.9-2.5,3.3-6.8c-0.6-4.2-1.1-4-1-4.5
	c0.2-0.5,2.3-1.9,4.8-1.6C63.1,47.9,63.6,50.3,63.6,50.6z"/>
<path id="XMLID_384_" class="st3" d="M37.5,49.3c-0.3,0.3-3.9,6.7-2.9,9.5c1,2.7-10.4-1.8-10.4-1.8s4.8-1.6,5.3-6.1
	c0.5-4.6-0.2-4.2,0.2-5c0.4-0.7,2.9-1.3,5.4-0.4C37.6,46.4,37.8,49,37.5,49.3z"/>
<path id="XMLID_385_" class="st3" d="M21.9,43.8c-0.4-0.1-7.5,1.9-8.9,4.3c-1.4,2.4-5.2-7.6-5.2-7.6s4.2,1.9,7.9-0.7
	s3.4-3.1,3.9-3.1s2.9,0.9,3.7,3.1C24.2,42,22.3,43.9,21.9,43.8z"/>
<path id="XMLID_592_" class="st4" d="M61.1,8.5c0,0-2.5,1.5-3.6,3.9c-1.3,0.1-2.6,0.2-3.9,0.2c-1.8,0-3.4-0.1-5-0.3
	c-0.2-0.9-0.6-1.6-1.1-2.1C45,8,61.1,8.5,61.1,8.5z"/>
<path id="XMLID_588_" class="st4" d="M87.5,12.4c0,0-2.4,0.6-3.8,2.5c-0.4-0.1-0.8-0.2-1.2-0.3c-1.4-0.4-2.7-0.8-3.8-1.4
	c0.4-1.1,0.5-2.3,0.3-3.1C78.3,7.7,87.5,12.4,87.5,12.4z"/>
<path id="XMLID_400_" class="st4" d="M25.8,15.8c-1.2,1.3-2.7,2.7-4.4,3.9c-0.3,0.2-0.6,0.4-0.9,0.6c-0.7-0.4-1.5-0.6-2.2-0.6
	c-2.8,0,6.8-9,6.8-9S24.5,13.5,25.8,15.8z"/>
<path id="XMLID_375_" class="st3" d="M86.2,29.5c-1,1.1-5,3.2-7,3c-1.2-0.1-1.4,1.9-0.8,3.6c0.5,1.2,1.7,2.3,2,2.3
	c0.8,0.1,1.2-3,4.6-3.9c3.4-0.9,3.7-0.8,3.7-0.8s1-1.9,0.3-3.3C88.4,29,86.2,29.5,86.2,29.5z"/>
<path id="XMLID_378_" class="st3" d="M25.9,30c0.7,1.4,4.1,4.3,6.2,4.4c1.1,0.1,1.1,2.1,0.1,3.6c-0.9,1.4-2.6,2.4-3,2.3
	c-0.8-0.2-0.4-3.4-3.5-5c-3.1-1.6-3.4-1.5-3.4-1.5s-0.5-2.2,0.6-3.5C23.9,29.1,25.9,30,25.9,30z"/>
<path id="XMLID_605_" class="st5" d="M69,5.3c0,2.9-6.9,5.3-15.4,5.3c-8.5,0-15.4-2.4-15.4-5.3c0,0,0-0.1,0-0.1
	c0.2-2.9,7-5.2,15.4-5.2c6,0,11.2,1.2,13.8,2.9C68.4,3.6,69,4.4,69,5.3z"/>
<path id="XMLID_596_" class="st5" d="M94.4,11.4c-0.6,2.2-5.9,2.7-11.9,1c-5.4-1.5-9.4-4.2-9.7-6.3v0c0-0.2,0-0.4,0.1-0.6
	c0.6-2.2,5.9-2.7,11.8-1c3.4,1,6.3,2.4,8,3.9c0,0,0,0,0,0C94,9.4,94.6,10.5,94.4,11.4z"/>
<path id="XMLID_606_" class="st5" d="M21.4,17.6C15.5,21.9,9.3,23.4,7.5,21c-0.3-0.4-0.5-1-0.4-1.6c0.1-2.8,3.2-7,8-10.5
	C20,5.3,25.2,3.7,27.7,4.6c0.5,0.2,0.9,0.5,1.2,0.9C30.7,7.9,27.3,13.3,21.4,17.6z"/>
<path id="XMLID_398_" class="st6" d="M67.3,2.9c-0.1,2.9-7,5.2-15.4,5.2c-6,0-11.2-1.2-13.8-2.9c0.2-2.9,7-5.2,15.4-5.2
	C59.6,0,64.8,1.2,67.3,2.9z"/>
<path id="XMLID_392_" class="st6" d="M92.7,8.9c-0.6,2.2-5.9,2.7-11.9,1c-3.4-0.9-6.3-2.4-8-3.8v0c0-0.2,0-0.4,0.1-0.6
	c0.6-2.2,5.9-2.7,11.8-1c3.4,1,6.3,2.4,8,3.9c0,0,0,0,0,0C92.8,8.5,92.7,8.8,92.7,8.9z"/>
<path id="XMLID_604_" class="st6" d="M27.7,4.6c0,2.8-3.2,7-8,10.5c-4.9,3.6-10.1,5.3-12.6,4.3c0.1-2.8,3.2-7,8-10.5
	C20,5.3,25.2,3.7,27.7,4.6z"/>
<path id="XMLID_608_" class="st6" d="M109.1,37.3c0,0.7-0.1,1.3-0.2,2c-0.8,6.3-3.4,11-6.1,10.8c-2.1-0.1-3.8-3.2-4.4-7.6
	c-0.3-1.8-0.3-3.8-0.2-5.9c0.5-7.3,3.3-13,6.3-12.8C107.6,24,109.6,30,109.1,37.3z"/>
<path id="XMLID_393_" class="st5" d="M109,39.3c-0.8,6.3-3.4,11-6.1,10.8c-2.1-0.1-3.8-3.2-4.4-7.6c0.8-6.3,3.4-11,6.1-10.8
	C106.7,31.9,108.3,35,109,39.3z"/>
<path id="XMLID_598_" class="st6" d="M97.2,58.9C97.2,58.9,97.2,58.9,97.2,58.9c-0.8,2.4-4.3,5-8.9,6.3c-5.6,1.7-10.8,0.9-11.8-1.7
	c0-0.1-0.1-0.1-0.1-0.2c-0.8-2.7,3.2-6.3,9-8s11.1-0.9,11.9,1.9C97.4,57.7,97.4,58.3,97.2,58.9z"/>
<path id="XMLID_600_" class="st6" d="M71.3,65.9c0,0.2-0.1,0.5-0.2,0.7c-1,3-6.6,4.8-13.1,4.3c-6.2-0.5-11.2-3-12.1-5.9
	c-0.1-0.4-0.2-0.8-0.1-1.2c0.3-3.3,6.2-5.6,13.3-5C66.1,59.4,71.6,62.6,71.3,65.9z"/>
<path id="XMLID_601_" class="st6" d="M37.6,64.7c0,0.1,0,0.1,0,0.1c-1.1,2.6-6.4,2.8-11.9,0.4c-4.1-1.8-7.2-4.5-7.9-6.9
	c-0.2-0.7-0.2-1.4,0-2c1.1-2.6,6.4-2.8,11.9-0.4C35.1,58.2,38.6,62.2,37.6,64.7z"/>
<path id="XMLID_595_" class="st5" d="M97.2,58.9C97.2,58.9,97.2,58.9,97.2,58.9c-0.8,2.4-4.3,5-8.9,6.3c-5.6,1.7-10.8,0.9-11.8-1.7
	c0.8-2.4,4.3-4.9,8.9-6.3C90.9,55.5,96.1,56.3,97.2,58.9z"/>
<path id="XMLID_597_" class="st5" d="M71.2,66.6c-1,3-6.6,4.8-13.1,4.3c-6.2-0.5-11.2-3-12.1-5.9c1-3,6.6-4.8,13.1-4.3
	C65.3,61.2,70.2,63.8,71.2,66.6z"/>
<path id="XMLID_599_" class="st5" d="M37.6,64.7c0,0.1,0,0.1,0,0.1c-1.1,2.6-6.4,2.8-11.9,0.4c-4.1-1.8-7.2-4.5-7.9-6.9
	c0,0,0-0.1,0-0.1c1.1-2.6,6.4-2.8,11.9-0.4C33.9,59.6,36.9,62.4,37.6,64.7z"/>
<path id="XMLID_602_" class="st6" d="M13.7,52.2c-0.5,1.6-1.3,2.7-2.5,3.2c-3.1,1.2-7.5-2.9-9.8-9.1c-0.4-1.1-0.7-2.2-0.9-3.2
	c-1-4.9-0.1-9.1,2.5-10.1c3.2-1.2,7.6,2.9,9.8,9.1C14.1,45.9,14.4,49.7,13.7,52.2z"/>
<path id="XMLID_586_" class="st5" d="M13.7,52.2c-0.5,1.6-1.3,2.7-2.5,3.2c-3.1,1.2-7.5-2.9-9.8-9.1c-0.4-1.1-0.7-2.2-0.9-3.2
	c0.5-1.6,1.3-2.7,2.5-3.2c3.2-1.2,7.6,2.9,9.8,9.1C13.1,50.1,13.4,51.2,13.7,52.2z"/>
<path id="XMLID_123_" class="st7" d="M41,42c0-1.9,12.2,0.8,19.1-2.3c6.9-3,11-4.6,11.8-0.7c0.8,3.8-4,5.9-16.5,5.2
	C42.8,43.4,41,43.3,41,42z"/>
<path id="XMLID_1476_" class="st8" d="M63.8,43.6c-2.3,0.2-5.1,0.2-8.5,0c-0.7,0-1.3-0.1-1.9-0.1C42.6,42.8,41,42.7,41,41.4
	c0-1.9,12.2,0.8,19.1-2.3c6.9-3,11-4.6,11.8-0.7C72.5,41.2,70.1,43.1,63.8,43.6z"/>
<path id="XMLID_100_" class="st7" d="M52.3,35.2c0,2-1.6,3.6-3.6,3.6c-0.2,0-0.5,0-0.7-0.1c0,0,0,0,0,0C46.3,38.4,45,37,45,35.2
	c0-1.8,1.2-3.2,2.9-3.6c0,0,0,0,0,0c0.2,0,0.5-0.1,0.7-0.1C50.7,31.6,52.3,33.2,52.3,35.2z"/>
<path id="XMLID_99_" class="st7" d="M66.5,33c0,2-1.6,3.7-3.7,3.7c-0.3,0-0.5,0-0.7-0.1c0,0,0,0,0,0c-1.7-0.4-2.9-1.8-2.9-3.6
	c0-1.8,1.3-3.2,2.9-3.6c0,0,0,0,0,0c0.2,0,0.5-0.1,0.7-0.1C64.9,29.3,66.5,31,66.5,33z"/>
<path id="XMLID_585_" class="st9" d="M51.5,34.5c0,2-1.6,3.6-3.6,3.6c-0.2,0-0.5,0-0.7-0.1c0,0,0,0,0,0c-1.6-0.3-2.9-1.8-2.9-3.6
	c0-1.8,1.2-3.2,2.9-3.6c0,0,0,0,0,0c0.2,0,0.5-0.1,0.7-0.1C49.9,30.8,51.5,32.4,51.5,34.5z"/>
<path id="XMLID_579_" class="st9" d="M65.7,32.2c0,2-1.6,3.7-3.7,3.7c-0.3,0-0.5,0-0.7-0.1c0,0,0,0,0,0c-1.7-0.4-2.9-1.8-2.9-3.6
	c0-1.8,1.3-3.2,2.9-3.6c0,0,0,0,0,0c0.2,0,0.5-0.1,0.7-0.1C64.1,28.6,65.7,30.2,65.7,32.2z"/>
<path id="XMLID_572_" class="st10" d="M50,34.5c0,1.7-1.2,3.2-2.9,3.6c0,0,0,0,0,0c-1.6-0.3-2.9-1.8-2.9-3.6c0-1.8,1.2-3.2,2.9-3.6
	c0,0,0,0,0,0C48.8,31.2,50,32.7,50,34.5z"/>
<path id="XMLID_377_" class="st10" d="M64.2,32.2c0,1.8-1.3,3.2-2.9,3.6c0,0,0,0,0,0c-1.7-0.4-2.9-1.8-2.9-3.6
	c0-1.8,1.3-3.2,2.9-3.6c0,0,0,0,0,0C63,29,64.2,30.5,64.2,32.2z"/>
<circle id="XMLID_499_" class="st11" cx="62.1" cy="32.2" r="1.9"/>
<circle id="XMLID_510_" class="st11" cx="47.9" cy="34.5" r="1.9"/>
<polygon id="XMLID_126_" class="st7" points="57.2,27.3 57.8,28.2 69.1,24.5 66.8,21 "/>
<polygon id="XMLID_125_" class="st7" points="53.7,28.4 53,29.9 39.3,26.9 41,23.7 "/>
<polygon id="XMLID_399_" class="st8" points="57.2,26.6 57.8,27.5 69.1,23.8 66.8,20.3 "/>
<polygon id="XMLID_401_" class="st8" points="53.7,27.7 53,29.2 39.3,26.2 41,23 "/>
<ellipse id="XMLID_402_" class="st8" cx="53.5" cy="3" rx="10.2" ry="1.2"/>
<ellipse id="XMLID_404_" transform="matrix(0.3474 -0.9377 0.9377 0.3474 48.6633 84.1657)" class="st8" cx="84.8" cy="7.1" rx="1.1" ry="7.8"/>
<ellipse id="XMLID_405_" transform="matrix(5.073415e-02 -0.9987 0.9987 5.073415e-02 63.7833 141.0519)" class="st8" cx="106.1" cy="37" rx="9.6" ry="1.5"/>
<ellipse id="XMLID_406_" transform="matrix(0.944 -0.3301 0.3301 0.944 -15.5856 32.5426)" class="st8" cx="88" cy="62.2" rx="8.3" ry="1.3"/>
<ellipse id="XMLID_407_" transform="matrix(9.375678e-02 -0.9956 0.9956 9.375678e-02 -15.2385 119.3079)" class="st8" cx="57.9" cy="68" rx="1.4" ry="8.9"/>
<ellipse id="XMLID_408_" transform="matrix(0.4032 -0.9151 0.9151 0.4032 -41.2854 61.778)" class="st8" cx="26.7" cy="62.5" rx="1.2" ry="7.7"/>
<ellipse id="XMLID_409_" transform="matrix(0.9597 -0.281 0.281 0.9597 -12.4128 2.9091)" class="st8" cx="3.9" cy="44.7" rx="1.4" ry="8.3"/>
<ellipse id="XMLID_410_" transform="matrix(0.7634 -0.6459 0.6459 0.7634 -3.6849 13.1438)" class="st8" cx="16.1" cy="11.6" rx="8.3" ry="1.4"/>
<path id="XMLID_607_" class="st6" d="M95.1,29c0,1.3-0.3,2.5-0.6,3.6c-1.1,3.5-3.7,6-6.7,5.9c-2.7-0.1-5-2.3-6-5.5
	c-0.4-1.3-0.7-2.9-0.6-4.5c0.2-5.4,3.4-9.6,7.3-9.5C92.3,19.2,95.3,23.6,95.1,29z"/>
<path id="XMLID_391_" class="st5" d="M94.5,32.6c-1.1,3.5-3.7,6-6.7,5.9c-2.7-0.1-5-2.3-6-5.5c1.1-3.5,3.7-6,6.7-5.9
	C91.2,27.2,93.5,29.4,94.5,32.6z"/>
<ellipse id="XMLID_411_" transform="matrix(3.267959e-02 -0.9995 0.9995 3.267959e-02 56.3075 117.0488)" class="st8" cx="88.6" cy="29.4" rx="6.6" ry="4.7"/>
<path id="XMLID_609_" class="st6" d="M31.9,29.5c-0.6,2.1-2.3,4.3-4.7,5.7c-4.2,2.6-9.2,2.3-11.1-0.8c-0.2-0.3-0.3-0.6-0.4-0.9
	c-1.1-3,0.9-7,4.7-9.3c4.2-2.6,9.2-2.3,11.1,0.8C32.3,26.3,32.4,27.9,31.9,29.5z"/>
<path id="XMLID_390_" class="st5" d="M31.9,29.5c-0.6,2.1-2.3,4.3-4.7,5.7c-4.2,2.6-9.2,2.3-11.1-0.8c-0.2-0.3-0.3-0.6-0.4-0.9
	c0.6-2.1,2.3-4.3,4.7-5.8c4.2-2.6,9.2-2.3,11.1,0.8C31.7,28.8,31.8,29.1,31.9,29.5z"/>
<ellipse id="XMLID_413_" transform="matrix(0.8518 -0.5238 0.5238 0.8518 -12.4247 16.8267)" class="st8" cx="23.5" cy="30.4" rx="6.1" ry="4.4"/>
<ellipse id="XMLID_690_" class="st10" cx="47" cy="34" rx="0.4" ry="0.7"/>
<ellipse id="XMLID_707_" class="st10" cx="61.3" cy="31.6" rx="0.4" ry="0.7"/>
<path id="XMLID_1011_" class="st12" d="M63.8,43.6c-2.3,0.2-5.1,0.2-8.5,0c-0.7,0-1.3-0.1-1.9-0.1c0,0,3-2.1,4.5-1.3
	c1.5,0.8,1.5,0.8,1.5,0.8s2.2-1.1,3-0.6C63.1,42.8,63.6,43.3,63.8,43.6z"/>
</svg>
