<?xml version="1.0" encoding="utf-8"?>
<!-- Generator: Adobe Illustrator 21.0.0, SVG Export Plug-In . SVG Version: 6.00 Build 0)  -->
<svg version="1.1" id="Layer_1" xmlns="http://www.w3.org/2000/svg" xmlns:xlink="http://www.w3.org/1999/xlink" x="0px" y="0px"
	 viewBox="0 0 96.5 90.9" style="enable-background:new 0 0 96.5 90.9;" xml:space="preserve">
<style type="text/css">
	.st0{fill:#FFF0B2;}
	.st1{fill:#FFD62A;}
	.st2{opacity:0.37;fill:#BF8800;}
	.st3{fill:#FFDF59;}
	.st4{fill:#EFBF3A;}
	.st5{fill:#D89309;}
	.st6{fill:#FFC113;}
	.st7{fill:#332611;}
	.st8{fill:#F7A80B;}
	.st9{fill:#D8D8D8;}
	.st10{fill:#FFFFFF;}
	.st11{fill:#383517;}
	.st12{fill:#593900;}
</style>
<polygon id="XMLID_132_" class="st0" points="13.6,40.8 49.2,9.5 86.3,33.7 70.1,69.2 36.7,72.5 "/>
<g id="XMLID_338_">
	<path id="XMLID_362_" class="st1" d="M31.5,35c-0.4-0.3-9.2-6.8-10.8-13.1c-1.6-6.3-0.1-12.4,0-12.7l1.6,0.4c0,0.1-1.5,6,0,11.8
		c1.5,5.8,10.1,12.1,10.2,12.2L31.5,35z"/>
</g>
<g id="XMLID_339_">
	<path id="XMLID_361_" class="st1" d="M45.9,22c-0.1-0.1-2.4-2.4-4.7-7.2C38.9,10,38.8,4.7,38.8,4.5l1.7,0c0,0.1,0.2,5.2,2.3,9.7
		c2.1,4.5,4.3,6.6,4.3,6.7L45.9,22z"/>
</g>
<g id="XMLID_340_">
	<path id="XMLID_360_" class="st1" d="M59.7,22.7l-0.8-1.5c0.1,0,5.1-2.8,6.8-7.7c1.8-5.1,1.4-8.9,1.4-9l1.7-0.2
		c0,0.2,0.5,4.3-1.4,9.7C65.4,19.7,60,22.6,59.7,22.7z"/>
</g>
<g id="XMLID_348_">
	<path id="XMLID_352_" class="st1" d="M13.3,77.3c-0.1-0.4-2-10.4,1.7-18.7c3.8-8.5,17.6-9.3,18.2-9.4l0.1,1.7
		c-0.1,0-13.3,0.8-16.7,8.4C13,67.1,14.9,76.9,14.9,77L13.3,77.3z"/>
</g>
<g id="XMLID_350_">
	<path id="XMLID_351_" class="st1" d="M4.7,48.4l-1-1.4c6.7-4.7,21.5-5.9,22.1-6l0.1,1.7C25.8,42.8,11,44,4.7,48.4z"/>
</g>
<polygon id="XMLID_458_" class="st2" points="23.3,37.1 55.6,18.5 80.4,43 62.4,67.9 36.1,65.2 "/>
<g id="XMLID_341_">
	<path id="XMLID_359_" class="st1" d="M72.6,37.3l-0.9-1.4c0.1,0,7.2-4.3,12.4-11c5.2-6.6,5.9-12.2,5.9-12.2l1.7,0.2
		c0,0.2-0.8,6.1-6.3,13.1C80.1,32.8,72.9,37.1,72.6,37.3z"/>
</g>
<g id="XMLID_342_">
	<path id="XMLID_358_" class="st1" d="M95.6,50.4c0,0-1.6-0.9-6.5-3.8c-4.8-2.7-14.7-3.2-14.8-3.2l0.1-1.7c0.4,0,10.5,0.5,15.6,3.4
		c5,2.9,6.5,3.8,6.5,3.8L95.6,50.4z"/>
</g>
<g id="XMLID_343_">
	<path id="XMLID_357_" class="st1" d="M87,77.1c0-0.1-0.1-6.5-4.7-15.4c-4.5-8.7-14.8-10.9-14.9-10.9l0.3-1.7
		c0.5,0.1,11.2,2.4,16.1,11.8c4.8,9.2,4.9,15.9,4.9,16.1L87,77.1z"/>
</g>
<g id="XMLID_345_">
	<path id="XMLID_355_" class="st1" d="M62.8,87.3c0-0.1,0-6-1-11.5c-0.9-5.4-6.8-11.5-6.8-11.6l1.2-1.2c0.3,0.3,6.2,6.6,7.3,12.5
		c1,5.7,1,11.6,1,11.8L62.8,87.3z"/>
</g>
<g id="XMLID_346_">
	<path id="XMLID_354_" class="st1" d="M37.6,86.9c0-0.3-0.1-7.4,1.3-12.9c1.4-5.6,6-10.8,6.2-11l1.3,1.1c0,0.1-4.5,5.1-5.8,10.3
		c-1.4,5.3-1.2,12.4-1.2,12.4L37.6,86.9z"/>
</g>
<polygon id="XMLID_129_" class="st3" points="21.9,35 54.2,16.4 79.1,40.8 61.1,65.7 34.8,63 "/>
<polygon id="XMLID_285_" class="st4" points="72.6,40.6 61.5,59.8 42.4,59.8 41.2,57.7 31.1,40.6 53,24.9 70.2,38.7 "/>
<polygon id="XMLID_854_" class="st5" points="71,38.6 59.9,57.7 40.8,57.7 39.6,55.6 29.5,38.6 51.3,22.8 68.6,36.6 "/>
<polygon id="XMLID_852_" class="st6" points="68.6,36.6 57.6,55.6 39.6,55.6 29.5,38.6 51.3,22.8 "/>
<path id="XMLID_475_" class="st5" d="M45.1,50.1c0,0,9.2,5.9,11.1,3.5C58,51.2,55.1,47.6,45.1,50.1z"/>
<path id="XMLID_314_" class="st7" d="M44.2,49.9c0,0,9.5,5.4,11.2,2.9C57.2,50.3,54.2,46.9,44.2,49.9z"/>
<path id="XMLID_881_" class="st5" d="M5.5,48.3c0,1.5-1.2,2.7-2.7,2.7c-1.1,0-2-0.6-2.5-1.5C0.1,49.1,0,48.7,0,48.3
	c0-1.5,1.2-2.7,2.7-2.7c0.5,0,1,0.1,1.4,0.4C5,46.5,5.5,47.3,5.5,48.3z"/>
<path id="XMLID_871_" class="st5" d="M23.9,8.6c0,1.5-1.2,2.7-2.7,2.7c-1.1,0-2-0.6-2.5-1.5c-0.2-0.4-0.3-0.8-0.3-1.2
	c0-1.5,1.2-2.7,2.7-2.7c0.5,0,1,0.2,1.4,0.4C23.4,6.7,23.9,7.6,23.9,8.6z"/>
<path id="XMLID_870_" class="st5" d="M42.4,3.3c0,1.5-1.2,2.7-2.7,2.7c-1.1,0-2-0.6-2.5-1.5c-0.2-0.4-0.3-0.8-0.3-1.2
	c0-1.5,1.2-2.7,2.8-2.7c0.5,0,1,0.1,1.4,0.4C41.8,1.5,42.4,2.4,42.4,3.3z"/>
<path id="XMLID_869_" class="st5" d="M70.7,2.7c0,1.5-1.2,2.7-2.7,2.7c-1.1,0-2-0.6-2.5-1.5c-0.2-0.4-0.3-0.8-0.3-1.2
	C65.2,1.2,66.5,0,68,0c0.5,0,1,0.2,1.4,0.4C70.2,0.9,70.7,1.8,70.7,2.7z"/>
<path id="XMLID_859_" class="st5" d="M95.2,11.3c0,1.5-1.2,2.7-2.7,2.7c-1.1,0-2-0.6-2.5-1.5c-0.2-0.4-0.3-0.8-0.3-1.2
	c0-1.5,1.2-2.7,2.8-2.7c0.5,0,1,0.1,1.4,0.4C94.7,9.5,95.2,10.4,95.2,11.3z"/>
<path id="XMLID_878_" class="st5" d="M41.2,88.1c0,1.5-1.2,2.7-2.7,2.7c-1.1,0-2-0.6-2.5-1.6c-0.2-0.4-0.3-0.8-0.3-1.2
	c0-1.5,1.2-2.8,2.7-2.8c0.5,0,1,0.2,1.4,0.4C40.6,86.3,41.2,87.1,41.2,88.1z"/>
<path id="XMLID_880_" class="st5" d="M16.4,78.3c0,1.4-1.1,2.5-2.5,2.5c-1,0-1.9-0.6-2.3-1.5c-0.1-0.3-0.2-0.7-0.2-1
	c0-1.4,1.1-2.5,2.5-2.5c0.4,0,0.9,0.1,1.2,0.3C15.9,76.6,16.4,77.4,16.4,78.3z"/>
<path id="XMLID_874_" class="st5" d="M90.8,78.3c0,1.5-1.2,2.8-2.7,2.8c-1.1,0-2-0.6-2.5-1.5c-0.2-0.4-0.3-0.8-0.3-1.2
	c0-1.5,1.2-2.7,2.7-2.7c0.5,0,1,0.2,1.4,0.4C90.3,76.5,90.8,77.3,90.8,78.3z"/>
<path id="XMLID_876_" class="st5" d="M66,88.1c0,1.5-1.2,2.7-2.8,2.7c-1.1,0-2-0.6-2.5-1.6c-0.2-0.4-0.3-0.8-0.3-1.2
	c0-1.5,1.2-2.8,2.7-2.8c0.5,0,1,0.1,1.4,0.4C65.5,86.3,66,87.1,66,88.1z"/>
<path id="XMLID_879_" class="st8" d="M4.5,47.2c0,1.5-1.2,2.8-2.7,2.8c-0.5,0-1-0.2-1.4-0.4C0.1,49.1,0,48.7,0,48.3
	c0-1.5,1.2-2.7,2.7-2.7c0.5,0,1,0.1,1.4,0.4C4.4,46.3,4.5,46.7,4.5,47.2z"/>
<path id="XMLID_372_" class="st8" d="M22.9,7.5c0,1.5-1.2,2.8-2.7,2.8c-0.5,0-1-0.1-1.4-0.4c-0.2-0.4-0.3-0.8-0.3-1.2
	c0-1.5,1.2-2.7,2.7-2.7c0.5,0,1,0.2,1.4,0.4C22.8,6.6,22.9,7,22.9,7.5z"/>
<path id="XMLID_373_" class="st8" d="M41.3,2.2c0,1.5-1.2,2.8-2.7,2.8c-0.5,0-1-0.2-1.5-0.4c-0.2-0.4-0.3-0.8-0.3-1.2
	c0-1.5,1.2-2.7,2.8-2.7c0.5,0,1,0.1,1.4,0.4C41.3,1.4,41.3,1.8,41.3,2.2z"/>
<path id="XMLID_374_" class="st8" d="M69.7,1.6c0,1.5-1.2,2.8-2.7,2.8c-0.5,0-1-0.1-1.4-0.4c-0.2-0.4-0.3-0.8-0.3-1.2
	C65.2,1.2,66.5,0,68,0c0.5,0,1,0.2,1.4,0.4C69.6,0.8,69.7,1.2,69.7,1.6z"/>
<path id="XMLID_370_" class="st8" d="M94.2,10.2c0,1.5-1.2,2.7-2.8,2.7c-0.5,0-1-0.2-1.4-0.4c-0.2-0.4-0.3-0.8-0.3-1.2
	c0-1.5,1.2-2.7,2.8-2.7c0.5,0,1,0.1,1.4,0.4C94.1,9.4,94.2,9.8,94.2,10.2z"/>
<path id="XMLID_875_" class="st8" d="M40.1,87c0,1.5-1.2,2.7-2.7,2.7c-0.5,0-1-0.1-1.4-0.4c-0.2-0.4-0.3-0.8-0.3-1.2
	c0-1.5,1.2-2.8,2.7-2.8c0.5,0,1,0.2,1.4,0.4C40,86.2,40.1,86.6,40.1,87z"/>
<path id="XMLID_877_" class="st8" d="M15.4,77.2c0,1.4-1.1,2.5-2.5,2.5c-0.4,0-0.9-0.1-1.2-0.3c-0.1-0.3-0.2-0.7-0.2-1
	c0-1.4,1.1-2.5,2.5-2.5c0.4,0,0.9,0.1,1.2,0.3C15.3,76.5,15.4,76.8,15.4,77.2z"/>
<path id="XMLID_864_" class="st8" d="M89.8,77.2c0,1.5-1.2,2.7-2.7,2.7c-0.5,0-1-0.1-1.4-0.4c-0.2-0.4-0.3-0.8-0.3-1.2
	c0-1.5,1.2-2.7,2.7-2.7c0.5,0,1,0.2,1.4,0.4C89.7,76.3,89.8,76.8,89.8,77.2z"/>
<path id="XMLID_873_" class="st8" d="M65,87c0,1.5-1.2,2.7-2.7,2.7c-0.5,0-1-0.1-1.4-0.4c-0.2-0.4-0.3-0.8-0.3-1.2
	c0-1.5,1.2-2.8,2.7-2.8c0.5,0,1,0.1,1.4,0.4C64.9,86.2,65,86.6,65,87z"/>
<path id="XMLID_464_" class="st5" d="M60.9,39.6c0,1.7-1.4,3.1-3.1,3.1c-1,0-1.8-0.4-2.4-1.1c-0.5-0.5-0.7-1.2-0.7-2
	c0-1.7,1.4-3.1,3.1-3.1c0.4,0,0.8,0.1,1.1,0.2C60.1,37.1,60.9,38.2,60.9,39.6z"/>
<path id="XMLID_376_" class="st5" d="M46.2,39.6c0,1.1-0.9,2-2,2c-0.5,0-1-0.2-1.3-0.5c-0.4-0.4-0.7-0.9-0.7-1.5c0-1.1,0.9-2,2-2
	c0.2,0,0.3,0,0.5,0.1C45.6,37.8,46.2,38.6,46.2,39.6z"/>
<path id="XMLID_857_" class="st9" d="M60.6,38.8c0,1.7-1.4,3.1-3.1,3.1c-1,0-1.8-0.4-2.4-1.1c-0.5-0.5-0.7-1.2-0.7-2
	c0-1.7,1.4-3.1,3.1-3.1c0.4,0,0.8,0.1,1.1,0.2C59.7,36.3,60.6,37.4,60.6,38.8z"/>
<path id="XMLID_855_" class="st10" d="M59.3,37.9c0,1.7-1.4,3.1-3.1,3.1c-0.4,0-0.8-0.1-1.1-0.2c-0.5-0.5-0.7-1.2-0.7-2
	c0-1.7,1.4-3.1,3.1-3.1c0.4,0,0.8,0.1,1.1,0.2C59,36.4,59.3,37.1,59.3,37.9z"/>
<path id="XMLID_868_" class="st9" d="M45.8,38.8c0,1.1-0.9,2-2,2c-0.5,0-1-0.2-1.3-0.5c-0.4-0.4-0.7-0.9-0.7-1.5c0-1.1,0.9-2,2-2
	c0.2,0,0.3,0,0.5,0.1C45.2,37,45.8,37.8,45.8,38.8z"/>
<path id="XMLID_866_" class="st10" d="M45,38.3c0,1.1-0.9,2-2,2c-0.2,0-0.3,0-0.5-0.1c-0.4-0.4-0.7-0.9-0.7-1.5c0-1.1,0.9-2,2-2
	c0.2,0,0.3,0,0.5,0.1C44.7,37.2,45,37.7,45,38.3z"/>
<circle id="XMLID_137_" class="st11" cx="57.4" cy="38.7" r="1.2"/>
<circle id="XMLID_140_" class="st11" cx="43.9" cy="38.7" r="1.1"/>
<polygon id="XMLID_461_" class="st5" points="52.8,36.2 57.2,30 58.5,32.7 53.2,36.7 "/>
<polygon id="XMLID_460_" class="st5" points="47.7,36.7 43.3,30.4 42,33.2 47.3,37.1 "/>
<polygon id="XMLID_133_" class="st12" points="52.5,35.5 57,29.3 58.2,32 53,36 "/>
<polygon id="XMLID_148_" class="st12" points="47.4,36 43,29.8 41.7,32.5 47,36.4 "/>
<ellipse id="XMLID_66_" class="st10" cx="57" cy="38.4" rx="0.2" ry="0.5"/>
<ellipse id="XMLID_459_" class="st10" cx="43.5" cy="38.6" rx="0.2" ry="0.5"/>
</svg>
