<?xml version="1.0" encoding="utf-8"?>
<!-- Generator: Adobe Illustrator 21.0.0, SVG Export Plug-In . SVG Version: 6.00 Build 0)  -->
<svg version="1.1" id="Layer_1" xmlns="http://www.w3.org/2000/svg" xmlns:xlink="http://www.w3.org/1999/xlink" x="0px" y="0px"
	 viewBox="0 0 89.8 78.9" style="enable-background:new 0 0 89.8 78.9;" xml:space="preserve">
<style type="text/css">
	.st0{fill:#E5B11F;}
	.st1{fill:#FFD62A;}
	.st2{fill:#D18704;}
	.st3{fill:#D8D8D8;}
	.st4{fill:#FFFFFF;}
	.st5{fill:#423117;}
	.st6{fill:#E8CE60;}
	.st7{fill:#FFE98E;}
	.st8{fill:#383517;}
	.st9{fill:#F24327;}
	.st10{fill:#FF7D5F;}
</style>
<path id="XMLID_389_" class="st0" d="M72.8,61.3c-3.4,12.4-19,17.6-32.1,15c-2.3-0.4-4.4-1.1-6.5-2C20.4,68.1,12.5,51.6,26,37.1
	C38.1,24,38.5,12,44.7,9.7c0.7-0.3,1.5-0.4,2.4-0.4c8.3,0.2,9.4,10.5,15.6,18.7C69,36.2,77.6,44.1,72.8,61.3z"/>
<path id="XMLID_387_" class="st1" d="M66.5,60.7c-2.9,10.4-14.4,15.8-25.8,15.7c-2.3-0.4-4.4-1.1-6.5-2C20.4,68.1,12.5,51.6,26,37.1
	C38.1,24,38.5,12,44.7,9.7c5,2.8,6.6,10.9,11.7,17.7C62.7,35.6,71.3,43.4,66.5,60.7z"/>
<ellipse id="XMLID_188_" transform="matrix(8.148385e-02 -0.9967 0.9967 8.148385e-02 22.4418 70.1678)" class="st0" cx="49.3" cy="22.9" rx="7.2" ry="7.2"/>
<ellipse id="XMLID_3_" transform="matrix(8.148385e-02 -0.9967 0.9967 8.148385e-02 21.5956 67.7496)" class="st2" cx="47.6" cy="22.2" rx="7.2" ry="7.2"/>
<path id="XMLID_621_" class="st3" d="M53.5,22.6c-0.3,3.3-3.1,5.7-6.4,5.4c-0.1,0-0.1,0-0.2,0c-3.2-0.3-5.6-3.2-5.3-6.4
	c0.2-2.9,2.5-5.1,5.3-5.4c0.4,0,0.7-0.1,1.1,0C51.3,16.5,53.7,19.4,53.5,22.6z"/>
<path id="XMLID_221_" class="st4" d="M52.2,22.6c-0.2,2.9-2.5,5.1-5.3,5.4c-3.2-0.3-5.6-3.2-5.3-6.4c0.2-2.9,2.5-5.1,5.3-5.4
	C50.1,16.6,52.5,19.4,52.2,22.6z"/>
<path id="XMLID_213_" class="st0" d="M61.8,34.7c0,0-6.3,10.3-15.2,10.1c-8.9-0.1-11.9-8.2-11.9-8.2l8.5,0.6l2.4-0.2L61.8,34.7z"/>
<path id="XMLID_1474_" class="st5" d="M61.8,34.7c0,0-4.8,6.7-12.1,8.2c-0.7,0.1-1.3,0.2-2,0.3c-0.3,0-0.7,0-1,0
	c-0.6,0-1.1,0-1.6-0.1c-0.1,0-0.1,0-0.2,0c-7.5-0.9-10.1-6.5-10.1-6.5l8.6-0.6l2.3-0.2L61.8,34.7z"/>
<path id="XMLID_211_" class="st1" d="M68.3,35.2c0,0,6.5-4,7.5-8.3c1-4.3-0.1-9.9-0.1-9.9l1.4,0.1c0,0,1.4,8.8-0.1,12.1
	c-1.6,3.3-7.3,8.2-7.3,8.2L68.3,35.2z"/>
<path id="XMLID_215_" class="st1" d="M30.2,33.2c0,0-5.8-5-6.1-9.4c-0.3-4.5,1.7-9.8,1.7-9.8l-1.4-0.1c0,0-2.9,8.5-1.8,12
	c1,3.5,5.8,9.3,5.8,9.3L30.2,33.2z"/>
<ellipse id="XMLID_216_" transform="matrix(8.148754e-02 -0.9967 0.9967 8.148754e-02 54.564 90.5431)" class="st0" cx="76.4" cy="15.7" rx="2.5" ry="3.6"/>
<path id="XMLID_611_" class="st6" d="M12.5,29.8c-0.3,3.4-3.3,6-6.8,5.7c-2.2-0.2-4-1.5-5-3.3c-0.6-1-0.9-2.2-0.7-3.5
	c0.3-3.5,3.3-6,6.8-5.7c0.6,0.1,1.2,0.2,1.8,0.4C11.1,24.4,12.8,27,12.5,29.8z"/>
<path id="XMLID_224_" class="st6" d="M14.5,46.2c-0.1,1.5-1.4,2.6-2.9,2.5c-0.7-0.1-1.4-0.4-1.8-1c-0.4-0.5-0.7-1.2-0.6-1.9
	c0.1-1.5,1.4-2.6,2.9-2.5c0,0,0,0,0,0C13.5,43.4,14.6,44.7,14.5,46.2z"/>
<path id="XMLID_229_" class="st6" d="M38.8,56.7c-0.2,2.3-2.2,4.1-4.6,3.9c-0.9-0.1-1.8-0.5-2.4-1c-1-0.9-1.6-2.2-1.4-3.5
	c0.2-2.4,2.3-4.1,4.6-3.9c0.2,0,0.4,0,0.6,0.1C37.5,52.7,38.9,54.6,38.8,56.7z"/>
<path id="XMLID_379_" class="st6" d="M64.2,70.3c-0.4,5.1-4.9,9-10.1,8.6c-2.9-0.2-5.4-1.8-6.9-3.9c-1.2-1.7-1.9-3.9-1.7-6.1
	c0.4-5.1,4.9-9,10.1-8.6c1.3,0.1,2.6,0.5,3.7,1.1C62.5,63.1,64.5,66.5,64.2,70.3z"/>
<path id="XMLID_324_" class="st6" d="M78,45.7c-0.2,2.1-2,3.6-4.1,3.5c-0.9-0.1-1.7-0.4-2.3-1c-0.8-0.8-1.3-1.9-1.2-3.1
	c0.2-2.1,2-3.6,4.1-3.5c0.1,0,0.3,0,0.4,0.1C76.8,42.1,78.1,43.8,78,45.7z"/>
<path id="XMLID_620_" class="st6" d="M66.7,54.3c-0.1,1.2-1.1,2-2.3,1.9c-0.3,0-0.7-0.1-0.9-0.3c-0.6-0.4-1-1.1-1-1.9
	c0.1-1,0.8-1.7,1.7-1.9c0.2,0,0.3-0.1,0.5,0C66,52.1,66.8,53.1,66.7,54.3z"/>
<path id="XMLID_223_" class="st7" d="M65.3,54c-0.1,1-0.8,1.7-1.7,1.9c-0.6-0.4-1-1.1-1-1.9c0.1-1,0.8-1.7,1.7-1.9
	C64.9,52.4,65.3,53.2,65.3,54z"/>
<path id="XMLID_616_" class="st6" d="M89.8,3.5c-0.1,1.8-1.7,3.1-3.5,3c-0.8-0.1-1.5-0.4-2.1-1c-0.6-0.7-1-1.6-0.9-2.5
	c0.1-1.8,1.7-3.1,3.5-3C86.9,0,87,0,87,0C88.7,0.3,89.9,1.8,89.8,3.5z"/>
<path id="XMLID_388_" class="st6" d="M83.9,64.7c-0.3,4.1-4,7.2-8.1,6.8c-2.5-0.2-4.6-1.6-5.8-3.5c-0.8-1.3-1.2-2.9-1.1-4.5
	c0.3-4.1,4-7.2,8.1-6.8c0.9,0.1,1.8,0.3,2.6,0.7C82.4,58.6,84.2,61.5,83.9,64.7z"/>
<path id="XMLID_612_" class="st6" d="M26.9,68.5c-0.4,5.1-4.9,8.9-10,8.5c-2.9-0.2-5.3-1.7-6.8-3.9c-1.2-1.7-1.8-3.8-1.7-6.1
	c0.4-5.1,4.9-8.9,10-8.5c1.3,0.1,2.5,0.5,3.6,1.1C25.2,61.2,27.2,64.7,26.9,68.5z"/>
<path id="XMLID_614_" class="st6" d="M88.5,32.4c-0.1,1.6-1.5,2.7-3,2.6c-0.8-0.1-1.4-0.4-1.9-1c-0.5-0.5-0.8-1.3-0.7-2.1
	c0.1-1.5,1.5-2.7,3-2.6h0C87.5,29.5,88.6,30.9,88.5,32.4z"/>
<path id="XMLID_414_" class="st6" d="M70.5,8c-0.3,3.3-3.2,5.8-6.5,5.5c-2.1-0.2-3.9-1.4-4.8-3.2c-0.5-1-0.8-2.1-0.7-3.3
	c0.3-3.3,3.2-5.8,6.5-5.5c0.6,0,1.1,0.2,1.6,0.4C69.1,2.8,70.7,5.2,70.5,8z"/>
<path id="XMLID_403_" class="st7" d="M9.3,27c-0.3,3.5-3.3,6-6.8,5.7c-0.6-0.1-1.3-0.2-1.8-0.4c-0.6-1-0.9-2.2-0.7-3.5
	c0.3-3.5,3.3-6,6.8-5.7c0.6,0.1,1.2,0.2,1.8,0.4C9.2,24.5,9.4,25.7,9.3,27z"/>
<path id="XMLID_228_" class="st7" d="M61,67.5c-0.4,5.1-4.9,9-10.1,8.6c-1.3-0.1-2.6-0.5-3.7-1.1c-1.2-1.7-1.9-3.9-1.7-6.1
	c0.4-5.1,4.9-9,10.1-8.6c1.3,0.1,2.6,0.5,3.7,1.1C60.6,63.1,61.2,65.2,61,67.5z"/>
<path id="XMLID_365_" class="st7" d="M80.7,61.8c-0.3,4.1-3.9,7.2-8.1,6.8c-0.9-0.1-1.8-0.3-2.6-0.7c-0.8-1.3-1.2-2.9-1.1-4.5
	c0.3-4.1,4-7.2,8.1-6.8c0.9,0.1,1.8,0.3,2.6,0.7C80.4,58.6,80.9,60.2,80.7,61.8z"/>
<path id="XMLID_610_" class="st7" d="M23.7,65.6c-0.4,5.1-4.9,8.9-10,8.5c-1.3-0.1-2.6-0.5-3.6-1.1c-1.2-1.7-1.8-3.8-1.7-6.1
	c0.4-5.1,4.9-8.9,10-8.5c1.3,0.1,2.5,0.5,3.6,1.1C23.2,61.3,23.9,63.4,23.7,65.6z"/>
<path id="XMLID_380_" class="st7" d="M67.3,5.1c-0.3,3.3-3.2,5.8-6.5,5.5c-0.6-0.1-1.1-0.2-1.6-0.4c-0.5-1-0.8-2.1-0.7-3.3
	c0.3-3.3,3.2-5.8,6.5-5.5c0.6,0,1.1,0.2,1.6,0.4C67.2,2.8,67.4,4,67.3,5.1z"/>
<path id="XMLID_618_" class="st6" d="M36.7,5c-0.1,1.6-1.5,2.8-3.2,2.7c-0.8-0.1-1.4-0.4-1.9-1c-0.5-0.6-0.8-1.4-0.7-2.2
	C31,2.9,32.4,1.7,34,1.8c0,0,0.1,0,0.1,0C35.7,2,36.8,3.4,36.7,5z"/>
<path id="XMLID_619_" class="st6" d="M11.9,11.5c-0.1,1.8-1.7,3.1-3.5,2.9c-0.8-0.1-1.5-0.4-2-1c-0.6-0.6-1-1.5-0.9-2.5
	C5.7,9.2,7.2,7.9,9,8c0.1,0,0.1,0,0.2,0C10.8,8.3,12.1,9.8,11.9,11.5z"/>
<path id="XMLID_220_" class="st7" d="M12.6,45.3c-0.1,1.5-1.4,2.6-2.9,2.5c-0.4-0.5-0.7-1.2-0.6-1.9c0.1-1.5,1.4-2.6,2.9-2.5
	C12.4,43.8,12.7,44.5,12.6,45.3z"/>
<path id="XMLID_222_" class="st7" d="M36.9,55.8c-0.2,2.3-2.2,4.1-4.6,3.9c-0.2,0-0.4,0-0.6-0.1c-1-0.9-1.6-2.2-1.4-3.5
	c0.2-2.4,2.3-4.1,4.6-3.9c0.2,0,0.4,0,0.6,0.1C36.5,53.1,37,54.4,36.9,55.8z"/>
<path id="XMLID_227_" class="st7" d="M76.1,44.8c-0.2,2.1-2,3.6-4.1,3.5c-0.1,0-0.3,0-0.4-0.1c-0.8-0.8-1.3-1.9-1.2-3.1
	c0.2-2.1,2-3.6,4.1-3.5c0.1,0,0.3,0,0.4,0.1C75.7,42.5,76.2,43.6,76.1,44.8z"/>
<path id="XMLID_613_" class="st7" d="M88,2.6c-0.2,1.8-1.7,3.1-3.5,3c-0.1,0-0.2,0-0.2,0c-0.6-0.7-1-1.6-0.9-2.5
	c0.1-1.8,1.7-3.1,3.5-3C86.9,0,87,0,87,0C87.7,0.7,88,1.6,88,2.6z"/>
<path id="XMLID_230_" class="st7" d="M86.6,31.5c-0.1,1.5-1.5,2.7-3,2.6c0,0,0,0,0,0c-0.5-0.5-0.8-1.3-0.7-2.1
	c0.1-1.5,1.5-2.7,3-2.6h0C86.4,29.9,86.7,30.7,86.6,31.5z"/>
<path id="XMLID_615_" class="st7" d="M34.9,4c-0.1,1.6-1.5,2.8-3.2,2.7c0,0-0.1,0-0.1,0c-0.5-0.6-0.8-1.4-0.7-2.2
	C31,2.9,32.4,1.7,34,1.8c0,0,0.1,0,0.1,0C34.6,2.4,34.9,3.2,34.9,4z"/>
<path id="XMLID_617_" class="st7" d="M10.1,10.5c-0.2,1.8-1.7,3.1-3.5,2.9c-0.1,0-0.1,0-0.2,0c-0.6-0.6-1-1.5-0.9-2.5
	C5.7,9.2,7.2,7.9,9,8c0.1,0,0.1,0,0.2,0C9.8,8.7,10.2,9.6,10.1,10.5z"/>
<ellipse id="XMLID_226_" transform="matrix(8.148137e-02 -0.9967 0.9967 8.148137e-02 21.5958 67.7498)" class="st8" cx="47.6" cy="22.2" rx="3.4" ry="3.4"/>
<path id="XMLID_122_" class="st0" d="M73,16.3c-1.5,0.3-3.1-0.9-2.9-2c0.2-1.1,2.6,0.8,3.3,0.1c0.1-0.1-0.2-5.1,1.5-4.8
	c1.7,0.3-1,3.3,0.1,3.9c1.6,0.9,2-3.8,2.9-3.9c2.7-0.3-0.1,2.7,0.3,3.1c1,1,3.9-1.8,4.6-0.7c0.9,1.5-3.5,1.9-3.3,2.8
	c0.2,0.9,3.9,0.2,3.6,1.9c-0.1,0.5-9.5-0.3-10.1-0.2"/>
<path id="XMLID_207_" class="st0" d="M28.4,10.8c-0.1-0.1,1-5-0.7-5c-1.7,0,0.4,3.4-0.8,3.8c-1.7,0.6-1.3-4.1-2.2-4.3
	c-2.6-0.7-0.4,2.7-0.8,3c-1.1,0.8-3.6-2.5-4.5-1.4c-1.1,1.3,3.1,2.4,2.8,3.3c-0.3,0.9-3.9-0.4-3.9,1.3c0,0.2,1.3,0.4,2.9,0.6
	c0,0.1,0,0.1,0,0.2c-0.1,1.4,1.4,2.6,3.4,2.8c2,0.2,3.7-0.8,3.8-2.2c0-0.1,0-0.1,0-0.2c1.4,0.5,3.1-0.4,3.1-1.5
	C31.6,10,29,11.6,28.4,10.8z"/>
<path id="XMLID_624_" class="st3" d="M45.8,37.2c0,0.5-0.3,1-0.9,1.1l-0.4,0c-0.3,0-0.7-0.1-0.8-0.4c0,0,0,0,0,0
	c-0.1-0.1-0.2-0.3-0.2-0.5L43.3,36l2-0.1l0.4,0L45.8,37.2z"/>
<path id="XMLID_622_" class="st4" d="M45.4,37c0,0.5-0.3,1-0.9,1.1l-0.4,0c-0.2,0-0.3,0-0.4-0.1c0,0,0,0,0,0
	c-0.1-0.1-0.2-0.3-0.2-0.5L43.3,36l2-0.1L45.4,37z"/>
<ellipse id="XMLID_92_" class="st4" cx="46.1" cy="21.2" rx="0.5" ry="0.8"/>
<path id="XMLID_1010_" class="st0" d="M51.1,47.3c-0.8,0.2-4.9-2.3-6-4.2c0.5,0,1.1,0.1,1.6,0.1c1,0,2.1-0.1,3-0.3
	C51,44.6,51.9,47.1,51.1,47.3z"/>
<path id="XMLID_981_" class="st9" d="M49.8,41.1c1.7,0,4.9,5.8,3.6,6.2C52.1,47.6,42.5,41.1,49.8,41.1z"/>
<path id="XMLID_493_" class="st10" d="M48.1,41.9c1.3-0.6,4.1,4.7,2.9,3.8C49.8,44.8,46.8,42.4,48.1,41.9z"/>
<path id="XMLID_1009_" class="st9" d="M47.7,43.2c-0.3,0-0.7,0-1,0c-0.6,0-1.1,0-1.6-0.1c-0.1,0-0.1,0-0.2,0c0-0.1,0-0.2,0.1-0.3
	c0.6-1,3.1-1.6,3.1-1.6L47.7,43.2z"/>
</svg>
